<svg width="345" height="264" viewBox="0 0 345 264" fill="none" xmlns="http://www.w3.org/2000/svg">
<g filter="url(#filter0_f)">
<rect width="78.4174" height="245.047" transform="matrix(0.866044 0.499967 -0.866044 0.499967 244.537 69.6577)" fill="url(#paint0_linear)"/>
</g>
<path d="M145.229 116.27L128.705 106.649L120.157 111.554L136.682 121.175L145.229 116.27Z" fill="#3ACC83"/>
<path fill-rule="evenodd" clip-rule="evenodd" d="M156.635 147.073L162.96 122.932L254.009 70.3234L234.701 101.955L156.635 147.073Z" fill="url(#paint1_linear)"/>
<path d="M136.683 121.175L120.158 111.554L107.432 137.21L123.957 146.642L136.683 121.175Z" fill="#0C3525"/>
<path d="M136.785 120.618L125.009 144.388V150.991L128.048 153.443L144.002 144.388V116.468L136.785 120.618Z" fill="#061F15"/>
<g clip-path="url(#clip0)">
<path d="M233.455 25.9008C234.405 25.3349 235.545 25.5235 236.874 26.2781C239.533 27.7873 241.623 31.5603 241.623 34.5787C241.623 36.0879 241.053 37.0311 240.293 37.5971L234.975 40.6154L228.327 28.9192L233.455 25.9008Z" fill="url(#paint2_linear)"/>
<path d="M226.617 31.9376C226.617 29.2965 228.327 27.976 230.606 28.9192C230.796 29.1079 231.176 29.1079 231.366 29.2965C232.885 30.2397 234.215 31.7489 234.975 33.4468C235.544 34.7673 235.924 36.2765 235.924 37.4084C235.924 40.4268 233.645 41.5587 230.986 40.0495L229.656 39.2949C231.556 40.4268 233.075 39.4835 233.075 37.4084C233.075 36.4652 232.885 35.5219 232.316 34.5787C231.746 33.4468 230.796 32.3149 229.846 31.5603C229.656 31.3716 229.466 31.3716 229.277 31.183C227.757 30.617 226.617 31.3716 226.427 33.2581C226.617 33.6354 226.617 31.9376 226.617 31.9376Z" fill="#72726D"/>
<path d="M230.606 28.9192C230.796 29.1078 231.176 29.1078 231.366 29.2965C232.885 30.2397 234.215 31.7489 234.975 33.4468L232.315 34.5786C231.746 33.4467 230.796 32.3149 229.846 31.5603C229.656 31.3716 229.466 31.3716 229.277 31.183L230.606 28.9192Z" fill="#91908D"/>
<path d="M227.757 30.4284C228.517 30.0511 229.466 30.0511 230.606 30.8057C232.695 32.1262 234.595 35.1446 234.405 37.597C234.405 38.7289 234.025 39.6722 233.265 40.0495L224.528 44.9543L219.02 35.3332L227.757 30.4284Z" fill="url(#paint3_linear)"/>
<path d="M237.064 37.9744C237.064 35.3333 238.774 34.0127 241.053 34.956C241.243 35.1446 241.623 35.1446 241.813 35.3333C243.332 36.2765 244.662 37.7857 245.421 39.4835C245.991 40.8041 246.371 42.3133 246.371 43.4452C246.371 46.4636 244.092 47.5954 241.433 46.0863L240.103 45.3317C242.003 46.4636 243.522 45.5203 243.522 43.4452C243.522 42.5019 243.332 41.5587 242.762 40.6154C242.192 39.4835 241.243 38.3516 240.293 37.5971C240.103 37.4084 239.913 37.4084 239.723 37.2198C238.204 36.6538 237.064 37.4084 236.874 39.2949C237.064 39.6722 237.064 37.9744 237.064 37.9744Z" fill="#72726D"/>
<path d="M241.053 34.7673C241.243 34.956 241.623 34.956 241.813 35.1446C243.332 36.0879 244.662 37.5971 245.421 39.2949L242.762 40.4268C242.192 39.2949 241.243 38.163 240.293 37.4084C240.103 37.2198 239.913 37.2198 239.723 37.0311L241.053 34.7673Z" fill="#91908D"/>
<path d="M238.204 36.2765C238.964 35.8992 239.913 35.8992 241.053 36.6538C243.142 37.9744 245.042 40.9928 244.852 43.4452C244.852 44.5771 244.472 45.5203 243.712 45.8976L234.975 50.8025L229.467 41.1814L238.204 36.2765Z" fill="url(#paint4_linear)"/>
<path d="M238.204 23.637C238.964 23.2597 239.913 23.2597 241.053 24.0143C243.142 25.3349 245.042 28.3533 244.852 30.8057C244.852 31.9376 244.472 32.8808 243.712 33.2581L234.975 38.163L229.467 28.5419L238.204 23.637Z" fill="url(#paint5_linear)"/>
<path d="M180.273 30.9944L178.754 35.1446L162.799 34.5787V33.8241L180.273 30.9944Z" fill="#D9D4CD"/>
<path d="M171.916 28.5419L192.429 25.3349L178.374 33.4468L162.799 33.8241L171.916 28.5419Z" fill="#85C597"/>
<path d="M110.377 71.5538L119.684 63.4419L119.494 107.774L110.187 95.7009L110.377 71.5538Z" fill="#2A8659"/>
<path d="M186.351 34.5787L221.489 14.2046L216.361 14.7705L181.033 35.1446L186.351 34.5787Z" fill="#5B554F"/>
<path d="M210.093 48.1614L245.231 27.7873L221.489 14.2046L186.351 34.5787L210.093 48.1614Z" fill="#2D6166"/>
<path d="M215.412 54.7641L250.55 34.5787L245.232 27.7873L210.093 48.1614L215.412 54.7641Z" fill="#2D6166"/>
<path d="M215.222 94.0031L231.936 84.382C243.332 77.7793 250.36 65.7057 250.36 52.5003V34.39L215.412 54.7641L215.222 94.0031Z" fill="#1D4A4F"/>
<path d="M186.351 34.5786L181.033 35.1446V74.3836L186.351 80.9863L210.093 94.569L215.222 94.003L215.412 54.7641L210.093 48.1614L186.351 34.5786Z" fill="#3F3A35"/>
<path d="M215.412 3.64026L216.361 4.20621L206.295 24.3916L205.345 23.8257L215.412 3.64026Z" fill="#9DDBAD"/>
<path d="M221.87 0.0559082L222.63 0.621855L216.362 4.20618L215.412 3.64024L221.87 0.0559082Z" fill="#9DDBAD"/>
<path d="M216.361 4.20618L222.629 0.621849L222.819 14.9592L206.295 24.3916L216.361 4.20618Z" fill="#64AA77"/>
<path d="M237.254 16.2797L238.204 16.657L228.137 36.8424L227.188 36.4651L237.254 16.2797Z" fill="#9DDBAD"/>
<path d="M243.712 12.5067L244.472 13.0727L238.204 16.657L237.255 16.2797L243.712 12.5067Z" fill="#9DDBAD"/>
<path d="M238.204 16.657L244.472 13.0726V27.41L228.138 36.8424L238.204 16.657Z" fill="url(#paint6_linear)"/>
<path d="M250.55 43.4452L253.399 45.143L252.259 51.9344L234.785 58.7257L231.936 54.1982L250.55 43.4452Z" fill="#9DDBAD"/>
<path d="M143.426 81.3636L235.735 41.936V55.33L253.399 45.143V64.0079V64.7625L235.165 87.9663L158.431 132.11L143.426 81.3636Z" fill="url(#paint7_linear)"/>
<path d="M143.426 81.3636L235.735 41.936V55.33L253.399 45.143V64.0079V64.7625L235.165 87.9663L158.431 132.11L143.426 81.3636Z" fill="black" fill-opacity="0.2"/>
<path d="M204.016 17.9776L196.228 19.2981L119.114 63.6306L124.052 64.0079L204.016 17.9776Z" fill="url(#paint8_linear)"/>
<path d="M228.327 31.7489L204.015 17.9776L124.052 64.0079L148.174 77.7793L228.327 31.7489Z" fill="url(#paint9_linear)"/>
<path fill-rule="evenodd" clip-rule="evenodd" d="M160.876 66.7424V65.3744L183.975 51.9988V53.4427L160.876 66.7424Z" fill="#051F22"/>
<path fill-rule="evenodd" clip-rule="evenodd" d="M160.876 66.7424V65.3744L144.236 55.7987V57.1666L160.876 66.7424Z" fill="#181914"/>
<path fill-rule="evenodd" clip-rule="evenodd" d="M183.975 51.9988L160.876 65.3744L144.235 55.7987L167.334 42.4231L183.975 51.9988Z" fill="#1A4145"/>
<path fill-rule="evenodd" clip-rule="evenodd" d="M181.923 51.9988L179.187 53.5948L164.523 45.083L167.258 43.4871L181.923 51.9988Z" fill="#2D6166"/>
<path fill-rule="evenodd" clip-rule="evenodd" d="M178.276 54.1268L175.465 55.7227L160.8 47.287L163.535 45.615L178.276 54.1268Z" fill="#2D6166"/>
<path fill-rule="evenodd" clip-rule="evenodd" d="M174.553 56.2547L171.741 57.8506L157.077 49.4149L159.812 47.8189L174.553 56.2547Z" fill="#2D6166"/>
<path fill-rule="evenodd" clip-rule="evenodd" d="M170.83 58.4586L168.018 60.0546L153.353 51.5428L156.165 49.9469L170.83 58.4586Z" fill="#2D6166"/>
<path fill-rule="evenodd" clip-rule="evenodd" d="M167.106 60.5866L164.295 62.1826L149.63 53.6708L152.442 52.0749L167.106 60.5866Z" fill="#2D6166"/>
<path fill-rule="evenodd" clip-rule="evenodd" d="M163.383 62.7145L160.648 64.3105L145.907 55.8747L148.719 54.2027L163.383 62.7145Z" fill="#2D6166"/>
<path d="M235.735 41.936L228.327 31.7489L148.174 77.7792L158.431 86.0798L235.735 41.936Z" fill="url(#paint10_linear)"/>
<path d="M121.773 69.1014L119.114 63.6306V109.472L121.963 116.264L121.773 69.1014Z" fill="url(#paint11_linear)"/>
<path d="M124.052 64.0079L119.114 63.6306L121.773 69.1014L124.052 64.0079Z" fill="#60B977"/>
<path d="M146.085 82.8728L121.773 69.1014L121.963 116.264L146.085 130.035V82.8728Z" fill="url(#paint12_linear)"/>
<path d="M158.621 86.0798L146.085 82.8728V130.035L158.621 132.11V86.0798Z" fill="#135836"/>
<path d="M148.364 77.7793L124.052 64.0079L121.773 69.1014L146.085 82.8728L148.364 77.7793Z" fill="#80E89B"/>
<path d="M148.364 77.7793L146.085 82.8728L158.621 86.0798L148.364 77.7793Z" fill="#60B977"/>
<g opacity="0.5">
<g opacity="0.5">
<g opacity="0.5">
<path opacity="0.5" d="M213.892 34.5787L217.121 32.8808L220.16 34.5787L217.121 36.4652L213.892 34.5787Z" fill="#D1CBBD"/>
<path opacity="0.5" d="M213.892 34.5787L217.121 32.8808V36.4652L213.892 34.5787Z" fill="#BAB5A8"/>
<path opacity="0.5" d="M219.02 35.3333L217.121 36.4652L215.031 35.3333L217.121 34.2014L219.02 35.3333Z" fill="#E9E5E0"/>
</g>
<g opacity="0.5">
<path opacity="0.5" d="M193.379 46.4635L196.418 44.7657L199.457 46.4635L196.418 48.35L193.379 46.4635Z" fill="#D1CBBD"/>
<path opacity="0.5" d="M193.378 46.4635L196.417 44.7657V48.35L193.378 46.4635Z" fill="#BAB5A8"/>
<path opacity="0.5" d="M198.317 47.2181L196.418 48.35L194.518 47.2181L196.418 46.0862L198.317 47.2181Z" fill="#E9E5E0"/>
</g>
<g opacity="0.5">
<path opacity="0.5" d="M172.675 58.3484L175.714 56.6506L178.943 58.3484L175.714 60.0463L172.675 58.3484Z" fill="#D1CBBD"/>
<path opacity="0.5" d="M172.675 58.3484L175.714 56.6506V60.0463L172.675 58.3484Z" fill="#BAB5A8"/>
<path opacity="0.5" d="M177.614 59.103L175.714 60.0463L173.815 59.103L175.714 57.9711L177.614 59.103Z" fill="#E9E5E0"/>
</g>
<g opacity="0.5">
<path opacity="0.5" d="M151.972 70.2333L155.011 68.3468L158.24 70.2333L155.011 71.9311L151.972 70.2333Z" fill="#D1CBBD"/>
<path opacity="0.5" d="M151.972 70.2333L155.011 68.3468V71.9311L151.972 70.2333Z" fill="#BAB5A8"/>
<path opacity="0.5" d="M157.101 70.7992L155.011 71.9311L153.112 70.7992L155.011 69.6674L157.101 70.7992Z" fill="#E9E5E0"/>
</g>
</g>
<g opacity="0.5">
<g opacity="0.5">
<path opacity="0.5" d="M195.848 24.203L198.887 22.5051L202.116 24.203L198.887 26.0895L195.848 24.203Z" fill="#D1CBBD"/>
<path opacity="0.5" d="M195.848 24.203L198.887 22.5051V26.0895L195.848 24.203Z" fill="#BAB5A8"/>
<path opacity="0.5" d="M200.976 24.9576L198.887 26.0895L196.987 24.9576L198.887 23.8257L200.976 24.9576Z" fill="#E9E5E0"/>
</g>
<g opacity="0.5">
<path opacity="0.5" d="M175.145 36.0879L178.184 34.39L181.413 36.0879L178.184 37.9744L175.145 36.0879Z" fill="#D1CBBD"/>
<path opacity="0.5" d="M175.145 36.0879L178.184 34.39V37.9744L175.145 36.0879Z" fill="#BAB5A8"/>
<path opacity="0.5" d="M180.273 36.8425L178.184 37.9744L176.284 36.8425L178.184 35.7106L180.273 36.8425Z" fill="#E9E5E0"/>
</g>
<g opacity="0.5">
<path opacity="0.5" d="M154.442 47.9727L157.67 46.0863L160.709 47.9727L157.67 49.6706L154.442 47.9727Z" fill="#D1CBBD"/>
<path opacity="0.5" d="M154.441 47.9727L157.67 46.0863V49.6706L154.441 47.9727Z" fill="#BAB5A8"/>
<path opacity="0.5" d="M159.57 48.5387L157.67 49.6706L155.581 48.5387L157.67 47.5954L159.57 48.5387Z" fill="#E9E5E0"/>
</g>
<g opacity="0.5">
<path opacity="0.5" d="M133.928 59.8576L136.967 57.9711L140.006 59.8576L136.967 61.5555L133.928 59.8576Z" fill="#D1CBBD"/>
<path opacity="0.5" d="M133.928 59.8576L136.967 57.9711V61.5555L133.928 59.8576Z" fill="#BAB5A8"/>
<path opacity="0.5" d="M138.867 60.4236L136.967 61.5555L135.068 60.4236L136.967 59.2917L138.867 60.4236Z" fill="#E9E5E0"/>
</g>
</g>
</g>
<path d="M229.087 72.4971L222.629 68.7241V83.816L229.087 87.4004V72.4971Z" fill="#72726D"/>
<path d="M264.035 52.3117L257.577 48.5387L222.629 68.7241L229.087 72.4971L264.035 52.3117Z" fill="#9DDBAD"/>
<path d="M229.087 72.4971V87.4003L245.801 77.7793L264.035 57.0279V52.3117L229.087 72.4971Z" fill="url(#paint13_linear)"/>
<path d="M168.687 129.469L232.316 92.4939V68.3468L168.687 105.322V129.469Z" fill="url(#paint14_linear)"/>
<path d="M168.687 105.322L232.316 68.3468L223.199 49.6706L159.38 86.4571L168.687 105.322Z" fill="url(#paint15_linear)"/>
<path d="M158.702 86.3402L159.38 130.79L168.687 129.469V105.322L158.702 86.3402Z" fill="#21744B"/>
<path opacity="0.6" d="M186.351 77.0246L193.379 91.1733V113.623V113.811L173.056 125.507V102.87L166.218 88.9095V88.7209L186.351 77.0246ZM173.246 102.681V124.941L192.809 113.623V91.362L185.971 77.5906L166.218 88.9095L173.246 102.681Z" fill="#0F5B36"/>
<path opacity="0.6" d="M221.299 57.0279L228.327 71.1765V93.6258V93.8144L208.004 105.511V82.8728L201.166 68.9128V68.7241L221.299 57.0279ZM208.384 82.6841V104.945L227.947 93.6258V71.3652L221.11 57.5938L201.356 68.9128L208.384 82.6841Z" fill="#0F5B36"/>
<path d="M130.13 134.374L139.247 133.997L146.084 130.035V117.773L123.672 122.3L130.13 134.374Z" fill="#00100A"/>
<path d="M107.717 121.546L130.13 134.374V126.828L107.717 114V121.546Z" fill="#00100A"/>
<path d="M130.13 126.828L146.084 117.773L123.672 104.945L107.717 114L130.13 126.828Z" fill="#7B7A77"/>
<path d="M105.058 106.454L102.969 104.001V110.604L105.058 114.377V106.454Z" fill="#073C27"/>
<path d="M117.784 80.7977L114.935 80.0431L102.969 104.001L105.058 106.454L117.784 80.7977Z" fill="url(#paint16_linear)"/>
<path d="M126.331 75.8928H121.963L114.935 80.043L117.784 80.7976L126.331 75.8928Z" fill="#21AF68"/>
<path d="M121.583 123.81L105.058 114.377L109.047 117.584L125.571 127.017L121.583 123.81Z" fill="#00160B"/>
<path d="M127.091 124.376L121.583 123.81L125.571 127.017L130.13 126.828L127.091 124.376Z" fill="#00160B"/>
<path d="M121.583 115.886L105.058 106.454V114.377L121.583 123.81V115.886Z" fill="#061F15"/>
<path d="M127.091 117.773L121.583 115.886V123.81L127.091 124.376V117.773Z" fill="#073C27"/>
<path d="M142.855 85.5139L126.331 75.8928L117.784 80.7976L134.308 90.4187L142.855 85.5139Z" fill="#3ACC83"/>
<path d="M134.309 90.4187L117.784 80.7976L105.058 106.454L121.583 115.886L134.309 90.4187Z" fill="url(#paint17_linear)"/>
<path opacity="0.8" d="M120.633 117.018L106.008 108.718V113.434L120.633 121.734V117.018Z" fill="#051F22"/>
<path d="M138.867 94.0031L134.308 90.4187L121.582 115.886L127.091 117.773L138.867 94.0031Z" fill="url(#paint18_linear)"/>
<path d="M138.867 94.0031L127.091 117.773V124.376L130.13 126.828L146.084 117.773V89.8528L138.867 94.0031Z" fill="#196740"/>
<path d="M146.084 89.8528L142.856 85.5139L134.308 90.4187L138.867 94.0031L146.084 89.8528Z" fill="#21AF68"/>
<path d="M117.974 118.15L121.203 117.207L121.013 116.641L118.164 117.396L107.907 111.736L106.008 107.963L105.438 108.152L107.527 112.113L117.974 118.15Z" fill="#1A4145"/>
<path d="M118.368 117.704L121.476 122.448L120.998 122.756L117.89 118.013L118.368 117.704Z" fill="#1A4145"/>
<path d="M107.564 111.819L107.947 112.238L105.978 114.013L105.595 113.594L107.564 111.819Z" fill="#1A4145"/>
<path opacity="0.4" d="M175.335 121.169L176.855 120.414C177.044 120.225 177.424 120.414 177.424 120.603V121.169C177.424 121.357 177.234 121.734 176.855 121.923L175.335 122.678C175.145 122.866 174.765 122.678 174.765 122.489V121.923C174.955 121.546 175.145 121.357 175.335 121.169Z" fill="#9B968C"/>
<path d="M175.336 122.3L176.666 121.546C176.855 121.357 177.045 121.168 177.045 120.98V120.602C177.045 120.414 176.855 120.414 176.666 120.414L175.336 121.168C175.146 121.357 174.956 121.546 174.956 121.734V122.112C174.956 122.3 175.146 122.489 175.336 122.3Z" fill="#912323"/>
</g>
<path fill-rule="evenodd" clip-rule="evenodd" d="M199.992 124.633L181.349 155.599L169.032 148.607C156.548 141.615 175.19 110.149 187.508 117.308L199.992 124.633Z" fill="#051F22"/>
<path fill-rule="evenodd" clip-rule="evenodd" d="M198.66 126.964L180.85 116.809C182.681 116.309 184.345 116.143 186.01 116.809L199.992 124.8L198.66 126.964Z" fill="#1A4145"/>
<path fill-rule="evenodd" clip-rule="evenodd" d="M196.163 131.126L175.856 119.639C176.855 118.806 177.853 118.14 178.852 117.641L197.828 128.296L196.163 131.126Z" fill="#1A4145"/>
<path fill-rule="evenodd" clip-rule="evenodd" d="M195.331 132.625L192.334 134.289L172.36 122.968C173.026 122.136 173.858 121.304 174.524 120.638L195.331 132.292V132.625Z" fill="#1A4145"/>
<path fill-rule="evenodd" clip-rule="evenodd" d="M192.501 136.287L189.172 138.119L169.531 126.964C170.031 126.132 170.696 125.133 171.362 124.3L192.501 136.287Z" fill="#1A4145"/>
<path fill-rule="evenodd" clip-rule="evenodd" d="M189.172 139.783L185.843 141.615L167.2 131.126C167.7 130.127 168.033 129.295 168.698 128.296L189.172 139.783Z" fill="#1A4145"/>
<path fill-rule="evenodd" clip-rule="evenodd" d="M186.509 143.779L183.18 145.61L165.703 135.621C166.036 134.622 166.369 133.623 166.702 132.625L186.509 143.779Z" fill="#1A4145"/>
<path fill-rule="evenodd" clip-rule="evenodd" d="M184.345 150.938L183.513 151.437L165.037 140.949C165.037 140.116 165.037 139.284 165.203 138.285C165.203 138.118 165.203 137.952 165.203 137.785V137.619V137.453L185.51 148.773L184.345 150.938Z" fill="#1A4145"/>
<path fill-rule="evenodd" clip-rule="evenodd" d="M181.516 155.6L167.7 147.775C167.534 147.608 167.534 147.608 167.367 147.442C166.202 146.11 165.536 144.612 165.203 142.78L183.347 152.936L181.516 155.6Z" fill="#1A4145"/>
<path fill-rule="evenodd" clip-rule="evenodd" d="M191.004 125.466C183.846 129.461 178.187 139.45 178.187 147.608C178.187 155.766 184.013 159.095 191.004 155.1C198.161 151.104 203.82 141.115 203.82 132.957C203.82 124.8 197.994 121.47 191.004 125.466Z" fill="#051F22"/>
<path fill-rule="evenodd" clip-rule="evenodd" d="M191.003 129.961C186.01 132.791 182.015 139.783 182.015 145.444C182.015 151.104 186.01 153.435 191.003 150.605C195.997 147.775 199.992 140.782 199.992 135.122C199.992 129.461 195.997 127.131 191.003 129.961Z" fill="#7C7EA3"/>
<path fill-rule="evenodd" clip-rule="evenodd" d="M191.836 133.124C188.007 135.288 185.011 140.616 185.011 144.944C185.011 149.273 188.007 151.104 191.836 148.94C195.664 146.776 198.66 141.448 198.66 137.12C198.66 132.791 195.664 130.96 191.836 133.124Z" fill="#9395BA"/>
<path fill-rule="evenodd" clip-rule="evenodd" d="M192.169 137.619C190.504 138.618 189.006 140.949 189.006 142.947C189.006 144.944 190.338 145.777 192.169 144.778C193.833 143.779 195.332 141.448 195.332 139.45C195.332 137.453 193.833 136.62 192.169 137.619Z" fill="#363634"/>
<path fill-rule="evenodd" clip-rule="evenodd" d="M189.672 144.778C190.172 144.944 190.838 144.778 191.503 144.445C193.168 143.446 194.666 141.115 194.666 139.117C194.666 138.285 194.5 137.619 194 137.286C193.501 137.12 192.835 137.286 192.169 137.619C190.505 138.618 189.007 140.949 189.007 142.947C189.007 143.779 189.34 144.445 189.672 144.778Z" fill="#167948"/>
<path fill-rule="evenodd" clip-rule="evenodd" d="M254.09 93.1677L235.447 124.134L223.13 117.141C210.646 110.149 229.289 78.6836 241.606 85.8424L254.09 93.1677Z" fill="#051F22"/>
<path fill-rule="evenodd" clip-rule="evenodd" d="M252.758 95.4985L234.948 85.3429C236.779 84.8435 238.443 84.677 240.108 85.3429L254.09 93.3342L252.758 95.4985Z" fill="#1A4145"/>
<path fill-rule="evenodd" clip-rule="evenodd" d="M250.262 99.6607L229.955 88.1733C230.953 87.3409 231.952 86.675 232.951 86.1755L251.926 96.8305L250.262 99.6607Z" fill="#1A4145"/>
<path fill-rule="evenodd" clip-rule="evenodd" d="M249.263 101.159L246.267 102.824L226.292 91.503C226.958 90.6706 227.79 89.8381 228.456 89.1722L249.263 100.826V101.159Z" fill="#1A4145"/>
<path fill-rule="evenodd" clip-rule="evenodd" d="M246.433 104.822L243.104 106.653L223.462 95.4985C223.962 94.6661 224.627 93.6672 225.293 92.8347L246.433 104.822Z" fill="#1A4145"/>
<path fill-rule="evenodd" clip-rule="evenodd" d="M243.27 108.318L239.941 110.149L221.298 99.6606C221.798 98.6617 222.131 97.8293 222.796 96.8304L243.27 108.318Z" fill="#1A4145"/>
<path fill-rule="evenodd" clip-rule="evenodd" d="M240.44 112.313L237.111 114.145L219.634 104.156C219.967 103.157 220.3 102.158 220.633 101.159L240.44 112.313Z" fill="#1A4145"/>
<path fill-rule="evenodd" clip-rule="evenodd" d="M238.277 119.472L237.445 119.972L218.969 109.483C218.969 108.651 218.969 107.818 219.135 106.819C219.135 106.653 219.135 106.486 219.135 106.32V106.153V105.987L239.442 117.308L238.277 119.472Z" fill="#1A4145"/>
<path fill-rule="evenodd" clip-rule="evenodd" d="M235.447 124.134L221.631 116.309C221.465 116.142 221.465 116.142 221.298 115.976C220.133 114.644 219.468 113.146 219.135 111.314L237.278 121.47L235.447 124.134Z" fill="#1A4145"/>
<path fill-rule="evenodd" clip-rule="evenodd" d="M244.935 94.1666C237.777 98.1622 232.118 108.151 232.118 116.309C232.118 124.467 237.944 127.796 244.935 123.801C252.092 119.805 257.751 109.816 257.751 101.658C257.918 93.5007 252.092 90.0045 244.935 94.1666Z" fill="#051F22"/>
<path fill-rule="evenodd" clip-rule="evenodd" d="M244.934 98.4952C239.941 101.325 235.946 108.318 235.946 113.978C235.946 119.639 239.941 121.969 244.934 119.139C249.928 116.309 253.923 109.317 253.923 103.656C253.923 98.1623 249.928 95.665 244.934 98.4952Z" fill="#7C7EA3"/>
<path fill-rule="evenodd" clip-rule="evenodd" d="M245.767 101.658C241.938 103.823 238.942 109.15 238.942 113.479C238.942 117.807 241.938 119.639 245.767 117.474C249.595 115.31 252.591 109.983 252.591 105.654C252.591 101.325 249.595 99.4941 245.767 101.658Z" fill="#9395BA"/>
<path fill-rule="evenodd" clip-rule="evenodd" d="M246.1 106.153C244.436 107.152 242.938 109.483 242.938 111.481C242.938 113.479 244.269 114.311 246.1 113.312C247.765 112.313 249.263 109.983 249.263 107.985C249.263 105.987 247.931 105.155 246.1 106.153Z" fill="#363634"/>
<path fill-rule="evenodd" clip-rule="evenodd" d="M243.77 113.479C244.269 113.645 244.935 113.479 245.601 113.146C247.265 112.147 248.763 109.816 248.763 107.818C248.763 106.986 248.597 106.32 248.097 105.987C247.598 105.821 246.932 105.987 246.266 106.32C244.602 107.319 243.104 109.65 243.104 111.647C243.104 112.48 243.27 112.979 243.77 113.479Z" fill="#167948"/>
<path d="M86.1934 132.739L93.0111 129.182L91.3158 138.407L86.4358 141.862L86.1934 132.739Z" fill="#0F3823"/>
<rect width="8.58348" height="10.4788" transform="matrix(1.19249e-08 1 -0.865988 -0.500065 134.462 172.607)" fill="#0D4930"/>
<path d="M86.4126 133.341L86.4126 141.913L78.2172 137.151L78.2171 128.571L86.4126 133.341Z" fill="#0D4930"/>
<rect width="8.58348" height="67.0756" transform="matrix(1.19249e-08 1 -0.865988 -0.500065 149.218 163.442)" fill="#064425"/>
<path d="M134.462 172.209L152.452 161.902L152.452 170.604L134.461 180.991L134.462 172.209Z" fill="#17603C"/>
<path d="M120.92 179.868L131.538 173.596L132.483 174.405L132.482 179.741L120.919 186.417L120.92 179.868Z" fill="#051F22"/>
<path d="M120.134 180.324L114.837 177.265L127.007 170.24L130.981 172.788L131.826 173.668L120.134 180.324Z" fill="#275A60"/>
<path d="M121.576 178.244L130.874 172.646L132.344 174.277L122.737 180.167L121.576 178.244Z" fill="#1A4145"/>
<path d="M118.476 160.743L118.395 159.257L117.702 158.933L117.768 160.362L118.476 160.743Z" fill="#275A60"/>
<path d="M118.399 159.269L123.604 154.046L123.725 157.21L118.466 160.725L118.399 159.269Z" fill="#051F22"/>
<path d="M118.409 159.259L117.703 158.933L122.285 153.352L123.616 154.046L118.409 159.259Z" fill="#275A60"/>
<path d="M114.759 158.503L114.667 156.769L113.972 156.385L114.048 158.052L114.759 158.503Z" fill="#275A60"/>
<path d="M114.672 156.783L119.838 150.73L119.983 154.422L114.75 158.482L114.672 156.783Z" fill="#051F22"/>
<path d="M114.68 156.771L113.972 156.386L118.513 149.911L119.85 150.731L114.68 156.771Z" fill="#275A60"/>
<path fill-rule="evenodd" clip-rule="evenodd" d="M94.598 132.19L134.182 155.044L125.406 167.408L134.434 172.741L152.458 161.914L151.919 161.695L99.5791 131.476L99.6514 131.466L91.6756 126.913L86.4065 123.871L83.2972 125.666L83.325 125.682L78.1841 128.602L86.4296 133.362L94.598 132.19Z" fill="url(#paint19_linear)"/>
<path d="M115.647 180.77L123.408 179.359L123.408 187.166L115.647 189.235L115.647 180.77Z" fill="#17603C"/>
<path d="M115.647 180.781L115.647 189.148L94.6839 177.127L94.6839 169.781L115.647 180.781Z" fill="#0D4930"/>
<path d="M110.185 156.301L110.091 154.568L109.311 154.187L109.388 155.855L110.185 156.301Z" fill="#275A60"/>
<path d="M110.095 154.581L115.941 148.498L116.083 152.189L110.174 156.28L110.095 154.581Z" fill="#051F22"/>
<path d="M110.106 154.57L109.312 154.188L114.456 147.686L115.955 148.498L110.106 154.57Z" fill="#275A60"/>
<path d="M106.468 154.06L106.375 152.327L105.594 151.947L105.671 153.614L106.468 154.06Z" fill="#275A60"/>
<path d="M106.379 152.341L112.224 146.257L112.366 149.949L106.457 154.04L106.379 152.341Z" fill="#051F22"/>
<path d="M106.389 152.329L105.595 151.947L110.739 145.445L112.238 146.257L106.389 152.329Z" fill="#275A60"/>
<path d="M102.352 150.633L102.271 149.147L101.578 148.822L101.644 150.251L102.352 150.633Z" fill="#275A60"/>
<path d="M102.275 149.159L107.479 143.936L107.601 147.1L102.342 150.615L102.275 149.159Z" fill="#051F22"/>
<path d="M102.285 149.149L101.579 148.823L106.161 143.242L107.492 143.936L102.285 149.149Z" fill="#275A60"/>
<path d="M98.6353 148.392L98.5544 146.906L97.8615 146.582L97.9271 148.011L98.6353 148.392Z" fill="#275A60"/>
<path d="M98.5583 146.918L103.763 141.695L103.884 144.859L98.6254 148.374L98.5583 146.918Z" fill="#051F22"/>
<path d="M98.5679 146.908L97.8622 146.582L102.444 141.001L103.775 141.695L98.5679 146.908Z" fill="#275A60"/>
<path d="M123.407 179.359L117.795 174.3L113.894 175.611L95.4877 169.714L94.6836 170.607L115.636 180.811L123.407 179.359Z" fill="url(#paint20_linear)"/>
<path d="M123.407 179.359L117.795 174.3L113.894 175.611L95.4877 169.714L94.6836 170.607L115.636 180.811L123.407 179.359Z" fill="black" fill-opacity="0.2"/>
<path d="M75.2915 138.53L84.2749 133.51L84.8867 134.214L84.8867 138.784L75.2911 144.324L75.2915 138.53Z" fill="#051F22"/>
<path d="M74.6382 139.256L70.2326 136.712L80.5443 130.76L83.4025 132.592L84.3208 133.602L74.6382 139.256Z" fill="#275A60"/>
<path d="M74.1064 138.16L83.4042 132.562L84.8744 134.193L75.2673 140.083L74.1064 138.16Z" fill="#1A4145"/>
<path d="M68.3506 141.134L77.1724 138.241L77.1719 145.124L69.3295 149.652L68.3506 141.134Z" fill="#17603C"/>
<path d="M62.9507 139.216L70.4538 165.56V159.042L67.9616 144.104L62.9507 139.216Z" fill="#0C472F"/>
<path fill-rule="evenodd" clip-rule="evenodd" d="M62.9382 139.08L62.9375 139.08L71.3112 133.218L77.1728 138.243L70.4996 141.034L72.1486 158.946H70.4739L62.9375 139.08L62.9382 139.08Z" fill="url(#paint21_linear)"/>
<rect x="70.4541" y="158.946" width="1.67474" height="6.61364" fill="#2C8C4D"/>
<defs>
<filter id="filter0_f" x="0.0877228" y="37.43" width="344.589" height="226.177" filterUnits="userSpaceOnUse" color-interpolation-filters="sRGB">
<feFlood flood-opacity="0" result="BackgroundImageFix"/>
<feBlend mode="normal" in="SourceGraphic" in2="BackgroundImageFix" result="shape"/>
<feGaussianBlur stdDeviation="16.1139" result="effect1_foregroundBlur"/>
</filter>
<linearGradient id="paint0_linear" x1="39.2087" y1="0" x2="39.2087" y2="245.047" gradientUnits="userSpaceOnUse">
<stop offset="0.377547" stop-color="#000606"/>
<stop offset="1" stop-color="#000606" stop-opacity="0"/>
</linearGradient>
<linearGradient id="paint1_linear" x1="254.009" y1="53.7196" x2="150.806" y2="152.837" gradientUnits="userSpaceOnUse">
<stop stop-color="#001209" stop-opacity="0.7"/>
<stop offset="0.802096" stop-color="#001209"/>
</linearGradient>
<linearGradient id="paint2_linear" x1="232.372" y1="26.4239" x2="239.061" y2="38.089" gradientUnits="userSpaceOnUse">
<stop stop-color="#7B7A77"/>
<stop offset="1" stop-color="#686863"/>
</linearGradient>
<linearGradient id="paint3_linear" x1="224.748" y1="32.0675" x2="230.271" y2="41.6991" gradientUnits="userSpaceOnUse">
<stop stop-color="#7B7A77"/>
<stop offset="1" stop-color="#686863"/>
</linearGradient>
<linearGradient id="paint4_linear" x1="235.186" y1="38.0528" x2="240.709" y2="47.6844" gradientUnits="userSpaceOnUse">
<stop stop-color="#7B7A77"/>
<stop offset="1" stop-color="#686863"/>
</linearGradient>
<linearGradient id="paint5_linear" x1="235.186" y1="25.289" x2="240.709" y2="34.9206" gradientUnits="userSpaceOnUse">
<stop stop-color="#7B7A77"/>
<stop offset="1" stop-color="#686863"/>
</linearGradient>
<linearGradient id="paint6_linear" x1="253.77" y1="9.35602" x2="236.305" y2="36.8424" gradientUnits="userSpaceOnUse">
<stop stop-color="#81C393"/>
<stop offset="1" stop-color="#509964"/>
</linearGradient>
<linearGradient id="paint7_linear" x1="198.412" y1="41.936" x2="148.766" y2="109.879" gradientUnits="userSpaceOnUse">
<stop stop-color="#7CF29C"/>
<stop offset="1" stop-color="#126B2A"/>
</linearGradient>
<linearGradient id="paint8_linear" x1="101.868" y1="55.8566" x2="211.919" y2="-2.01077" gradientUnits="userSpaceOnUse">
<stop offset="0.0185559" stop-color="#6EAC7E"/>
<stop offset="0.776322" stop-color="#9FD2AC"/>
</linearGradient>
<linearGradient id="paint9_linear" x1="181.952" y1="7.806" x2="123.568" y2="67.74" gradientUnits="userSpaceOnUse">
<stop stop-color="#EBF9EE"/>
<stop offset="1" stop-color="#82C293"/>
</linearGradient>
<linearGradient id="paint10_linear" x1="247.053" y1="23.8229" x2="169.627" y2="93.9457" gradientUnits="userSpaceOnUse">
<stop stop-color="#CDEBD5"/>
<stop offset="0.966789" stop-color="#51AA69"/>
</linearGradient>
<linearGradient id="paint11_linear" x1="121.863" y1="62.1277" x2="121.906" y2="64.5796" gradientUnits="userSpaceOnUse">
<stop stop-color="#3DAB75"/>
<stop offset="1" stop-color="#135836"/>
</linearGradient>
<linearGradient id="paint12_linear" x1="145.235" y1="67.3615" x2="105.316" y2="84.3455" gradientUnits="userSpaceOnUse">
<stop stop-color="#3DAB75"/>
<stop offset="1" stop-color="#135836"/>
</linearGradient>
<linearGradient id="paint13_linear" x1="264.103" y1="46.0398" x2="246.561" y2="87.4003" gradientUnits="userSpaceOnUse">
<stop stop-color="#5AB673"/>
<stop offset="1" stop-color="#205E30"/>
</linearGradient>
<linearGradient id="paint14_linear" x1="230.09" y1="66.6015" x2="174.816" y2="127.96" gradientUnits="userSpaceOnUse">
<stop stop-color="#3DAB75"/>
<stop offset="1" stop-color="#135836"/>
</linearGradient>
<linearGradient id="paint15_linear" x1="229.765" y1="48.0815" x2="181.871" y2="115.014" gradientUnits="userSpaceOnUse">
<stop stop-color="#3DAB75"/>
<stop offset="1" stop-color="#135836"/>
</linearGradient>
<linearGradient id="paint16_linear" x1="117.265" y1="79.2889" x2="96.1071" y2="91.9451" gradientUnits="userSpaceOnUse">
<stop stop-color="#3DAB75"/>
<stop offset="1" stop-color="#135836"/>
</linearGradient>
<linearGradient id="paint17_linear" x1="133.285" y1="79.7957" x2="101.601" y2="107.961" gradientUnits="userSpaceOnUse">
<stop stop-color="#3DAB75"/>
<stop offset="1" stop-color="#135836"/>
</linearGradient>
<linearGradient id="paint18_linear" x1="145.785" y1="67.2233" x2="107.207" y2="95.1233" gradientUnits="userSpaceOnUse">
<stop stop-color="#3DAB75"/>
<stop offset="1" stop-color="#135836"/>
</linearGradient>
<linearGradient id="paint19_linear" x1="123.739" y1="172.741" x2="145.053" y2="133.897" gradientUnits="userSpaceOnUse">
<stop offset="0.10132" stop-color="#1B7C4C"/>
<stop offset="1" stop-color="#16834D"/>
</linearGradient>
<linearGradient id="paint20_linear" x1="93.2791" y1="169.483" x2="134.721" y2="172.156" gradientUnits="userSpaceOnUse">
<stop stop-color="#55EF89"/>
<stop offset="0.714745" stop-color="#1C9156"/>
</linearGradient>
<linearGradient id="paint21_linear" x1="73.5054" y1="133.739" x2="71.3966" y2="156.619" gradientUnits="userSpaceOnUse">
<stop stop-color="#26954C"/>
<stop offset="1" stop-color="#44BF6E"/>
</linearGradient>
<clipPath id="clip0">
<rect width="173.602" height="138.468" fill="white" transform="matrix(-1 0 0 1 270.303 0.0559082)"/>
</clipPath>
</defs>
</svg>
