<svg width="346" height="268" viewBox="0 0 346 268" fill="none" xmlns="http://www.w3.org/2000/svg">
<g filter="url(#filter0_f)">
<rect width="78.4174" height="245.047" transform="matrix(0.866044 0.499967 -0.866044 0.499967 245.221 73.6577)" fill="url(#paint0_linear)"/>
</g>
<path d="M186.836 134.233L170.025 158.888L125.197 132.271L137.805 115.181L186.836 134.233Z" fill="#02180C"/>
<path d="M173.788 134.233L160.536 158.888L125.197 132.271L135.136 115.181L173.788 134.233Z" fill="#08331B"/>
<g filter="url(#filter1_f)">
<path fill-rule="evenodd" clip-rule="evenodd" d="M120.874 125.3L92.1274 109.015L201.843 46.47C203.041 45.7619 204.238 45.7619 205.436 46.47L232.266 61.3391L200.885 79.2764L221.486 90.6053L236.338 82.1086C237.536 81.4006 238.734 81.4006 239.932 82.1086L266.762 97.2137L169.503 152.914L140.757 136.629L144.829 134.269L124.707 122.94L120.874 125.3Z" fill="#000605"/>
</g>
<path fill-rule="evenodd" clip-rule="evenodd" d="M120.841 91.498C118.914 94.6098 117.709 98.2004 117.709 101.312C117.709 103.706 118.432 106.1 120.6 107.296L133.848 115.196L148.3 107.296L120.841 91.498Z" fill="#082B2F"/>
<path fill-rule="evenodd" clip-rule="evenodd" d="M118.191 97.4823C117.709 98.9185 117.709 100.115 117.709 101.312C117.709 103.706 118.432 106.1 120.599 107.297L138.424 117.589L145.891 113.52L118.191 97.4823Z" fill="#051F22"/>
<path fill-rule="evenodd" clip-rule="evenodd" d="M117.709 102.748C117.95 104.663 118.913 106.578 120.599 107.536L141.074 119.265L143.482 117.59L117.709 102.748Z" fill="#021919"/>
<path fill-rule="evenodd" clip-rule="evenodd" d="M239.832 43.3842L149.746 94.6097C143.242 98.2003 137.943 106.578 137.943 113.041C137.943 119.504 143.483 121.898 149.986 118.308L239.832 66.8426C246.336 63.0127 251.635 54.874 251.635 48.411C251.635 41.948 246.336 39.5542 239.832 43.3842Z" fill="#12393E"/>
<path fill-rule="evenodd" clip-rule="evenodd" d="M237.664 46.4961L151.672 95.5673C145.41 99.1579 140.351 106.339 140.351 111.605C140.351 116.871 145.41 118.308 151.672 114.717L237.664 65.8852C243.927 62.2946 248.985 55.1135 248.985 49.8473C248.985 44.5812 243.927 43.1449 237.664 46.4961Z" fill="#161713"/>
<path fill-rule="evenodd" clip-rule="evenodd" d="M153.358 97.7216L142.278 115.914L142.037 115.674C141.074 114.717 140.351 113.52 140.351 111.605C140.351 106.578 144.928 99.8759 150.95 96.046L153.358 97.7216Z" fill="#161713"/>
<path fill-rule="evenodd" clip-rule="evenodd" d="M152.636 98.9183L149.504 97.2427C149.986 97.0034 150.468 96.5246 150.95 96.2852L153.358 97.7215L152.636 98.9183Z" fill="#55577A"/>
<path fill-rule="evenodd" clip-rule="evenodd" d="M151.19 101.312L147.096 99.1577C147.577 98.679 148.059 98.2002 148.541 97.7215L151.913 99.6364L151.19 101.312Z" fill="#363634"/>
<path fill-rule="evenodd" clip-rule="evenodd" d="M150.708 102.27L149.022 103.227L145.409 101.073C145.891 100.594 146.373 100.115 146.614 99.6366L150.708 102.27Z" fill="#363634"/>
<path fill-rule="evenodd" clip-rule="evenodd" d="M149.022 104.424L147.095 105.621L143.482 103.706C143.723 103.227 144.205 102.748 144.687 102.27L149.022 104.424Z" fill="#363634"/>
<path fill-rule="evenodd" clip-rule="evenodd" d="M147.096 106.578L145.169 107.775L142.037 106.099C142.278 105.621 142.519 104.903 143.001 104.424L147.096 106.578Z" fill="#363634"/>
<path fill-rule="evenodd" clip-rule="evenodd" d="M145.41 108.733L143.483 109.929L141.074 108.493C141.315 108.014 141.556 107.296 141.797 106.578L145.41 108.733Z" fill="#363634"/>
<path fill-rule="evenodd" clip-rule="evenodd" d="M144.205 113.041L143.723 113.281L140.592 111.366C140.592 110.648 140.592 109.929 140.833 109.211L144.928 111.605L144.205 113.041Z" fill="#363634"/>
<path fill-rule="evenodd" clip-rule="evenodd" d="M142.519 115.914L141.796 115.435C141.074 114.717 140.592 113.759 140.592 112.562L143.482 114.238L142.519 115.914Z" fill="#363634"/>
<path fill-rule="evenodd" clip-rule="evenodd" d="M140.351 110.887C140.351 115.914 143.723 117.829 148.059 115.435C152.154 113.041 155.767 107.296 155.767 102.509C155.767 97.9609 152.636 95.8066 148.541 97.9609C144.205 101.551 140.833 106.818 140.351 110.887Z" fill="#294245"/>
<path fill-rule="evenodd" clip-rule="evenodd" d="M148.059 100.833C145.169 102.509 142.76 106.578 142.76 109.93C142.76 113.281 145.169 114.717 148.059 113.041C150.95 111.366 153.358 107.297 153.358 103.945C153.358 100.594 150.95 99.1579 148.059 100.833Z" fill="#55577A"/>
<path fill-rule="evenodd" clip-rule="evenodd" d="M148.541 102.748C146.373 103.945 144.446 107.057 144.446 109.69C144.446 112.323 146.373 113.281 148.541 112.084C150.709 110.887 152.636 107.775 152.636 105.142C152.636 102.509 150.709 101.312 148.541 102.748Z" fill="#EDA705"/>
<path fill-rule="evenodd" clip-rule="evenodd" d="M148.782 105.382C147.818 105.861 146.855 107.297 146.855 108.494C146.855 109.691 147.577 110.17 148.782 109.452C149.745 108.973 150.708 107.537 150.708 106.34C150.708 105.143 149.745 104.664 148.782 105.382Z" fill="#363634"/>
<path fill-rule="evenodd" clip-rule="evenodd" d="M147.337 109.451C147.578 109.451 148.06 109.451 148.541 109.211C149.505 108.733 150.468 107.296 150.468 106.1C150.468 105.621 150.227 105.142 149.987 104.903C149.746 104.903 149.264 104.903 148.782 105.142C147.819 105.621 146.855 107.057 146.855 108.254C146.855 108.972 147.096 109.211 147.337 109.451Z" fill="#55577A"/>
<path fill-rule="evenodd" clip-rule="evenodd" d="M172.587 130.056V123.945L140.586 105.369V111.48L172.587 130.056Z" fill="#0A4226"/>
<path fill-rule="evenodd" clip-rule="evenodd" d="M170.764 123.656L183.559 101.734L153.14 84.3402L140.586 106.262L170.764 123.656Z" fill="url(#paint1_linear)"/>
<path fill-rule="evenodd" clip-rule="evenodd" d="M170.759 128.227L170.994 122.442L227.446 90.7404L227.211 96.5255L170.759 128.227Z" fill="#EDA705"/>
<path fill-rule="evenodd" clip-rule="evenodd" d="M258.451 65.0074L177.991 110.208C171.487 113.815 166.187 122.23 166.187 128.722C166.187 131.126 166.91 133.53 169.078 134.732L189.554 146.514L286.877 75.3459L267.605 64.0457C265.196 62.8435 262.064 63.0839 258.451 65.0074Z" fill="#051F22"/>
<path fill-rule="evenodd" clip-rule="evenodd" d="M169.182 119.084C167.339 122.116 166.187 125.615 166.187 128.647C166.187 130.98 166.878 133.312 168.952 134.478L181.623 141.942L195.445 134.245L169.182 119.084Z" fill="#082B2F"/>
<path fill-rule="evenodd" clip-rule="evenodd" d="M166.652 125.484C166.187 126.921 166.187 128.119 166.187 129.316C166.187 131.71 166.885 134.105 168.977 135.302L186.178 145.599L193.617 141.289L166.652 125.484Z" fill="#051F22"/>
<path fill-rule="evenodd" clip-rule="evenodd" d="M166.187 130.056C166.435 131.964 167.426 133.872 169.161 134.826L190.224 146.514L192.702 144.844L166.187 130.056Z" fill="#021919"/>
<path fill-rule="evenodd" clip-rule="evenodd" d="M278.028 76.9402L199.723 122.775C193.336 126.394 188.131 134.837 188.131 141.35C188.131 147.864 193.572 150.276 199.96 146.658L278.028 100.581C284.416 96.7216 289.62 88.5196 289.62 82.0062C289.62 75.4928 284.416 73.3216 278.028 76.9402Z" fill="#12393E"/>
<path fill-rule="evenodd" clip-rule="evenodd" d="M277.225 79.0712L200.526 123.789C194.175 127.495 189.045 134.907 189.045 140.342C189.045 145.777 194.175 147.26 200.526 143.554L277.225 98.836C283.576 95.1301 288.706 87.7183 288.706 82.2829C288.706 76.8476 283.576 75.3653 277.225 79.0712Z" fill="#021618"/>
<g filter="url(#filter2_f)">
<path fill-rule="evenodd" clip-rule="evenodd" d="M197.971 116.341L274.991 72.7488L259.981 64.2252L248.415 69.8264L181.73 107.087L197.971 116.341Z" fill="#001416"/>
</g>
<path fill-rule="evenodd" clip-rule="evenodd" d="M283.67 78.3323L272.831 96.5246L265.605 92.4552C263.919 91.4978 263.196 89.8222 263.196 87.6678L275.962 80.0079C278.853 78.3323 281.743 77.8536 283.67 78.3323Z" fill="#000F11"/>
<path fill-rule="evenodd" clip-rule="evenodd" d="M277.167 79.2897C273.554 81.9228 270.663 87.189 270.663 91.4977C270.663 96.2851 274.035 98.2001 278.371 95.8064C282.466 93.4127 286.079 87.6677 286.079 82.8803C286.079 80.726 285.356 79.0504 284.152 78.3322C282.466 77.8535 279.816 78.0929 277.167 79.2897Z" fill="#548388"/>
<path fill-rule="evenodd" clip-rule="evenodd" d="M278.371 81.2047C275.481 82.8803 273.072 86.9496 273.072 90.3008C273.072 93.652 275.481 95.0882 278.371 93.4126C281.262 91.737 283.67 87.6677 283.67 84.3165C283.67 80.9653 281.262 79.5291 278.371 81.2047Z" fill="#294245"/>
<path fill-rule="evenodd" clip-rule="evenodd" d="M278.853 83.1196C276.685 84.3165 274.758 87.4283 274.758 90.0614C274.758 92.6945 276.685 93.652 278.853 92.4551C281.021 91.2583 282.948 88.1464 282.948 85.5133C282.948 82.8802 281.021 81.6834 278.853 83.1196Z" fill="#2E7E44"/>
<path fill-rule="evenodd" clip-rule="evenodd" d="M279.094 85.7528C278.131 86.2315 277.167 87.6678 277.167 88.8646C277.167 90.0615 277.89 90.5402 279.094 89.8221C280.058 89.3434 281.021 87.9071 281.021 86.7103C281.021 85.5134 280.058 85.0347 279.094 85.7528Z" fill="#363634"/>
<path fill-rule="evenodd" clip-rule="evenodd" d="M277.649 89.8219C277.89 89.8219 278.372 89.8219 278.854 89.5825C279.817 89.1038 280.781 87.6676 280.781 86.4707C280.781 85.992 280.54 85.5132 280.299 85.5132C280.058 85.5132 279.576 85.5132 279.095 85.7526C278.131 86.2313 277.168 87.6676 277.168 88.8644C277.168 89.3432 277.409 89.8219 277.649 89.8219Z" fill="#294245"/>
<path fill-rule="evenodd" clip-rule="evenodd" d="M204.588 119.881V131.179L205.558 131.885L267.621 96.5794L268.59 84.5756L268.348 84.3402L204.588 119.881Z" fill="#021618"/>
<path fill-rule="evenodd" clip-rule="evenodd" d="M268.59 84.3402L222.199 110.572L206.417 119.472V131.885L212.395 128.606C212.634 129.074 212.873 129.308 213.591 129.777C214.547 130.245 216.221 130.479 217.417 129.777L260.221 105.419C262.612 104.014 264.047 101.906 264.286 99.0954L268.59 96.5191V84.3402Z" fill="#061F11"/>
<path fill-rule="evenodd" clip-rule="evenodd" d="M202.014 125.249L190.934 143.441L190.693 143.202C189.729 142.244 189.007 141.047 189.007 139.132C189.007 134.106 193.583 127.403 199.605 123.573L202.014 125.249Z" fill="#161713"/>
<path fill-rule="evenodd" clip-rule="evenodd" d="M201.05 126.446L196.955 125.488C197.437 125.009 198.882 124.052 199.364 123.812L201.773 125.249L201.05 126.446Z" fill="#55577A"/>
<path fill-rule="evenodd" clip-rule="evenodd" d="M199.123 129.797L197.437 130.754L193.824 128.6C194.306 128.121 194.787 127.642 195.028 127.164L199.123 129.797Z" fill="#363634"/>
<path fill-rule="evenodd" clip-rule="evenodd" d="M197.437 131.951L195.51 133.148L191.897 131.233C192.138 130.754 192.62 130.276 193.101 129.797L197.437 131.951Z" fill="#363634"/>
<path fill-rule="evenodd" clip-rule="evenodd" d="M195.51 134.105L193.583 135.302L190.451 133.627C190.692 133.148 190.933 132.43 191.415 131.951L195.51 134.105Z" fill="#363634"/>
<path fill-rule="evenodd" clip-rule="evenodd" d="M193.824 136.26L191.897 137.457L189.489 136.02C189.729 135.542 189.97 134.824 190.211 134.105L193.824 136.26Z" fill="#363634"/>
<path fill-rule="evenodd" clip-rule="evenodd" d="M192.62 140.569L192.138 140.808L189.007 138.893C189.007 138.175 189.007 137.457 189.247 136.739L193.342 139.132L192.62 140.569Z" fill="#363634"/>
<path fill-rule="evenodd" clip-rule="evenodd" d="M190.934 143.441L190.211 142.962C189.489 142.244 189.007 141.287 189.007 140.09L191.897 141.765L190.934 143.441Z" fill="#363634"/>
<path fill-rule="evenodd" clip-rule="evenodd" d="M189.007 138.414C189.007 143.441 192.379 145.356 196.715 142.962C200.81 140.569 204.423 134.824 204.423 130.036C204.423 125.488 201.292 123.334 197.197 125.488C192.62 129.079 189.248 134.345 189.007 138.414Z" fill="#548388"/>
<path fill-rule="evenodd" clip-rule="evenodd" d="M196.474 128.361C193.583 130.036 191.175 134.106 191.175 137.457C191.175 140.808 193.583 142.244 196.474 140.569C199.364 138.893 201.773 134.824 201.773 131.473C202.014 128.121 199.605 126.685 196.474 128.361Z" fill="#294245"/>
<path fill-rule="evenodd" clip-rule="evenodd" d="M197.197 130.276C195.029 131.472 193.102 134.584 193.102 137.217C193.102 139.85 195.029 140.808 197.197 139.611C199.365 138.414 201.292 135.302 201.292 132.669C201.051 130.036 199.365 128.839 197.197 130.276Z" fill="#2E7E44"/>
<path fill-rule="evenodd" clip-rule="evenodd" d="M197.197 132.908C196.234 133.387 195.27 134.823 195.27 136.02C195.27 137.217 195.993 137.696 197.197 136.978C198.161 136.499 199.124 135.063 199.124 133.866C199.124 132.669 198.401 132.19 197.197 132.908Z" fill="#363634"/>
<path fill-rule="evenodd" clip-rule="evenodd" d="M195.752 136.978C195.993 136.978 196.475 136.978 196.957 136.739C197.92 136.26 198.884 134.824 198.884 133.627C198.884 133.148 198.643 132.669 198.402 132.43C198.161 132.43 197.679 132.43 197.198 132.669C196.234 133.148 195.271 134.584 195.271 135.781C195.512 136.499 195.512 136.739 195.752 136.978Z" fill="#294245"/>
<path fill-rule="evenodd" clip-rule="evenodd" d="M261.276 91.6548L213.731 118.295V123.718C213.731 124.897 214.455 126.075 215.421 126.783C216.628 127.49 217.834 127.49 219.041 126.783L257.414 105.093C259.828 103.678 261.035 101.557 261.035 98.9633V91.6548H261.276Z" fill="#092314"/>
<path fill-rule="evenodd" clip-rule="evenodd" d="M215.636 127.206C216.351 127.447 217.303 127.206 218.017 126.726L255.876 104.626C258.257 103.185 259.447 101.023 259.447 98.3807V91.6548L213.731 118.318V123.843C213.731 125.285 214.922 126.726 215.636 127.206C216.112 127.447 215.636 127.206 215.636 127.206Z" fill="#1A4145"/>
<path fill-rule="evenodd" clip-rule="evenodd" d="M184.473 102.626L178.987 109.941L189.045 104.861L184.473 102.626Z" fill="#0A4226"/>
<g clip-path="url(#clip0)">
<path d="M153.359 74.2494L178.504 59.7345V58.6034L153.359 73.1183V74.2494Z" fill="#7D7A78"/>
<path d="M192.684 20.7138L153.17 41.8264V53.3253L170.374 63.3161L192.684 20.7138Z" fill="#114A51"/>
<path d="M172.454 59.1689L153.17 48.2356V45.5965L173.399 57.2838L172.454 59.1689Z" fill="#082D32"/>
<path d="M179.828 28.0655L162.623 18.2632L153.17 41.8264L170.375 51.8172L179.828 28.0655Z" fill="#295F64"/>
<path d="M207.809 12.0425L190.793 2.05175L162.623 18.2632L179.827 28.0655L207.809 12.0425Z" fill="url(#paint2_linear)"/>
<path d="M179.827 28.0655L170.374 51.8172V63.316L210.645 40.1299L210.455 19.2058L207.809 12.0425L179.827 28.0655Z" fill="url(#paint3_linear)"/>
<path d="M169.241 53.1368V60.4885C169.241 61.054 168.484 61.431 167.917 61.2425L154.872 53.7023C154.305 53.3253 153.927 52.7597 153.927 52.0057V44.654C153.927 44.0885 154.683 43.7115 155.25 43.9L168.295 51.4402C168.863 51.8172 169.241 52.3827 169.241 53.1368Z" fill="url(#paint4_linear)"/>
<path d="M156.573 52.7592C156.006 52.3822 155.628 51.8167 155.628 51.0627V44.088L168.484 51.4397C169.051 51.8167 169.429 52.3822 169.429 53.1362V60.111L156.573 52.7592Z" fill="#05191C"/>
<path d="M153.737 83.1091L145.418 78.2079V91.7803L153.737 96.6815V83.1091Z" fill="#D9D4CD"/>
<path d="M160.354 67.2746L152.035 62.3735L145.418 78.208L153.737 83.1091L160.354 67.2746Z" fill="#53BA6F"/>
<path d="M212.535 37.1137L190.226 40.5068L152.035 62.3735L160.354 67.2746L212.535 37.1137Z" fill="#53BA6F"/>
<path d="M160.354 67.2746L153.737 83.1091V96.6815L190.415 75.5689L212.535 37.1137L160.354 67.2746Z" fill="#BAB5A8"/>
<path d="M152.98 84.6171V93.6654C152.98 94.2309 152.224 94.6079 151.657 94.4194L146.93 91.5918C146.363 91.2148 145.985 90.6493 145.985 89.8953V80.847C145.985 80.2815 146.741 79.9045 147.309 80.093L152.035 83.1091C152.602 83.4861 152.98 84.0516 152.98 84.6171Z" fill="#686863"/>
<path d="M148.632 90.8373C148.065 90.4603 147.687 89.8948 147.687 89.1408V80.281L152.035 83.1086C152.602 83.4856 152.98 84.0511 152.98 84.8051V93.6649L148.632 90.8373Z" fill="#5B5B55"/>
<path d="M216.883 36.5482L212.535 37.1138L127.079 86.5022L131.616 85.5597L216.883 36.5482Z" fill="#53BA6F"/>
<path d="M230.307 44.0885L216.884 36.5482L131.617 85.5597L145.04 93.2884L230.307 44.0885Z" fill="#89E0A1"/>
<path d="M142.393 95.362L234.466 49.7436L234.088 51.8172C225.202 61.2425 204.405 92.5344 191.549 99.8861L148.065 124.957L142.393 95.362Z" fill="url(#paint5_linear)"/>
<path d="M234.466 49.7436L230.307 44.0885L145.04 93.2884L148.254 99.3206L234.466 49.7436Z" fill="#53BA6F"/>
<g opacity="0.3">
<path d="M148.254 121.753L175.479 95.5505L191.738 99.8861C191.738 99.8861 191.738 99.8861 191.549 99.8861L148.065 124.957V121.753H148.254Z" fill="url(#paint6_linear)"/>
<path d="M148.254 121.753L175.479 95.5505L191.738 99.8861C191.738 99.8861 191.738 99.8861 191.549 99.8861L148.065 124.957V121.753H148.254Z" fill="black" fill-opacity="0.2"/>
</g>
<path d="M183.987 100.452L175.479 95.5504V109.311L183.987 114.024V100.452Z" fill="#052F1A"/>
<path d="M190.604 84.6171L182.096 79.716L175.479 95.5505L183.987 100.452L190.604 84.6171Z" fill="url(#paint7_linear)"/>
<path d="M228.794 62.7505L234.466 49.7436L182.096 79.716L190.604 84.6171L228.794 62.7505Z" fill="url(#paint8_linear)"/>
<path d="M190.604 84.6172L183.987 100.452V114.024L221.421 92.5344L228.794 62.7505L190.604 84.6172Z" fill="url(#paint9_linear)"/>
<path d="M183.987 100.452V114.024L221.421 92.5344L225.581 76.3229L191.928 95.362L183.987 100.452Z" fill="url(#paint10_linear)"/>
<path d="M183.987 100.452V114.024L221.421 92.5344L225.581 76.3229L191.928 95.362L183.987 100.452Z" fill="black" fill-opacity="0.2"/>
<path d="M183.23 102.148V111.196C183.23 111.762 182.474 112.139 181.907 111.95L177.18 109.123C176.613 108.746 176.235 108.18 176.235 107.426V98.3781C176.235 97.8125 176.991 97.4355 177.559 97.624L182.285 100.452C182.852 100.829 183.23 101.394 183.23 102.148Z" fill="url(#paint11_linear)"/>
<path d="M178.693 108.369C178.126 107.992 177.748 107.426 177.748 106.672V97.8125L182.285 100.452C182.852 100.829 183.23 101.394 183.23 102.148V111.008L178.693 108.369Z" fill="#02180C"/>
<path d="M131.616 85.5597L127.079 86.5023L124.81 94.4195L131.616 85.5597Z" fill="#53BA6F"/>
<path d="M138.233 102.148L124.81 94.4195V119.679L138.233 127.408V102.148Z" fill="url(#paint12_linear)"/>
<path d="M138.233 102.148L124.81 94.4195V119.679L138.233 127.408V102.148Z" fill="black" fill-opacity="0.2"/>
<path d="M148.254 99.3206L138.234 102.148V127.408L148.254 124.957V99.3206Z" fill="url(#paint13_linear)"/>
<path d="M148.254 99.3206L138.234 102.148V127.408L148.254 124.957V99.3206Z" fill="black" fill-opacity="0.2"/>
<path d="M145.04 93.2885L131.617 85.5597L124.81 94.4195L138.234 102.148L145.04 93.2885Z" fill="url(#paint14_linear)"/>
<path d="M145.04 93.2884L138.234 102.148L148.254 99.3206L145.04 93.2884Z" fill="#2A8658"/>
<path d="M123.676 99.8861L128.024 97.4355L125.378 98.001L121.218 100.452L123.676 99.8861Z" fill="#2A8658"/>
<path d="M130.671 103.845L134.831 101.394L128.024 97.4355L123.676 99.8861L130.671 103.845Z" fill="url(#paint15_linear)"/>
<path d="M133.129 107.426L137.478 104.976L134.831 101.394L130.671 103.845L133.129 107.426Z" fill="#2A8658"/>
<path d="M133.318 128.727L137.478 126.277V104.976L133.129 107.426L133.318 128.727Z" fill="url(#paint16_linear)"/>
<path d="M133.318 128.727L137.478 126.277V104.976L133.129 107.426L133.318 128.727Z" fill="black" fill-opacity="0.2"/>
<path d="M123.676 99.8861L130.671 103.845L133.129 107.426L133.318 128.727L121.218 121.753V100.452L123.676 99.8861Z" fill="#052F1A"/>
<path d="M143.906 77.077L168.484 52.3827L178.126 55.2103L136.343 84.8057L143.906 77.077ZM168.106 53.7023L144.662 77.077L138.234 82.9206L167.917 60.677L168.106 53.7023Z" fill="#CCC7BB"/>
<path d="M169.429 61.431V52.7598L182.096 61.431L182.853 68.9712L147.12 89.5183L145.985 90.0838L136.721 84.6172L169.429 61.431Z" fill="#010E0F"/>
<path d="M204.217 44.4655L194.764 35.9828L218.397 37.3023L228.228 42.9575L204.217 44.4655Z" fill="#CFE9D5"/>
<path d="M168.673 51.0632L179.26 57.0954L178.504 58.9804L167.917 52.7597L168.673 51.0632Z" fill="#1F7A4D"/>
<path d="M194.764 35.9828L205.351 42.2034L179.261 57.0954L168.673 51.0632L194.764 35.9828Z" fill="url(#paint17_linear)"/>
<path d="M143.906 77.0769L148.821 80.093L146.174 90.6493L136.343 84.9942L143.906 77.0769ZM147.876 80.2815L144.095 78.0195L137.289 84.4287L145.796 89.5183L147.876 80.2815Z" fill="#1A6540"/>
<path d="M167.916 52.7598L178.504 58.9804L148.821 80.0931L143.906 77.077L167.916 52.7598ZM177.18 58.9804L168.105 53.7023L145.04 76.8885L148.821 79.1505L177.18 58.9804Z" fill="#8BE4A3"/>
<path d="M148.821 80.093L178.504 58.9804L179.26 57.0954L205.351 42.0149L228.417 42.769L146.175 90.2723L148.821 80.093ZM178.126 60.1115L149.389 80.4701L148.065 88.5758L181.907 68.7827L178.126 60.1115Z" fill="url(#paint18_linear)"/>
<path opacity="0.8" d="M147.876 80.2816L144.095 78.0195L137.289 84.4287L145.796 89.5184L147.876 80.2816Z" fill="#052529"/>
<path opacity="0.8" d="M177.181 58.9804L168.106 53.7023L145.04 76.8885L148.821 79.1505L177.181 58.9804Z" fill="#295F64"/>
<path opacity="0.8" d="M182.09 68.8479L147.747 88.738L149.25 80.7208L177.812 60.1767L182.09 68.8479Z" fill="#10484E"/>
<path d="M203.271 40.3184L194.007 35.0402L179.072 43.523L188.336 48.9896L203.271 40.3184Z" fill="#CFE9D5"/>
<path d="M188.335 48.9896L179.071 43.523L176.992 46.9161L186.256 52.3827L188.335 48.9896Z" fill="#589E6D"/>
<path d="M187.39 49.1781L179.45 44.4655L177.937 46.9161L185.878 51.4402L187.39 49.1781Z" fill="#1F7A4D"/>
<path d="M180.017 44.8425L187.39 49.1781L186.823 49.9322L179.45 45.785L180.017 44.8425Z" fill="#216635"/>
<path d="M188.336 48.9896L186.256 52.3827L204.217 42.0149L203.271 40.3184L188.336 48.9896Z" fill="#1F7A4D"/>
<path d="M180.773 45.2195L177.937 46.9161L179.45 44.4655L180.773 45.2195Z" fill="#1C6431"/>
<path d="M148.254 121.753V124.957L138.234 127.408V125.334L148.254 121.753Z" fill="#0A4226"/>
<path d="M248.457 52.9482L208.943 74.0609L209.132 85.5597L226.148 95.362L248.457 52.9482Z" fill="#114A51"/>
<path d="M228.227 91.4033L209.132 80.2815V77.6424L229.362 89.3298L228.227 91.4033Z" fill="#082D32"/>
<path d="M235.601 60.2999L218.396 50.3092L208.943 74.0609L226.148 83.8631L235.601 60.2999Z" fill="url(#paint19_linear)"/>
<path d="M263.582 44.0884L246.566 34.2862L218.396 50.3091L235.601 60.2999L263.582 44.0884Z" fill="url(#paint20_linear)"/>
<path d="M235.601 60.2999L226.148 83.8631V95.362L266.418 72.1758V51.4402L263.582 44.0885L235.601 60.2999Z" fill="url(#paint21_linear)"/>
<path d="M225.203 85.1827V92.5344C225.203 93.0999 224.446 93.4769 223.879 93.2884L210.834 85.7482C210.267 85.3712 209.889 84.8057 209.889 84.0516V76.6999C209.889 76.1344 210.645 75.7574 211.212 75.9459L224.257 83.4861C224.825 84.0516 225.203 84.6171 225.203 85.1827Z" fill="url(#paint22_linear)"/>
<path d="M212.346 84.8057C211.779 84.4287 211.401 83.8632 211.401 83.1091V76.1344L224.257 83.4861C224.825 83.8632 225.203 84.4287 225.203 85.1827V92.1574L212.346 84.8057Z" fill="#010E0F"/>
<path d="M131.428 126.654C131.428 126.088 131.05 125.523 130.482 125.146C129.915 124.957 129.537 125.146 129.537 125.711C129.537 126.277 129.915 126.842 130.482 127.219C131.05 127.408 131.428 127.219 131.428 126.654Z" fill="#423E39"/>
<path d="M131.239 127.219L131.995 126.842C132.184 126.842 132.184 126.465 132.184 126.277C132.184 125.711 131.806 125.146 131.239 124.769C131.05 124.58 130.861 124.58 130.672 124.769L129.915 125.146C130.104 125.146 130.293 125.146 130.483 125.146C131.05 125.334 131.428 126.088 131.428 126.654C131.428 126.842 131.428 127.031 131.239 127.219Z" fill="url(#paint23_linear)"/>
<path d="M122.73 121.564C122.73 120.999 122.352 120.433 121.785 120.056C121.218 119.868 120.84 120.056 120.84 120.622C120.84 121.187 121.218 121.753 121.785 122.13C122.352 122.318 122.73 122.13 122.73 121.564Z" fill="#423E39"/>
<path d="M122.353 122.13L123.109 121.753C123.298 121.753 123.298 121.376 123.298 121.187C123.298 120.622 122.92 120.056 122.353 119.679C122.163 119.491 121.974 119.491 121.785 119.679L121.029 120.056C121.218 120.056 121.407 120.056 121.596 120.056C122.163 120.245 122.542 120.999 122.542 121.564C122.731 121.753 122.542 121.941 122.353 122.13Z" fill="url(#paint24_linear)"/>
<path d="M266.418 67.0861L226.148 90.2723V87.6332L266.418 64.4471V67.0861Z" fill="url(#paint25_linear)"/>
<path d="M124.433 101.96L129.915 104.976L131.995 107.803V123.449L122.353 117.794V102.337L124.433 101.96Z" fill="#02180C"/>
</g>
<path d="M128.349 125.349L77.2898 102.649L70.6117 114.019L87.1714 129.245L90.2162 147.364L121.601 149.121L147.975 158.681L166.286 154.88L128.349 125.349Z" fill="url(#paint26_linear)"/>
<path d="M128.349 125.349L77.2898 102.649L70.6117 114.019L87.1714 129.245L90.2162 147.364L121.601 149.121L147.975 158.681L166.286 154.88L128.349 125.349Z" fill="black" fill-opacity="0.2"/>
<path d="M69.5786 105.775L77.0948 104.773V112.79L70.5808 114.293L69.5786 105.775Z" fill="#094A2A"/>
<path d="M146.745 150.371L167.289 146.863V154.88L147.246 158.388L146.745 150.371Z" fill="url(#paint27_linear)"/>
<path d="M127.347 117.332L76.2881 94.6314L69.6099 106.002L86.1697 121.227L89.2145 139.346L120.6 141.104L146.974 150.664L167.289 146.863L127.347 117.332Z" fill="url(#paint28_linear)"/>
<path d="M127.347 117.332L76.2881 94.6314L69.6099 106.002L86.1697 121.227L89.2145 139.346L120.6 141.104L146.974 150.664L167.289 146.863L127.347 117.332Z" fill="url(#paint29_linear)"/>
<mask id="mask0" style="mask-type:alpha" maskUnits="userSpaceOnUse" x="69" y="94" width="99" height="57">
<path d="M127.347 117.332L76.2881 94.6315L69.6099 106.002L86.1697 121.227L89.2145 139.346L120.6 141.104L146.974 150.664L167.289 146.863L127.347 117.332Z" fill="url(#paint30_linear)"/>
</mask>
<g mask="url(#mask0)">
<path opacity="0.5" d="M138.226 108.28L173.357 155.388L110.115 186.938L86.1142 140.349L138.226 108.28Z" fill="#06391F"/>
</g>
<path fill-rule="evenodd" clip-rule="evenodd" d="M132.213 107.779L124.196 117.299C119.041 116.504 119.532 116.72 115.266 112.039L122.192 102.267L124.196 101.766L130.209 104.773L132.213 107.779Z" fill="#1E5358"/>
<path fill-rule="evenodd" clip-rule="evenodd" d="M115.177 118.487C115.177 116.72 115.177 114.424 115.355 111.95C115.355 111.332 115.355 111.332 115.355 111.95C118.11 115.219 121.408 115.738 124.697 116.798C124.519 119.183 124.697 122.047 124.697 123.813C119.72 122.223 117.682 121.308 115.177 118.487Z" fill="#070E0A"/>
<path fill-rule="evenodd" clip-rule="evenodd" d="M124.196 123.813C124.196 122.047 123.016 119.773 123.194 117.299L132.154 107.779V120.807L124.196 123.813Z" fill="url(#paint31_linear)"/>
<path fill-rule="evenodd" clip-rule="evenodd" d="M124.196 123.813C124.196 122.047 123.016 119.773 123.194 117.299L132.154 107.779V120.807L124.196 123.813Z" fill="#011618"/>
<path d="M143.507 152.45L143.943 155.682C143.976 155.931 143.666 156.142 143.406 156.093L137.222 153.55C136.95 153.418 136.75 153.192 136.706 152.86L136.27 149.627C136.236 149.379 136.547 149.168 136.807 149.217L142.991 151.76C143.274 151.975 143.474 152.201 143.507 152.45Z" fill="url(#paint32_linear)"/>
<path d="M137.831 153.046C137.56 152.914 137.36 152.687 137.315 152.356L136.902 149.289L142.991 151.759C143.263 151.892 143.462 152.118 143.507 152.449L143.921 155.517L137.831 153.046Z" fill="#010E0F"/>
<path d="M131.481 147.439L131.917 150.672C131.951 150.92 131.64 151.131 131.38 151.082L125.196 148.539C124.924 148.407 124.725 148.181 124.68 147.849L124.244 144.616C124.21 144.368 124.521 144.157 124.781 144.206L130.965 146.749C131.248 146.964 131.448 147.19 131.481 147.439Z" fill="url(#paint33_linear)"/>
<path d="M125.805 148.035C125.534 147.903 125.334 147.677 125.289 147.345L124.876 144.278L130.965 146.749C131.237 146.881 131.437 147.107 131.481 147.439L131.895 150.506L125.805 148.035Z" fill="#010E0F"/>
<path d="M84.6369 122.46L84.0692 124.816C84.0256 124.997 83.7541 125.059 83.5869 124.955L79.9886 121.531C79.836 121.367 79.7585 121.156 79.8167 120.915L80.3844 118.559C80.4281 118.378 80.6995 118.315 80.8667 118.419L84.465 121.843C84.6031 122.068 84.6806 122.279 84.6369 122.46Z" fill="url(#paint34_linear)"/>
<path d="M80.5459 121.346C80.3933 121.182 80.3157 120.971 80.374 120.729L80.9126 118.494L84.4648 121.843C84.6175 122.008 84.695 122.218 84.6367 122.46L84.0981 124.695L80.5459 121.346Z" fill="#010E0F"/>
<path d="M78.313 116.347L77.8186 118.399C77.7806 118.557 77.5441 118.611 77.3985 118.521L74.2648 115.539C74.1318 115.395 74.0643 115.212 74.115 115.002L74.6095 112.95C74.6475 112.792 74.8839 112.738 75.0295 112.828L78.1633 115.81C78.2835 116.006 78.351 116.189 78.313 116.347Z" fill="url(#paint35_linear)"/>
<path d="M74.7502 115.377C74.6172 115.234 74.5497 115.051 74.6004 114.84L75.0695 112.894L78.1631 115.81C78.2961 115.953 78.3636 116.137 78.3129 116.347L77.8438 118.294L74.7502 115.377Z" fill="#010E0F"/>
<defs>
<filter id="filter0_f" x="0.772293" y="41.43" width="344.589" height="226.177" filterUnits="userSpaceOnUse" color-interpolation-filters="sRGB">
<feFlood flood-opacity="0" result="BackgroundImageFix"/>
<feBlend mode="normal" in="SourceGraphic" in2="BackgroundImageFix" result="shape"/>
<feGaussianBlur stdDeviation="16.1139" result="effect1_foregroundBlur"/>
</filter>
<filter id="filter1_f" x="47.1274" y="0.938934" width="264.634" height="196.975" filterUnits="userSpaceOnUse" color-interpolation-filters="sRGB">
<feFlood flood-opacity="0" result="BackgroundImageFix"/>
<feBlend mode="normal" in="SourceGraphic" in2="BackgroundImageFix" result="shape"/>
<feGaussianBlur stdDeviation="22.5" result="effect1_foregroundBlur"/>
</filter>
<filter id="filter2_f" x="177.73" y="60.2252" width="101.26" height="60.116" filterUnits="userSpaceOnUse" color-interpolation-filters="sRGB">
<feFlood flood-opacity="0" result="BackgroundImageFix"/>
<feBlend mode="normal" in="SourceGraphic" in2="BackgroundImageFix" result="shape"/>
<feGaussianBlur stdDeviation="2" result="effect1_foregroundBlur"/>
</filter>
<linearGradient id="paint0_linear" x1="39.2087" y1="0" x2="39.2087" y2="245.047" gradientUnits="userSpaceOnUse">
<stop offset="0.377547" stop-color="#000606"/>
<stop offset="1" stop-color="#000606" stop-opacity="0"/>
</linearGradient>
<linearGradient id="paint1_linear" x1="182.056" y1="83.2176" x2="146.724" y2="124.399" gradientUnits="userSpaceOnUse">
<stop offset="0.356822" stop-color="#135836"/>
<stop offset="0.986026" stop-color="#3DAB75"/>
</linearGradient>
<linearGradient id="paint2_linear" x1="131.559" y1="21.9293" x2="207.723" y2="-16.6536" gradientUnits="userSpaceOnUse">
<stop offset="0.348593" stop-color="#2C6A70"/>
<stop offset="1" stop-color="#3AC6D3"/>
</linearGradient>
<linearGradient id="paint3_linear" x1="190.509" y1="12.0425" x2="153.606" y2="72.7266" gradientUnits="userSpaceOnUse">
<stop stop-color="#135158"/>
<stop offset="0.947624" stop-color="#06292D"/>
</linearGradient>
<linearGradient id="paint4_linear" x1="161.584" y1="43.851" x2="161.584" y2="61.2915" gradientUnits="userSpaceOnUse">
<stop stop-color="#061719"/>
<stop offset="1" stop-color="#114A51"/>
</linearGradient>
<linearGradient id="paint5_linear" x1="231.246" y1="47.596" x2="165.216" y2="133.79" gradientUnits="userSpaceOnUse">
<stop stop-color="#3DAB75"/>
<stop offset="1" stop-color="#135836"/>
</linearGradient>
<linearGradient id="paint6_linear" x1="169.902" y1="95.5505" x2="169.902" y2="124.957" gradientUnits="userSpaceOnUse">
<stop offset="0.0191423" stop-color="#127C48"/>
<stop offset="0.982059" stop-color="#04391F"/>
</linearGradient>
<linearGradient id="paint7_linear" x1="190.075" y1="79.1239" x2="171.801" y2="93.3378" gradientUnits="userSpaceOnUse">
<stop stop-color="#3DAB75"/>
<stop offset="1" stop-color="#135836"/>
</linearGradient>
<linearGradient id="paint8_linear" x1="172.801" y1="84.2284" x2="231.104" y2="38.1501" gradientUnits="userSpaceOnUse">
<stop stop-color="#73E190"/>
<stop offset="1" stop-color="white"/>
</linearGradient>
<linearGradient id="paint9_linear" x1="227.227" y1="61.2865" x2="180.722" y2="104.623" gradientUnits="userSpaceOnUse">
<stop stop-color="#3DAB75"/>
<stop offset="1" stop-color="#135836"/>
</linearGradient>
<linearGradient id="paint10_linear" x1="204.784" y1="76.3229" x2="204.784" y2="114.024" gradientUnits="userSpaceOnUse">
<stop offset="0.0191423" stop-color="#127C48"/>
<stop offset="0.982059" stop-color="#04391F"/>
</linearGradient>
<linearGradient id="paint11_linear" x1="179.733" y1="97.575" x2="179.733" y2="111.999" gradientUnits="userSpaceOnUse">
<stop stop-color="#063A20"/>
<stop offset="0.939773" stop-color="#14623B"/>
</linearGradient>
<linearGradient id="paint12_linear" x1="131.522" y1="94.4195" x2="131.522" y2="127.408" gradientUnits="userSpaceOnUse">
<stop offset="0.0191423" stop-color="#127C48"/>
<stop offset="0.982059" stop-color="#04391F"/>
</linearGradient>
<linearGradient id="paint13_linear" x1="143.244" y1="99.3206" x2="143.244" y2="127.408" gradientUnits="userSpaceOnUse">
<stop offset="0.0191423" stop-color="#127C48"/>
<stop offset="0.982059" stop-color="#04391F"/>
</linearGradient>
<linearGradient id="paint14_linear" x1="144.332" y1="85.0861" x2="129.755" y2="104.043" gradientUnits="userSpaceOnUse">
<stop stop-color="#3DAB75"/>
<stop offset="1" stop-color="#135836"/>
</linearGradient>
<linearGradient id="paint15_linear" x1="134.44" y1="97.2525" x2="129.573" y2="106.285" gradientUnits="userSpaceOnUse">
<stop stop-color="#3DAB75"/>
<stop offset="1" stop-color="#135836"/>
</linearGradient>
<linearGradient id="paint16_linear" x1="135.303" y1="104.976" x2="135.303" y2="128.727" gradientUnits="userSpaceOnUse">
<stop offset="0.0191423" stop-color="#127C48"/>
<stop offset="0.982059" stop-color="#04391F"/>
</linearGradient>
<linearGradient id="paint17_linear" x1="208.879" y1="18.5873" x2="180.517" y2="62.0766" gradientUnits="userSpaceOnUse">
<stop offset="0.147183" stop-color="white"/>
<stop offset="1" stop-color="#73DF90"/>
</linearGradient>
<linearGradient id="paint18_linear" x1="116.179" y1="66.1896" x2="187.296" y2="90.2723" gradientUnits="userSpaceOnUse">
<stop stop-color="#6FCF89"/>
<stop offset="1" stop-color="#5ABD75" stop-opacity="0"/>
</linearGradient>
<linearGradient id="paint19_linear" x1="231.427" y1="46.6476" x2="222.272" y2="83.8631" gradientUnits="userSpaceOnUse">
<stop stop-color="#295F64"/>
<stop offset="0.980182" stop-color="#14494E"/>
</linearGradient>
<linearGradient id="paint20_linear" x1="187.332" y1="54.1637" x2="263.496" y2="15.5808" gradientUnits="userSpaceOnUse">
<stop offset="0.348593" stop-color="#2C6A70"/>
<stop offset="1" stop-color="#3AC6D3"/>
</linearGradient>
<linearGradient id="paint21_linear" x1="246.283" y1="44.0885" x2="209.38" y2="104.773" gradientUnits="userSpaceOnUse">
<stop stop-color="#135158"/>
<stop offset="0.947624" stop-color="#06292D"/>
</linearGradient>
<linearGradient id="paint22_linear" x1="217.546" y1="75.8969" x2="225.414" y2="90.7424" gradientUnits="userSpaceOnUse">
<stop stop-color="#06181A"/>
<stop offset="1" stop-color="#06181A" stop-opacity="0"/>
</linearGradient>
<linearGradient id="paint23_linear" x1="130.713" y1="124.64" x2="131.93" y2="126.755" gradientUnits="userSpaceOnUse">
<stop stop-color="#514B45"/>
<stop offset="0.445" stop-color="#49443F"/>
<stop offset="1" stop-color="#383532"/>
</linearGradient>
<linearGradient id="paint24_linear" x1="121.89" y1="119.562" x2="123.107" y2="121.676" gradientUnits="userSpaceOnUse">
<stop stop-color="#514B45"/>
<stop offset="0.445" stop-color="#49443F"/>
<stop offset="1" stop-color="#383532"/>
</linearGradient>
<linearGradient id="paint25_linear" x1="246.283" y1="64.4471" x2="278.027" y2="30.6132" gradientUnits="userSpaceOnUse">
<stop stop-color="#114A51"/>
<stop offset="1" stop-color="#114A51" stop-opacity="0"/>
</linearGradient>
<linearGradient id="paint26_linear" x1="128.027" y1="125.163" x2="108.963" y2="158.186" gradientUnits="userSpaceOnUse">
<stop offset="0.0191423" stop-color="#127C48"/>
<stop offset="0.982059" stop-color="#04391F"/>
</linearGradient>
<linearGradient id="paint27_linear" x1="157.017" y1="146.863" x2="157.017" y2="158.889" gradientUnits="userSpaceOnUse">
<stop stop-color="#064124"/>
<stop offset="1" stop-color="#063D22"/>
</linearGradient>
<linearGradient id="paint28_linear" x1="127.347" y1="117.332" x2="108.283" y2="150.355" gradientUnits="userSpaceOnUse">
<stop stop-color="#85DD9E"/>
<stop offset="1" stop-color="#85DD9E"/>
</linearGradient>
<linearGradient id="paint29_linear" x1="131.211" y1="112.79" x2="117.583" y2="157.739" gradientUnits="userSpaceOnUse">
<stop stop-color="#1B6741"/>
<stop offset="1" stop-color="#1B6741" stop-opacity="0"/>
</linearGradient>
<linearGradient id="paint30_linear" x1="131.211" y1="112.79" x2="117.583" y2="157.74" gradientUnits="userSpaceOnUse">
<stop stop-color="#1B6741"/>
<stop offset="1" stop-color="#1B6741" stop-opacity="0"/>
</linearGradient>
<linearGradient id="paint31_linear" x1="129.639" y1="107.779" x2="129.639" y2="124.315" gradientUnits="userSpaceOnUse">
<stop offset="0.0191423" stop-color="#127C48"/>
<stop offset="0.982059" stop-color="#04391F"/>
</linearGradient>
<linearGradient id="paint32_linear" x1="139.589" y1="148.82" x2="143.93" y2="154.882" gradientUnits="userSpaceOnUse">
<stop stop-color="#06181A"/>
<stop offset="1" stop-color="#06181A" stop-opacity="0"/>
</linearGradient>
<linearGradient id="paint33_linear" x1="127.564" y1="143.809" x2="131.904" y2="149.871" gradientUnits="userSpaceOnUse">
<stop stop-color="#06181A"/>
<stop offset="1" stop-color="#06181A" stop-opacity="0"/>
</linearGradient>
<linearGradient id="paint34_linear" x1="82.9002" y1="118.893" x2="84.2755" y2="124.258" gradientUnits="userSpaceOnUse">
<stop stop-color="#06181A"/>
<stop offset="1" stop-color="#06181A" stop-opacity="0"/>
</linearGradient>
<linearGradient id="paint35_linear" x1="76.8005" y1="113.241" x2="77.9982" y2="117.913" gradientUnits="userSpaceOnUse">
<stop stop-color="#06181A"/>
<stop offset="1" stop-color="#06181A" stop-opacity="0"/>
</linearGradient>
<clipPath id="clip0">
<rect width="167.32" height="134.404" fill="white" transform="matrix(-1 0 0 1 271.333 2.05175)"/>
</clipPath>
</defs>
</svg>
