<svg width="346" height="290" viewBox="0 0 346 290" fill="none" xmlns="http://www.w3.org/2000/svg">
<g filter="url(#filter0_f)">
<rect width="78.4174" height="245.047" transform="matrix(0.866044 0.499967 -0.866044 0.499967 245.221 95.6576)" fill="url(#paint0_linear)"/>
</g>
<path d="M186.835 156.233L170.025 180.888L125.197 154.271L137.805 137.181L186.835 156.233Z" fill="#02180C"/>
<path d="M173.788 156.233L160.536 180.888L125.197 154.271L135.136 137.181L173.788 156.233Z" fill="#08331B"/>
<path d="M302.607 62.5841C303.091 62.5841 303.576 62.4226 303.737 61.9383C304.06 61.2924 303.898 60.4851 303.253 60.1622L236.906 21.8965C236.26 21.5736 235.453 21.735 235.13 22.3809C234.808 23.0267 234.969 23.834 235.615 24.1569L301.961 62.4226C302.123 62.5841 302.446 62.5841 302.607 62.5841Z" fill="#3D5456"/>
<path d="M297.926 71.6258C298.41 71.6258 298.894 71.4644 299.056 70.98C299.379 70.3342 299.217 69.5269 298.572 69.204L239.651 35.1362C239.005 34.8133 238.198 34.9747 237.875 35.6205C237.552 36.2664 237.713 37.0737 238.359 37.3966L297.28 71.4644C297.603 71.6258 297.764 71.6258 297.926 71.6258Z" fill="#3D5456"/>
<path d="M223.508 71.3029C223.831 71.3029 224.153 71.3029 224.476 70.98L242.718 60.4852C243.525 60.0008 243.848 59.032 243.525 58.2247L223.508 1.22981C223.185 0.261054 222.055 -0.223321 221.086 0.099597C220.118 0.422514 219.633 1.55273 219.956 2.52148L239.65 58.2247L222.701 67.9123C221.732 68.3966 221.409 69.5269 222.055 70.4956C222.216 70.98 222.862 71.3029 223.508 71.3029Z" fill="#3D5456"/>
<path d="M274.68 93.0997C275.003 93.0997 275.326 93.0997 275.649 92.7768L293.89 82.282C294.213 82.1206 294.536 81.7976 294.697 81.4747L308.741 53.2194C309.226 52.2507 308.741 51.1205 307.934 50.6361C306.966 50.1517 305.836 50.6361 305.351 51.4434L291.63 79.2143L273.873 89.3862C272.904 89.8706 272.582 91.0008 273.227 91.9695C273.389 92.7768 274.034 93.0997 274.68 93.0997Z" fill="#3D5456"/>
<path fill-rule="evenodd" clip-rule="evenodd" d="M186.218 158.006L192.352 134.595V103.433L280.653 52.4122V83.5737L261.927 114.251L186.218 158.006Z" fill="url(#paint1_linear)"/>
<path fill-rule="evenodd" clip-rule="evenodd" d="M186.218 158.006L192.352 134.595V103.433L280.653 52.4122V83.5737L261.927 114.251L186.218 158.006Z" fill="black" fill-opacity="0.2"/>
<path fill-rule="evenodd" clip-rule="evenodd" d="M186.218 158.006L192.352 134.595L280.653 83.5738L261.927 114.251L186.218 158.006Z" fill="url(#paint2_linear)"/>
<path fill-rule="evenodd" clip-rule="evenodd" d="M186.218 158.006L192.352 134.595V103.433L137.305 71.6258V129.751L186.218 158.006Z" fill="url(#paint3_linear)"/>
<path fill-rule="evenodd" clip-rule="evenodd" d="M280.653 52.4123L192.352 103.433L186.379 93.2613L274.68 42.2404L280.653 52.4123Z" fill="url(#paint4_linear)"/>
<path fill-rule="evenodd" clip-rule="evenodd" d="M177.501 142.506L158.937 153.324L132.14 137.985L151.188 127.329L177.501 142.506Z" fill="#78764C"/>
<path fill-rule="evenodd" clip-rule="evenodd" d="M177.501 141.376L158.937 152.355L132.14 137.017L151.188 126.36L177.501 141.376Z" fill="#9E9C73"/>
<path fill-rule="evenodd" clip-rule="evenodd" d="M123.584 123.777L134.884 86.1572L142.794 81.7978L181.214 103.918L178.631 111.345L167.008 149.449C156.838 146.22 131.979 133.949 123.584 123.777Z" fill="url(#paint5_linear)"/>
<path fill-rule="evenodd" clip-rule="evenodd" d="M123.584 123.777L134.884 86.1572L142.794 81.7978L181.214 103.918L178.631 111.345L167.008 149.449C156.838 146.22 131.979 133.949 123.584 123.777Z" fill="black" fill-opacity="0.2"/>
<path fill-rule="evenodd" clip-rule="evenodd" d="M281.944 61.7768L216.728 101.819C207.526 107.147 198.002 123.615 194.451 136.048L192.514 134.595C196.065 119.74 202.683 105.209 213.983 98.5894C228.028 90.5164 266.609 67.7507 280.653 59.6778L281.944 61.7768Z" fill="url(#paint6_linear)"/>
<path fill-rule="evenodd" clip-rule="evenodd" d="M281.944 61.7769L214.145 101.334C205.589 106.501 197.841 122.808 194.451 136.048L214.306 124.584C217.696 116.673 231.418 102.464 243.04 95.0374L281.944 71.1415V61.7769Z" fill="url(#paint7_linear)"/>
<path fill-rule="evenodd" clip-rule="evenodd" d="M159.26 115.866L138.758 104.241C138.113 103.918 137.467 104.241 137.305 105.048L136.821 106.501C136.498 107.308 136.821 108.116 137.467 108.439L157.968 120.064C158.614 120.386 159.26 120.064 159.421 119.256L159.905 117.803C160.067 116.996 159.744 116.189 159.26 115.866Z" fill="#01140A"/>
<path fill-rule="evenodd" clip-rule="evenodd" d="M123.1 144.282C123.1 138.631 123.1 131.527 123.584 123.777C123.746 122.001 123.746 121.84 123.584 123.777C131.979 133.949 156.838 146.22 167.008 149.449C166.524 157.038 166.524 163.98 166.524 169.47C151.188 164.465 131.656 153.647 123.1 144.282Z" fill="#070E0A"/>
<path fill-rule="evenodd" clip-rule="evenodd" d="M162.165 150.741C163.618 151.548 164.91 153.647 164.91 155.262C164.91 157.038 163.78 157.683 162.165 156.876C160.713 156.069 159.421 153.97 159.421 152.355C159.583 150.579 160.713 149.772 162.165 150.741Z" fill="#7F7F7F"/>
<path fill-rule="evenodd" clip-rule="evenodd" d="M161.843 150.902C163.296 151.709 164.587 153.808 164.587 155.422C164.587 157.199 163.457 157.844 161.843 157.037C160.39 156.23 159.099 154.131 159.099 152.516C159.26 150.74 160.39 150.094 161.843 150.902Z" fill="url(#paint8_linear)"/>
<path fill-rule="evenodd" clip-rule="evenodd" d="M161.842 151.548C162.972 152.194 163.941 153.808 163.941 155.262C163.941 156.553 162.972 157.199 161.842 156.553C160.712 155.907 159.744 154.293 159.744 152.84C159.744 151.387 160.712 150.741 161.842 151.548Z" fill="url(#paint9_linear)"/>
<path fill-rule="evenodd" clip-rule="evenodd" d="M162.65 152.678C162.973 152.84 163.295 153.486 163.295 153.808C163.295 154.293 162.973 154.454 162.65 154.293C162.327 154.131 162.004 153.486 162.004 153.163C162.004 152.678 162.327 152.517 162.65 152.678Z" fill="white"/>
<path fill-rule="evenodd" clip-rule="evenodd" d="M162.165 159.137C163.618 159.944 164.91 162.043 164.91 163.657C164.91 165.433 163.78 166.079 162.165 165.272C160.713 164.465 159.421 162.366 159.421 160.751C159.583 159.137 160.713 158.329 162.165 159.137Z" fill="#7F7F7F"/>
<path fill-rule="evenodd" clip-rule="evenodd" d="M161.843 159.459C163.296 160.266 164.587 162.365 164.587 163.98C164.587 165.756 163.457 166.402 161.843 165.595C160.39 164.787 159.099 162.688 159.099 161.074C159.26 159.298 160.39 158.49 161.843 159.459Z" fill="url(#paint10_linear)"/>
<path fill-rule="evenodd" clip-rule="evenodd" d="M161.842 159.944C162.972 160.59 163.941 162.204 163.941 163.657C163.941 164.949 162.972 165.595 161.842 164.949C160.712 164.303 159.744 162.689 159.744 161.236C159.744 159.944 160.712 159.298 161.842 159.944Z" fill="url(#paint11_linear)"/>
<path fill-rule="evenodd" clip-rule="evenodd" d="M162.65 161.236C162.973 161.397 163.295 162.043 163.295 162.366C163.295 162.85 162.973 163.012 162.65 162.85C162.327 162.689 162.004 162.043 162.004 161.72C162.004 161.397 162.327 160.913 162.65 161.236Z" fill="white"/>
<path fill-rule="evenodd" clip-rule="evenodd" d="M127.62 130.72C129.073 131.527 130.364 133.626 130.364 135.241C130.364 137.017 129.234 137.663 127.62 136.855C126.167 136.048 124.876 133.949 124.876 132.334C125.037 130.558 126.167 129.751 127.62 130.72Z" fill="#7F7F7F"/>
<path fill-rule="evenodd" clip-rule="evenodd" d="M127.298 130.881C128.751 131.688 130.042 133.787 130.042 135.402C130.042 137.178 128.912 137.823 127.298 137.016C125.845 136.209 124.554 134.11 124.554 132.495C124.715 130.719 125.845 130.073 127.298 130.881Z" fill="url(#paint12_linear)"/>
<path fill-rule="evenodd" clip-rule="evenodd" d="M127.297 131.527C128.427 132.173 129.396 133.788 129.396 135.241C129.396 136.532 128.427 137.178 127.297 136.532C126.167 135.886 125.198 134.272 125.198 132.819C125.198 131.366 126.167 130.72 127.297 131.527Z" fill="url(#paint13_linear)"/>
<path fill-rule="evenodd" clip-rule="evenodd" d="M128.104 132.657C128.427 132.819 128.75 133.465 128.75 133.788C128.75 134.272 128.427 134.433 128.104 134.272C127.781 134.11 127.459 133.465 127.459 133.142C127.459 132.657 127.781 132.496 128.104 132.657Z" fill="white"/>
<path fill-rule="evenodd" clip-rule="evenodd" d="M127.62 139.116C129.073 139.923 130.364 142.022 130.364 143.636C130.364 145.413 129.234 146.058 127.62 145.251C126.167 144.444 124.876 142.345 124.876 140.73C125.037 139.116 126.167 138.308 127.62 139.116Z" fill="#7F7F7F"/>
<path fill-rule="evenodd" clip-rule="evenodd" d="M127.298 139.438C128.751 140.245 130.042 142.344 130.042 143.959C130.042 145.735 128.912 146.381 127.298 145.574C125.845 144.766 124.554 142.667 124.554 141.053C124.715 139.277 125.845 138.469 127.298 139.438Z" fill="url(#paint14_linear)"/>
<path fill-rule="evenodd" clip-rule="evenodd" d="M127.297 139.923C128.427 140.569 129.396 142.183 129.396 143.636C129.396 144.928 128.427 145.574 127.297 144.928C126.167 144.282 125.198 142.668 125.198 141.215C125.198 139.923 126.167 139.277 127.297 139.923Z" fill="url(#paint15_linear)"/>
<path fill-rule="evenodd" clip-rule="evenodd" d="M128.104 141.215C128.427 141.376 128.75 142.022 128.75 142.345C128.75 142.829 128.427 142.991 128.104 142.829C127.781 142.668 127.459 142.022 127.459 141.699C127.459 141.053 127.781 140.892 128.104 141.215Z" fill="white"/>
<path fill-rule="evenodd" clip-rule="evenodd" d="M174.918 109.084L163.779 141.214L168.784 116.673L174.918 109.084Z" fill="#167948"/>
<path fill-rule="evenodd" clip-rule="evenodd" d="M132.624 143.798L132.786 137.017C138.92 142.022 149.735 147.834 155.062 150.095L154.901 155.907C154.901 156.876 154.417 157.845 153.448 158.329C152.641 158.814 151.511 158.975 150.704 158.491C145.377 156.069 139.727 153.001 135.691 149.933C133.593 148.48 132.624 146.22 132.624 143.798Z" fill="#051F22"/>
<path fill-rule="evenodd" clip-rule="evenodd" d="M133.27 143.152L133.431 137.501C139.565 142.345 150.058 147.834 155.062 150.095L154.901 155.907C154.901 156.553 154.74 157.038 154.417 157.522C154.255 157.683 154.255 157.683 154.094 157.683C153.287 158.168 152.157 158.329 151.35 157.845C146.023 155.423 140.373 152.355 136.337 149.288C134.238 147.834 133.27 145.574 133.27 143.152Z" fill="#1A4145"/>
<path fill-rule="evenodd" clip-rule="evenodd" d="M222.539 145.413L204.459 175.444L192.514 168.663C180.407 161.881 198.486 131.366 210.432 138.308L222.539 145.413Z" fill="#051F22"/>
<path fill-rule="evenodd" clip-rule="evenodd" d="M221.248 147.673L203.975 137.824C205.751 137.34 207.365 137.178 208.979 137.824L222.539 145.574L221.248 147.673Z" fill="#1A4145"/>
<path fill-rule="evenodd" clip-rule="evenodd" d="M218.826 151.709L199.132 140.569C200.101 139.761 201.069 139.116 202.038 138.631L220.44 148.965L218.826 151.709Z" fill="#1A4145"/>
<path fill-rule="evenodd" clip-rule="evenodd" d="M218.019 153.163L215.113 154.777L195.742 143.798C196.388 142.991 197.195 142.183 197.841 141.537L218.019 152.84V153.163Z" fill="#1A4145"/>
<path fill-rule="evenodd" clip-rule="evenodd" d="M215.275 156.715L212.046 158.491L192.998 147.673C193.482 146.866 194.128 145.897 194.774 145.09L215.275 156.715Z" fill="#1A4145"/>
<path fill-rule="evenodd" clip-rule="evenodd" d="M212.046 160.105L208.818 161.881L190.738 151.709C191.222 150.741 191.545 149.933 192.191 148.965L212.046 160.105Z" fill="#1A4145"/>
<path fill-rule="evenodd" clip-rule="evenodd" d="M209.463 163.98L206.235 165.756L189.285 156.069C189.608 155.1 189.931 154.131 190.254 153.162L209.463 163.98Z" fill="#1A4145"/>
<path fill-rule="evenodd" clip-rule="evenodd" d="M207.365 170.923L206.558 171.407L188.64 161.235C188.64 160.428 188.64 159.621 188.801 158.652C188.801 158.491 188.801 158.329 188.801 158.168V158.006V157.845L208.495 168.824L207.365 170.923Z" fill="#1A4145"/>
<path fill-rule="evenodd" clip-rule="evenodd" d="M204.621 175.444L191.222 167.855C191.061 167.694 191.061 167.694 190.899 167.532C189.769 166.241 189.124 164.788 188.801 163.012L206.396 172.861L204.621 175.444Z" fill="#1A4145"/>
<path fill-rule="evenodd" clip-rule="evenodd" d="M213.822 146.22C206.881 150.095 201.392 159.782 201.392 167.694C201.392 175.605 207.042 178.834 213.822 174.959C220.763 171.084 226.252 161.397 226.252 153.485C226.252 145.574 220.602 142.345 213.822 146.22Z" fill="#051F22"/>
<path fill-rule="evenodd" clip-rule="evenodd" d="M213.822 150.579C208.979 153.324 205.105 160.105 205.105 165.595C205.105 171.085 208.979 173.345 213.822 170.6C218.665 167.855 222.539 161.074 222.539 155.584C222.539 150.095 218.665 147.834 213.822 150.579Z" fill="#7C7EA3"/>
<path fill-rule="evenodd" clip-rule="evenodd" d="M214.629 153.647C210.916 155.746 208.011 160.913 208.011 165.11C208.011 169.308 210.916 171.084 214.629 168.986C218.342 166.887 221.248 161.72 221.248 157.522C221.248 153.324 218.342 151.548 214.629 153.647Z" fill="#9395BA"/>
<path fill-rule="evenodd" clip-rule="evenodd" d="M214.952 158.006C213.338 158.975 211.885 161.236 211.885 163.173C211.885 165.111 213.176 165.918 214.952 164.949C216.566 163.98 218.019 161.72 218.019 159.782C218.019 157.845 216.566 157.038 214.952 158.006Z" fill="#363634"/>
<path fill-rule="evenodd" clip-rule="evenodd" d="M212.531 164.949C213.015 165.11 213.661 164.949 214.306 164.626C215.921 163.657 217.374 161.397 217.374 159.459C217.374 158.652 217.212 158.006 216.728 157.683C216.244 157.522 215.598 157.683 214.952 158.006C213.338 158.975 211.885 161.235 211.885 163.173C211.885 163.98 212.208 164.626 212.531 164.949Z" fill="#167948"/>
<path fill-rule="evenodd" clip-rule="evenodd" d="M275.003 114.897L256.923 144.928L244.977 138.147C232.87 131.366 250.95 100.85 262.896 107.793L275.003 114.897Z" fill="#051F22"/>
<path fill-rule="evenodd" clip-rule="evenodd" d="M273.712 117.157L256.439 107.308C258.215 106.824 259.829 106.662 261.443 107.308L275.003 115.058L273.712 117.157Z" fill="#1A4145"/>
<path fill-rule="evenodd" clip-rule="evenodd" d="M271.29 121.194L251.596 110.053C252.564 109.246 253.533 108.6 254.502 108.116L272.904 118.449L271.29 121.194Z" fill="#1A4145"/>
<path fill-rule="evenodd" clip-rule="evenodd" d="M270.322 122.647L267.416 124.261L248.045 113.282C248.691 112.475 249.498 111.668 250.143 111.022L270.322 122.324V122.647Z" fill="#1A4145"/>
<path fill-rule="evenodd" clip-rule="evenodd" d="M267.577 126.199L264.349 127.975L245.3 117.157C245.784 116.35 246.43 115.381 247.076 114.574L267.577 126.199Z" fill="#1A4145"/>
<path fill-rule="evenodd" clip-rule="evenodd" d="M264.51 129.59L261.282 131.366L243.202 121.194C243.686 120.225 244.009 119.418 244.655 118.449L264.51 129.59Z" fill="#1A4145"/>
<path fill-rule="evenodd" clip-rule="evenodd" d="M261.766 133.465L258.538 135.241L241.588 125.553C241.911 124.584 242.233 123.616 242.556 122.647L261.766 133.465Z" fill="#1A4145"/>
<path fill-rule="evenodd" clip-rule="evenodd" d="M259.667 140.407L258.86 140.892L240.942 130.72C240.942 129.912 240.942 129.105 241.103 128.136C241.103 127.975 241.103 127.813 241.103 127.652V127.491V127.329L260.797 138.308L259.667 140.407Z" fill="#1A4145"/>
<path fill-rule="evenodd" clip-rule="evenodd" d="M256.923 144.928L243.525 137.339C243.363 137.178 243.363 137.178 243.202 137.017C242.072 135.725 241.426 134.272 241.103 132.496L258.699 142.345L256.923 144.928Z" fill="#1A4145"/>
<path fill-rule="evenodd" clip-rule="evenodd" d="M266.124 115.866C259.183 119.741 253.694 129.428 253.694 137.34C253.694 145.251 259.344 148.48 266.124 144.605C273.066 140.73 278.554 131.043 278.554 123.131C278.716 115.22 273.066 111.829 266.124 115.866Z" fill="#051F22"/>
<path fill-rule="evenodd" clip-rule="evenodd" d="M266.124 120.063C261.281 122.808 257.407 129.59 257.407 135.079C257.407 140.569 261.281 142.829 266.124 140.084C270.967 137.34 274.841 130.558 274.841 125.069C274.841 119.741 270.967 117.319 266.124 120.063Z" fill="#7C7EA3"/>
<path fill-rule="evenodd" clip-rule="evenodd" d="M266.931 123.131C263.218 125.23 260.313 130.397 260.313 134.595C260.313 138.793 263.218 140.569 266.931 138.47C270.644 136.371 273.55 131.204 273.55 127.006C273.55 122.808 270.644 121.032 266.931 123.131Z" fill="#9395BA"/>
<path fill-rule="evenodd" clip-rule="evenodd" d="M267.254 127.491C265.64 128.459 264.187 130.72 264.187 132.657C264.187 134.595 265.478 135.402 267.254 134.433C268.868 133.465 270.321 131.204 270.321 129.267C270.321 127.329 269.03 126.522 267.254 127.491Z" fill="#363634"/>
<path fill-rule="evenodd" clip-rule="evenodd" d="M264.994 134.595C265.478 134.756 266.124 134.595 266.77 134.272C268.384 133.303 269.837 131.043 269.837 129.105C269.837 128.298 269.675 127.652 269.191 127.329C268.707 127.168 268.061 127.329 267.415 127.652C265.801 128.621 264.348 130.881 264.348 132.819C264.348 133.626 264.51 134.11 264.994 134.595Z" fill="#167948"/>
<path fill-rule="evenodd" clip-rule="evenodd" d="M274.68 42.2404L186.379 93.2613L142.955 68.0738L231.256 17.2143L274.68 42.2404Z" fill="url(#paint16_linear)"/>
<path fill-rule="evenodd" clip-rule="evenodd" d="M137.305 71.6259L192.352 103.433L186.379 93.2614L142.955 68.0738L137.305 71.6259Z" fill="#167948"/>
<path fill-rule="evenodd" clip-rule="evenodd" d="M166.524 169.308C166.524 163.819 166.524 156.876 167.008 149.287L178.631 111.183L186.379 99.8811L186.218 157.845L166.524 169.308Z" fill="url(#paint17_linear)"/>
<path fill-rule="evenodd" clip-rule="evenodd" d="M214.468 37.3966L251.435 38.2039V41.4331C251.435 55.9644 213.822 55.48 214.306 40.9487L214.468 37.3966Z" fill="#0B5C34"/>
<path fill-rule="evenodd" clip-rule="evenodd" d="M219.794 44.9852C226.897 49.1831 238.681 49.3446 245.946 45.3081C253.21 41.2716 253.21 34.3289 246.107 30.131C239.004 25.933 227.22 25.7716 219.956 29.8081C212.692 33.8445 212.53 40.6258 219.794 44.9852Z" fill="#2C925F"/>
<path fill-rule="evenodd" clip-rule="evenodd" d="M222.216 43.5319C228.028 46.9226 237.552 47.084 243.363 43.6934C249.175 40.3028 249.336 34.8132 243.525 31.4225C237.713 28.0319 228.189 27.8704 222.378 31.2611C216.405 34.4903 216.405 39.9799 222.216 43.5319Z" fill="#90F2AA"/>
<path fill-rule="evenodd" clip-rule="evenodd" d="M229.48 37.881C231.579 39.0112 234.808 39.1726 236.906 37.881C239.005 36.7507 239.005 34.8132 236.906 33.5216C234.808 32.3914 231.579 32.2299 229.48 33.5216C227.382 34.6518 227.382 36.5893 229.48 37.881Z" fill="#62D581"/>
<path fill-rule="evenodd" clip-rule="evenodd" d="M181.86 90.5164V87.6101L230.934 59.1934V62.2611L181.86 90.5164Z" fill="#051F22"/>
<path fill-rule="evenodd" clip-rule="evenodd" d="M181.86 90.5164V87.6102L146.507 67.2664V70.1726L181.86 90.5164Z" fill="#181914"/>
<path fill-rule="evenodd" clip-rule="evenodd" d="M230.934 59.1934L181.86 87.6102L146.507 67.2664L195.581 38.8496L230.934 59.1934Z" fill="#1A4145"/>
<path fill-rule="evenodd" clip-rule="evenodd" d="M226.575 59.1935L220.764 62.5841L189.608 44.5007L195.42 41.1101L226.575 59.1935Z" fill="#2D6166"/>
<path fill-rule="evenodd" clip-rule="evenodd" d="M218.827 63.7143L212.854 67.105L181.698 49.183L187.51 45.6309L218.827 63.7143Z" fill="#2D6166"/>
<path fill-rule="evenodd" clip-rule="evenodd" d="M210.917 68.2351L204.944 71.6257L173.789 53.7038L179.6 50.3132L210.917 68.2351Z" fill="#2D6166"/>
<path fill-rule="evenodd" clip-rule="evenodd" d="M203.007 72.9174L197.034 76.3081L165.879 58.2247L171.851 54.8341L203.007 72.9174Z" fill="#2D6166"/>
<path fill-rule="evenodd" clip-rule="evenodd" d="M195.097 77.4384L189.124 80.829L157.968 62.7457L163.941 59.355L195.097 77.4384Z" fill="#2D6166"/>
<path fill-rule="evenodd" clip-rule="evenodd" d="M187.187 81.9591L181.376 85.3497L150.059 67.4278L156.032 63.8757L187.187 81.9591Z" fill="#2D6166"/>
<path fill-rule="evenodd" clip-rule="evenodd" d="M178.631 111.345L186.379 100.043L142.794 74.855L134.884 86.1571C136.389 87.0174 137.893 87.8777 139.395 88.738L133.27 96.1676C138.839 99.3968 144.973 102.909 151.108 106.42C157.242 109.932 163.376 113.444 168.945 116.673L174.957 109.222C176.182 109.929 177.406 110.637 178.631 111.345Z" fill="#3AD98A"/>
<path fill-rule="evenodd" clip-rule="evenodd" d="M178.631 111.345L186.379 100.043L142.794 74.855L134.884 86.1571C136.389 87.0174 137.893 87.8777 139.395 88.738L133.27 96.1676C138.839 99.3968 144.973 102.909 151.108 106.42C157.242 109.932 163.376 113.444 168.945 116.673L174.957 109.222C176.182 109.929 177.406 110.637 178.631 111.345Z" fill="black" fill-opacity="0.2"/>
<path fill-rule="evenodd" clip-rule="evenodd" d="M179.276 100.043V93.2613L170.075 87.9331V94.5529L179.276 100.043Z" fill="#1C8648"/>
<path fill-rule="evenodd" clip-rule="evenodd" d="M181.698 87.6102L179.276 93.2613V100.043L181.698 97.4592V87.6102Z" fill="#2C925F"/>
<path fill-rule="evenodd" clip-rule="evenodd" d="M181.698 87.6102L179.276 93.2613L170.075 87.9331L172.496 82.2821L181.698 87.6102Z" fill="#80E89B"/>
<path fill-rule="evenodd" clip-rule="evenodd" d="M153.448 84.8654V78.0841L144.085 72.756V79.3758L153.448 84.8654Z" fill="#1C8648"/>
<path fill-rule="evenodd" clip-rule="evenodd" d="M155.87 72.4331L153.448 78.0842V84.8654L155.87 82.2821V72.4331Z" fill="#2C925F"/>
<path fill-rule="evenodd" clip-rule="evenodd" d="M155.87 72.4331L153.448 78.0841L144.085 72.756L146.507 67.1049L155.87 72.4331Z" fill="#80E89B"/>
<path d="M110.386 153.71L117.203 150.153L115.508 159.378L110.628 162.833L110.386 153.71Z" fill="#0F3823"/>
<rect width="8.58348" height="10.4788" transform="matrix(1.19249e-08 1 -0.865988 -0.500065 158.654 193.578)" fill="#0D4930"/>
<path d="M110.605 154.312L110.605 162.884L102.41 158.122L102.41 149.542L110.605 154.312Z" fill="#0D4930"/>
<rect width="8.58348" height="67.0756" transform="matrix(1.19249e-08 1 -0.865988 -0.500065 173.411 184.413)" fill="#064425"/>
<path d="M158.654 193.18L176.645 182.873L176.645 191.575L158.654 201.962L158.654 193.18Z" fill="#17603C"/>
<path d="M145.112 200.839L155.731 194.568L156.675 195.376L156.675 200.712L145.112 207.388L145.112 200.839Z" fill="#051F22"/>
<path d="M144.327 201.295L139.03 198.237L151.199 191.212L155.174 193.759L156.018 194.639L144.327 201.295Z" fill="#275A60"/>
<path d="M145.769 199.215L155.066 193.617L156.536 195.248L146.929 201.138L145.769 199.215Z" fill="#1A4145"/>
<path d="M142.668 181.714L142.588 180.229L141.895 179.904L141.96 181.333L142.668 181.714Z" fill="#275A60"/>
<path d="M142.592 180.24L147.796 175.017L147.917 178.181L142.659 181.697L142.592 180.24Z" fill="#051F22"/>
<path d="M142.601 180.23L141.895 179.904L146.477 174.323L147.808 175.017L142.601 180.23Z" fill="#275A60"/>
<path d="M138.952 179.474L138.86 177.74L138.164 177.356L138.24 179.023L138.952 179.474Z" fill="#275A60"/>
<path d="M138.864 177.754L144.031 171.702L144.176 175.393L138.942 179.453L138.864 177.754Z" fill="#051F22"/>
<path d="M138.873 177.742L138.164 177.357L142.705 170.882L144.042 171.702L138.873 177.742Z" fill="#275A60"/>
<path fill-rule="evenodd" clip-rule="evenodd" d="M118.79 153.161L158.375 176.015L149.599 188.379L158.626 193.712L176.65 182.886L176.111 182.666L123.772 152.447L123.844 152.437L115.868 147.884L110.599 144.842L107.49 146.637L107.517 146.653L102.376 149.573L110.622 154.333L118.79 153.161Z" fill="url(#paint18_linear)"/>
<path d="M139.84 201.741L147.6 200.33L147.6 208.137L139.84 210.206L139.84 201.741Z" fill="#17603C"/>
<path d="M139.84 201.752L139.84 210.119L118.876 198.098L118.876 190.752L139.84 201.752Z" fill="#0D4930"/>
<path d="M134.377 177.272L134.284 175.539L133.504 175.159L133.58 176.826L134.377 177.272Z" fill="#275A60"/>
<path d="M134.288 175.553L140.133 169.469L140.275 173.161L134.366 177.252L134.288 175.553Z" fill="#051F22"/>
<path d="M134.299 175.541L133.504 175.159L138.648 168.657L140.147 169.469L134.299 175.541Z" fill="#275A60"/>
<path d="M130.661 175.031L130.567 173.298L129.787 172.918L129.863 174.585L130.661 175.031Z" fill="#275A60"/>
<path d="M130.571 173.312L136.416 167.228L136.559 170.92L130.649 175.011L130.571 173.312Z" fill="#051F22"/>
<path d="M130.582 173.3L129.787 172.918L134.931 166.416L136.43 167.229L130.582 173.3Z" fill="#275A60"/>
<path d="M126.544 171.604L126.464 170.118L125.771 169.793L125.836 171.223L126.544 171.604Z" fill="#275A60"/>
<path d="M126.468 170.13L131.672 164.907L131.793 168.071L126.535 171.586L126.468 170.13Z" fill="#051F22"/>
<path d="M126.477 170.12L125.771 169.794L130.353 164.213L131.684 164.907L126.477 170.12Z" fill="#275A60"/>
<path d="M122.828 169.363L122.747 167.878L122.054 167.553L122.119 168.982L122.828 169.363Z" fill="#275A60"/>
<path d="M122.751 167.889L127.955 162.666L128.076 165.83L122.818 169.346L122.751 167.889Z" fill="#051F22"/>
<path d="M122.76 167.879L122.055 167.553L126.636 161.972L127.967 162.666L122.76 167.879Z" fill="#275A60"/>
<path d="M147.599 200.33L141.988 195.271L138.086 196.582L119.68 190.685L118.876 191.578L139.828 201.783L147.599 200.33Z" fill="url(#paint19_linear)"/>
<path d="M147.599 200.33L141.988 195.271L138.086 196.582L119.68 190.685L118.876 191.578L139.828 201.783L147.599 200.33Z" fill="black" fill-opacity="0.2"/>
<path d="M99.4839 159.501L108.467 154.481L109.079 155.185L109.079 159.755L99.4835 165.295L99.4839 159.501Z" fill="#051F22"/>
<path d="M98.8306 160.227L94.425 157.684L104.737 151.731L107.595 153.563L108.513 154.573L98.8306 160.227Z" fill="#275A60"/>
<path d="M98.2988 159.131L107.597 153.533L109.067 155.165L99.4597 161.054L98.2988 159.131Z" fill="#1A4145"/>
<path d="M92.543 162.106L101.365 159.212L101.364 166.095L93.5219 170.623L92.543 162.106Z" fill="#17603C"/>
<path d="M87.1431 160.187L94.6462 186.531V180.013L92.154 165.075L87.1431 160.187Z" fill="#0C472F"/>
<path fill-rule="evenodd" clip-rule="evenodd" d="M87.1306 160.051L87.1299 160.051L95.5036 154.19L101.365 159.214L94.692 162.005L96.341 179.917H94.6663L87.1299 160.051L87.1306 160.051Z" fill="url(#paint20_linear)"/>
<rect x="94.6465" y="179.917" width="1.67474" height="6.61364" fill="#2C8C4D"/>
<path d="M110.386 153.71L117.203 150.153L115.508 159.378L110.628 162.833L110.386 153.71Z" fill="#0F3823"/>
<rect width="8.58348" height="10.4788" transform="matrix(1.19249e-08 1 -0.865988 -0.500065 158.654 193.578)" fill="#0D4930"/>
<path d="M110.605 154.312L110.605 162.884L102.41 158.122L102.41 149.542L110.605 154.312Z" fill="#0D4930"/>
<rect width="8.58348" height="67.0756" transform="matrix(1.19249e-08 1 -0.865988 -0.500065 173.411 184.413)" fill="#064425"/>
<path d="M158.654 193.18L176.645 182.873L176.645 191.575L158.654 201.962L158.654 193.18Z" fill="#17603C"/>
<path d="M145.112 200.839L155.731 194.568L156.675 195.376L156.675 200.712L145.112 207.388L145.112 200.839Z" fill="#051F22"/>
<path d="M144.327 201.295L139.03 198.237L151.199 191.212L155.174 193.759L156.018 194.639L144.327 201.295Z" fill="#275A60"/>
<path d="M145.769 199.215L155.066 193.617L156.536 195.248L146.929 201.138L145.769 199.215Z" fill="#1A4145"/>
<path d="M142.668 181.714L142.588 180.229L141.895 179.904L141.96 181.333L142.668 181.714Z" fill="#275A60"/>
<path d="M142.592 180.24L147.796 175.017L147.917 178.181L142.659 181.697L142.592 180.24Z" fill="#051F22"/>
<path d="M142.601 180.23L141.895 179.904L146.477 174.323L147.808 175.017L142.601 180.23Z" fill="#275A60"/>
<path d="M138.952 179.474L138.86 177.74L138.164 177.356L138.24 179.023L138.952 179.474Z" fill="#275A60"/>
<path d="M138.864 177.754L144.031 171.702L144.176 175.393L138.942 179.453L138.864 177.754Z" fill="#051F22"/>
<path d="M138.873 177.742L138.164 177.357L142.705 170.882L144.042 171.702L138.873 177.742Z" fill="#275A60"/>
<path fill-rule="evenodd" clip-rule="evenodd" d="M118.79 153.161L158.375 176.015L149.599 188.379L158.626 193.712L176.65 182.886L176.111 182.666L123.772 152.447L123.844 152.437L115.868 147.884L110.599 144.842L107.49 146.637L107.517 146.653L102.376 149.573L110.622 154.333L118.79 153.161Z" fill="url(#paint21_linear)"/>
<path d="M139.84 201.741L147.6 200.33L147.6 208.137L139.84 210.206L139.84 201.741Z" fill="#17603C"/>
<path d="M139.84 201.752L139.84 210.119L118.876 198.098L118.876 190.752L139.84 201.752Z" fill="#0D4930"/>
<path d="M134.377 177.272L134.284 175.539L133.504 175.159L133.58 176.826L134.377 177.272Z" fill="#275A60"/>
<path d="M134.288 175.553L140.133 169.469L140.275 173.161L134.366 177.252L134.288 175.553Z" fill="#051F22"/>
<path d="M134.299 175.541L133.504 175.159L138.648 168.657L140.147 169.469L134.299 175.541Z" fill="#275A60"/>
<path d="M130.661 175.031L130.567 173.298L129.787 172.918L129.863 174.585L130.661 175.031Z" fill="#275A60"/>
<path d="M130.571 173.312L136.416 167.228L136.559 170.92L130.649 175.011L130.571 173.312Z" fill="#051F22"/>
<path d="M130.582 173.3L129.787 172.918L134.931 166.416L136.43 167.229L130.582 173.3Z" fill="#275A60"/>
<path d="M126.544 171.604L126.464 170.118L125.771 169.793L125.836 171.223L126.544 171.604Z" fill="#275A60"/>
<path d="M126.468 170.13L131.672 164.907L131.793 168.071L126.535 171.586L126.468 170.13Z" fill="#051F22"/>
<path d="M126.477 170.12L125.771 169.794L130.353 164.213L131.684 164.907L126.477 170.12Z" fill="#275A60"/>
<path d="M122.828 169.363L122.747 167.878L122.054 167.553L122.119 168.982L122.828 169.363Z" fill="#275A60"/>
<path d="M122.751 167.889L127.955 162.666L128.076 165.83L122.818 169.346L122.751 167.889Z" fill="#051F22"/>
<path d="M122.76 167.879L122.055 167.553L126.636 161.972L127.967 162.666L122.76 167.879Z" fill="#275A60"/>
<path d="M147.599 200.33L141.988 195.271L138.086 196.582L119.68 190.685L118.876 191.578L139.828 201.783L147.599 200.33Z" fill="url(#paint22_linear)"/>
<path d="M147.599 200.33L141.988 195.271L138.086 196.582L119.68 190.685L118.876 191.578L139.828 201.783L147.599 200.33Z" fill="black" fill-opacity="0.2"/>
<path d="M99.4839 159.501L108.467 154.481L109.079 155.185L109.079 159.755L99.4835 165.295L99.4839 159.501Z" fill="#051F22"/>
<path d="M98.8306 160.227L94.425 157.684L104.737 151.731L107.595 153.563L108.513 154.573L98.8306 160.227Z" fill="#275A60"/>
<path d="M98.2988 159.131L107.597 153.533L109.067 155.165L99.4597 161.054L98.2988 159.131Z" fill="#1A4145"/>
<path d="M92.543 162.106L101.365 159.212L101.364 166.095L93.5219 170.623L92.543 162.106Z" fill="#17603C"/>
<path d="M87.1431 160.187L94.6462 186.531V180.013L92.154 165.075L87.1431 160.187Z" fill="#0C472F"/>
<path fill-rule="evenodd" clip-rule="evenodd" d="M87.1306 160.051L87.1299 160.051L95.5036 154.19L101.365 159.214L94.692 162.005L96.341 179.917H94.6663L87.1299 160.051L87.1306 160.051Z" fill="url(#paint23_linear)"/>
<rect x="94.6465" y="179.917" width="1.67474" height="6.61364" fill="#2C8C4D"/>
<defs>
<filter id="filter0_f" x="0.772293" y="63.4299" width="344.589" height="226.177" filterUnits="userSpaceOnUse" color-interpolation-filters="sRGB">
<feFlood flood-opacity="0" result="BackgroundImageFix"/>
<feBlend mode="normal" in="SourceGraphic" in2="BackgroundImageFix" result="shape"/>
<feGaussianBlur stdDeviation="16.1139" result="effect1_foregroundBlur"/>
</filter>
<linearGradient id="paint0_linear" x1="39.2087" y1="0" x2="39.2087" y2="245.047" gradientUnits="userSpaceOnUse">
<stop offset="0.377547" stop-color="#000606"/>
<stop offset="1" stop-color="#000606" stop-opacity="0"/>
</linearGradient>
<linearGradient id="paint1_linear" x1="233.435" y1="52.4122" x2="172.415" y2="113.651" gradientUnits="userSpaceOnUse">
<stop stop-color="#7CF29C"/>
<stop offset="1" stop-color="#126B2A"/>
</linearGradient>
<linearGradient id="paint2_linear" x1="280.653" y1="67.4712" x2="180.565" y2="163.596" gradientUnits="userSpaceOnUse">
<stop stop-color="#001209" stop-opacity="0.7"/>
<stop offset="0.802096" stop-color="#001209"/>
</linearGradient>
<linearGradient id="paint3_linear" x1="164.829" y1="71.6258" x2="164.829" y2="158.006" gradientUnits="userSpaceOnUse">
<stop offset="0.0191423" stop-color="#127C48"/>
<stop offset="0.982059" stop-color="#04391F"/>
</linearGradient>
<linearGradient id="paint4_linear" x1="284.111" y1="22.3802" x2="216.431" y2="117.001" gradientUnits="userSpaceOnUse">
<stop stop-color="#DAFBE3"/>
<stop offset="1" stop-color="#7CB08A"/>
</linearGradient>
<linearGradient id="paint5_linear" x1="168.101" y1="86.0756" x2="131.542" y2="149.449" gradientUnits="userSpaceOnUse">
<stop offset="0.0284704" stop-color="#2C925F"/>
<stop offset="0.843353" stop-color="#074831"/>
</linearGradient>
<linearGradient id="paint6_linear" x1="192.514" y1="122.088" x2="244.159" y2="49.5969" gradientUnits="userSpaceOnUse">
<stop offset="0.0429999" stop-color="#3D9E56"/>
<stop offset="0.412967" stop-color="#9BF9B4"/>
<stop offset="1" stop-color="#63D681"/>
</linearGradient>
<linearGradient id="paint7_linear" x1="278.884" y1="59.6561" x2="213.072" y2="142.329" gradientUnits="userSpaceOnUse">
<stop stop-color="#3DAB75"/>
<stop offset="1" stop-color="#135836"/>
</linearGradient>
<linearGradient id="paint8_linear" x1="163.829" y1="157.295" x2="159.955" y2="150.585" gradientUnits="userSpaceOnUse">
<stop stop-color="#B2B2B2"/>
<stop offset="1" stop-color="white"/>
</linearGradient>
<linearGradient id="paint9_linear" x1="160.345" y1="151.26" x2="163.44" y2="156.62" gradientUnits="userSpaceOnUse">
<stop stop-color="#B2B2B2"/>
<stop offset="1" stop-color="white"/>
</linearGradient>
<linearGradient id="paint10_linear" x1="163.829" y1="165.818" x2="159.955" y2="159.108" gradientUnits="userSpaceOnUse">
<stop stop-color="#B2B2B2"/>
<stop offset="1" stop-color="white"/>
</linearGradient>
<linearGradient id="paint11_linear" x1="160.345" y1="159.783" x2="163.44" y2="165.143" gradientUnits="userSpaceOnUse">
<stop stop-color="#B2B2B2"/>
<stop offset="1" stop-color="white"/>
</linearGradient>
<linearGradient id="paint12_linear" x1="129.263" y1="137.274" x2="125.388" y2="130.564" gradientUnits="userSpaceOnUse">
<stop stop-color="#B2B2B2"/>
<stop offset="1" stop-color="white"/>
</linearGradient>
<linearGradient id="paint13_linear" x1="125.779" y1="131.239" x2="128.874" y2="136.599" gradientUnits="userSpaceOnUse">
<stop stop-color="#B2B2B2"/>
<stop offset="1" stop-color="white"/>
</linearGradient>
<linearGradient id="paint14_linear" x1="129.263" y1="145.797" x2="125.388" y2="139.087" gradientUnits="userSpaceOnUse">
<stop stop-color="#B2B2B2"/>
<stop offset="1" stop-color="white"/>
</linearGradient>
<linearGradient id="paint15_linear" x1="125.778" y1="139.762" x2="128.874" y2="145.122" gradientUnits="userSpaceOnUse">
<stop stop-color="#B2B2B2"/>
<stop offset="1" stop-color="white"/>
</linearGradient>
<linearGradient id="paint16_linear" x1="142.955" y1="93.2613" x2="270.313" y2="7.92413" gradientUnits="userSpaceOnUse">
<stop offset="0.129621" stop-color="#C6EFD1"/>
<stop offset="0.952245" stop-color="white"/>
</linearGradient>
<linearGradient id="paint17_linear" x1="176.452" y1="99.8811" x2="176.452" y2="169.308" gradientUnits="userSpaceOnUse">
<stop offset="0.0225475" stop-color="#248957"/>
<stop offset="1" stop-color="#135535"/>
</linearGradient>
<linearGradient id="paint18_linear" x1="147.932" y1="193.712" x2="169.246" y2="154.868" gradientUnits="userSpaceOnUse">
<stop offset="0.10132" stop-color="#1B7C4C"/>
<stop offset="1" stop-color="#16834D"/>
</linearGradient>
<linearGradient id="paint19_linear" x1="117.471" y1="190.454" x2="158.913" y2="193.128" gradientUnits="userSpaceOnUse">
<stop stop-color="#55EF89"/>
<stop offset="0.714745" stop-color="#1C9156"/>
</linearGradient>
<linearGradient id="paint20_linear" x1="97.6978" y1="154.71" x2="95.5889" y2="177.59" gradientUnits="userSpaceOnUse">
<stop stop-color="#26954C"/>
<stop offset="1" stop-color="#44BF6E"/>
</linearGradient>
<linearGradient id="paint21_linear" x1="147.932" y1="193.712" x2="169.246" y2="154.868" gradientUnits="userSpaceOnUse">
<stop offset="0.10132" stop-color="#1B7C4C"/>
<stop offset="1" stop-color="#16834D"/>
</linearGradient>
<linearGradient id="paint22_linear" x1="117.471" y1="190.454" x2="158.913" y2="193.128" gradientUnits="userSpaceOnUse">
<stop stop-color="#55EF89"/>
<stop offset="0.714745" stop-color="#1C9156"/>
</linearGradient>
<linearGradient id="paint23_linear" x1="97.6978" y1="154.71" x2="95.5889" y2="177.59" gradientUnits="userSpaceOnUse">
<stop stop-color="#26954C"/>
<stop offset="1" stop-color="#44BF6E"/>
</linearGradient>
</defs>
</svg>
