<svg width="346" height="269" viewBox="0 0 346 269" fill="none" xmlns="http://www.w3.org/2000/svg">
<g filter="url(#filter0_f)">
<rect width="78.4579" height="245.173" transform="matrix(0.86594 0.500148 -0.86594 0.500148 245.309 74.8101)" fill="url(#paint0_linear)"/>
</g>
<path d="M186.9 135.438L170.083 160.115L125.237 133.475L137.85 116.37L186.9 135.438Z" fill="#02180C"/>
<path d="M173.847 135.438L160.59 160.115L125.237 133.475L135.18 116.37L173.847 135.438Z" fill="#08331B"/>
<g filter="url(#filter1_f)">
<path fill-rule="evenodd" clip-rule="evenodd" d="M140.222 138.537L116.962 125.246L205.735 74.2028C206.704 73.625 207.673 73.625 208.642 74.2028L230.35 86.3377L204.959 100.977L221.628 110.222L233.645 103.288C234.615 102.71 235.584 102.71 236.553 103.288L258.261 115.616L179.568 161.073L156.309 147.783L159.604 145.856L143.323 136.611L140.222 138.537Z" fill="#000605"/>
</g>
<path fill-rule="evenodd" clip-rule="evenodd" d="M201.664 63.031L128.592 104.059C123.359 106.948 119.095 113.689 119.095 118.89C119.095 120.816 119.676 122.742 121.421 123.706L137.896 133.144L224.536 71.121L209.03 62.068C207.091 61.1049 204.572 61.2975 201.664 63.031Z" fill="#051F22"/>
<path fill-rule="evenodd" clip-rule="evenodd" d="M121.808 110.8C120.258 113.304 119.288 116.193 119.288 118.697C119.288 120.624 119.87 122.55 121.614 123.513L132.275 129.869L143.904 123.513L121.808 110.8Z" fill="#082B2F"/>
<path fill-rule="evenodd" clip-rule="evenodd" d="M119.676 115.616C119.289 116.771 119.289 117.734 119.289 118.697C119.289 120.624 119.87 122.55 121.615 123.513L135.958 131.795L141.966 128.521L119.676 115.616Z" fill="#051F22"/>
<path fill-rule="evenodd" clip-rule="evenodd" d="M119.289 119.853C119.482 121.394 120.258 122.935 121.614 123.706L138.09 133.144L140.028 131.795L119.289 119.853Z" fill="#021919"/>
<path fill-rule="evenodd" clip-rule="evenodd" d="M217.558 72.0841L145.067 113.304C139.834 116.193 135.57 122.935 135.57 128.136C135.57 133.336 140.028 135.263 145.261 132.373L217.558 90.9606C222.791 87.8787 227.055 81.3297 227.055 76.129C227.055 70.9284 222.791 69.0022 217.558 72.0841Z" fill="#12393E"/>
<path fill-rule="evenodd" clip-rule="evenodd" d="M215.814 74.5881L146.618 114.075C141.578 116.964 137.508 122.742 137.508 126.98C137.508 131.218 141.578 132.373 146.618 129.484L215.814 90.1901C220.853 87.3008 224.923 81.5223 224.923 77.2847C224.923 73.0472 220.853 71.8914 215.814 74.5881Z" fill="#161713"/>
<path fill-rule="evenodd" clip-rule="evenodd" d="M147.974 115.808L139.058 130.447L138.864 130.254C138.089 129.484 137.508 128.521 137.508 126.98C137.508 122.935 141.19 117.542 146.036 114.46L147.974 115.808Z" fill="#161713"/>
<path fill-rule="evenodd" clip-rule="evenodd" d="M147.393 116.771L144.873 115.423C145.261 115.23 145.648 114.845 146.036 114.652L147.974 115.808L147.393 116.771Z" fill="#55577A"/>
<path fill-rule="evenodd" clip-rule="evenodd" d="M146.23 118.697L142.935 116.964C143.322 116.578 143.71 116.193 144.097 115.808L146.811 117.349L146.23 118.697Z" fill="#363634"/>
<path fill-rule="evenodd" clip-rule="evenodd" d="M145.842 119.468L144.486 120.238L141.578 118.505C141.966 118.119 142.353 117.734 142.547 117.349L145.842 119.468Z" fill="#363634"/>
<path fill-rule="evenodd" clip-rule="evenodd" d="M144.485 121.201L142.935 122.164L140.027 120.623C140.221 120.238 140.609 119.853 140.996 119.468L144.485 121.201Z" fill="#363634"/>
<path fill-rule="evenodd" clip-rule="evenodd" d="M142.935 122.935L141.384 123.898L138.864 122.55C139.058 122.164 139.252 121.587 139.64 121.201L142.935 122.935Z" fill="#363634"/>
<path fill-rule="evenodd" clip-rule="evenodd" d="M141.578 124.668L140.028 125.632L138.089 124.476C138.283 124.091 138.477 123.513 138.671 122.935L141.578 124.668Z" fill="#363634"/>
<path fill-rule="evenodd" clip-rule="evenodd" d="M140.608 128.136L140.221 128.328L137.701 126.787C137.701 126.209 137.701 125.632 137.895 125.054L141.19 126.98L140.608 128.136Z" fill="#363634"/>
<path fill-rule="evenodd" clip-rule="evenodd" d="M139.252 130.447L138.671 130.062C138.089 129.484 137.701 128.713 137.701 127.75L140.027 129.099L139.252 130.447Z" fill="#363634"/>
<path fill-rule="evenodd" clip-rule="evenodd" d="M137.508 126.402C137.508 130.447 140.221 131.988 143.71 130.062C147.005 128.136 149.913 123.513 149.913 119.66C149.913 116.001 147.393 114.267 144.098 116.001C140.609 118.89 137.895 123.128 137.508 126.402Z" fill="#294245"/>
<path fill-rule="evenodd" clip-rule="evenodd" d="M143.71 118.312C141.384 119.66 139.446 122.935 139.446 125.632C139.446 128.328 141.384 129.484 143.71 128.136C146.036 126.787 147.974 123.513 147.974 120.816C147.974 118.12 146.036 116.964 143.71 118.312Z" fill="#55577A"/>
<path fill-rule="evenodd" clip-rule="evenodd" d="M144.098 119.853C142.354 120.816 140.803 123.32 140.803 125.439C140.803 127.558 142.354 128.328 144.098 127.365C145.842 126.402 147.393 123.898 147.393 121.779C147.393 119.66 145.842 118.697 144.098 119.853Z" fill="#EDA705"/>
<path fill-rule="evenodd" clip-rule="evenodd" d="M144.292 121.972C143.516 122.358 142.741 123.513 142.741 124.477C142.741 125.44 143.323 125.825 144.292 125.247C145.067 124.862 145.842 123.706 145.842 122.743C145.842 121.78 145.067 121.395 144.292 121.972Z" fill="#363634"/>
<path fill-rule="evenodd" clip-rule="evenodd" d="M143.129 125.246C143.323 125.246 143.711 125.246 144.098 125.054C144.874 124.668 145.649 123.513 145.649 122.55C145.649 122.164 145.455 121.779 145.261 121.587C145.067 121.587 144.68 121.587 144.292 121.779C143.517 122.164 142.742 123.32 142.742 124.283C142.742 124.861 142.935 125.054 143.129 125.246Z" fill="#55577A"/>
<path fill-rule="evenodd" clip-rule="evenodd" d="M149.719 111.763L217.558 72.0841C218.914 71.3136 220.271 70.9284 221.628 71.5062L209.611 63.9941L137.895 104.829L149.719 111.763Z" fill="#021618"/>
<path fill-rule="evenodd" clip-rule="evenodd" d="M163.287 142.197V137.381L137.895 122.742V127.558L163.287 142.197Z" fill="#0A4226"/>
<path fill-rule="evenodd" clip-rule="evenodd" d="M162.124 136.804L172.396 119.083L147.974 105.022L137.896 122.742L162.124 136.804Z" fill="url(#paint1_linear)"/>
<path fill-rule="evenodd" clip-rule="evenodd" d="M161.93 141.041L162.124 136.226L208.642 109.837L208.448 114.652L161.93 141.041Z" fill="#EDA705"/>
<path fill-rule="evenodd" clip-rule="evenodd" d="M232.483 89.8049L167.745 126.017C162.512 128.906 158.247 135.648 158.247 140.848C158.247 142.775 158.829 144.701 160.573 145.664L177.049 155.102L255.354 98.0874L239.848 89.0344C237.91 88.0713 235.39 88.2639 232.483 89.8049Z" fill="#051F22"/>
<path fill-rule="evenodd" clip-rule="evenodd" d="M160.767 132.951C159.217 135.455 158.247 138.345 158.247 140.849C158.247 142.775 158.829 144.701 160.573 145.664L171.234 151.828L182.863 145.471L160.767 132.951Z" fill="#082B2F"/>
<path fill-rule="evenodd" clip-rule="evenodd" d="M158.635 137.767C158.247 138.922 158.247 139.885 158.247 140.849C158.247 142.775 158.829 144.701 160.573 145.664L174.916 153.946L181.119 150.479L158.635 137.767Z" fill="#051F22"/>
<path fill-rule="evenodd" clip-rule="evenodd" d="M158.247 142.004C158.441 143.545 159.217 145.086 160.573 145.857L177.049 155.295L178.987 153.947L158.247 142.004Z" fill="#021919"/>
<path fill-rule="evenodd" clip-rule="evenodd" d="M248.376 98.858L184.22 135.455C178.987 138.345 174.722 145.086 174.722 150.287C174.722 155.487 179.18 157.414 184.414 154.524L248.376 117.734C253.609 114.653 257.874 108.104 257.874 102.903C257.874 97.7023 253.609 95.9687 248.376 98.858Z" fill="#12393E"/>
<path fill-rule="evenodd" clip-rule="evenodd" d="M246.631 101.555L185.77 136.418C180.731 139.308 176.66 145.086 176.66 149.324C176.66 153.561 180.731 154.717 185.77 151.828L246.631 116.964C251.671 114.075 255.741 108.296 255.741 104.059C255.741 99.8209 251.671 98.6652 246.631 101.555Z" fill="#021618"/>
<path fill-rule="evenodd" clip-rule="evenodd" d="M184.413 131.218L245.081 96.7392L233.257 89.9976L224.147 94.4278L171.621 123.898L184.413 131.218Z" fill="#021618"/>
<path fill-rule="evenodd" clip-rule="evenodd" d="M252.834 100.206L244.112 114.845L238.297 111.571C236.94 110.8 236.359 109.452 236.359 107.718L246.632 101.555C248.957 100.206 251.283 99.821 252.834 100.206Z" fill="#000F11"/>
<path fill-rule="evenodd" clip-rule="evenodd" d="M247.6 100.977C244.693 103.095 242.367 107.333 242.367 110.8C242.367 114.653 245.081 116.193 248.57 114.267C251.865 112.341 254.772 107.718 254.772 103.866C254.772 102.132 254.19 100.784 253.221 100.206C251.865 99.821 249.733 100.014 247.6 100.977Z" fill="#548388"/>
<path fill-rule="evenodd" clip-rule="evenodd" d="M248.57 102.518C246.244 103.866 244.306 107.14 244.306 109.837C244.306 112.534 246.244 113.689 248.57 112.341C250.896 110.993 252.834 107.718 252.834 105.022C252.834 102.325 250.896 101.169 248.57 102.518Z" fill="#294245"/>
<path fill-rule="evenodd" clip-rule="evenodd" d="M248.957 104.059C247.213 105.022 245.662 107.526 245.662 109.645C245.662 111.763 247.213 112.534 248.957 111.571C250.702 110.608 252.252 108.104 252.252 105.985C252.252 103.866 250.702 102.903 248.957 104.059Z" fill="#2E7E44"/>
<path fill-rule="evenodd" clip-rule="evenodd" d="M249.151 106.177C248.376 106.563 247.6 107.718 247.6 108.681C247.6 109.645 248.182 110.03 249.151 109.452C249.926 109.067 250.702 107.911 250.702 106.948C250.702 105.985 249.926 105.6 249.151 106.177Z" fill="#363634"/>
<path fill-rule="evenodd" clip-rule="evenodd" d="M247.989 109.452C248.182 109.452 248.57 109.452 248.958 109.259C249.733 108.874 250.508 107.718 250.508 106.755C250.508 106.37 250.314 105.985 250.121 105.985C249.927 105.985 249.539 105.985 249.152 106.177C248.376 106.563 247.601 107.718 247.601 108.681C247.601 109.067 247.795 109.452 247.989 109.452Z" fill="#294245"/>
<path fill-rule="evenodd" clip-rule="evenodd" d="M189.647 134.107V143.353L190.422 143.93L240.042 115.038L240.817 105.214L240.623 105.022L189.647 134.107Z" fill="#021618"/>
<path fill-rule="evenodd" clip-rule="evenodd" d="M240.817 104.829L203.215 126.402L190.422 133.722V143.93L195.268 141.234C195.462 141.619 195.656 141.812 196.237 142.197C197.012 142.582 198.369 142.775 199.338 142.197L234.033 122.165C235.971 121.009 237.134 119.275 237.328 116.964L240.817 114.845V104.829Z" fill="#061F11"/>
<path fill-rule="evenodd" clip-rule="evenodd" d="M187.127 137.959L178.211 152.598L178.017 152.406C177.242 151.635 176.66 150.672 176.66 149.131C176.66 145.086 180.343 139.693 185.189 136.611L187.127 137.959Z" fill="#161713"/>
<path fill-rule="evenodd" clip-rule="evenodd" d="M186.352 138.922L183.057 138.152C183.445 137.767 184.608 136.996 184.995 136.803L186.934 137.959L186.352 138.922Z" fill="#55577A"/>
<path fill-rule="evenodd" clip-rule="evenodd" d="M184.801 141.619L183.444 142.389L180.537 140.656C180.925 140.271 181.312 139.885 181.506 139.5L184.801 141.619Z" fill="#363634"/>
<path fill-rule="evenodd" clip-rule="evenodd" d="M183.444 143.352L181.894 144.316L178.986 142.775C179.18 142.389 179.568 142.004 179.955 141.619L183.444 143.352Z" fill="#363634"/>
<path fill-rule="evenodd" clip-rule="evenodd" d="M181.894 145.086L180.343 146.049L177.823 144.701C178.017 144.316 178.211 143.738 178.599 143.352L181.894 145.086Z" fill="#363634"/>
<path fill-rule="evenodd" clip-rule="evenodd" d="M180.537 146.82L178.987 147.783L177.048 146.627C177.242 146.242 177.436 145.664 177.63 145.086L180.537 146.82Z" fill="#363634"/>
<path fill-rule="evenodd" clip-rule="evenodd" d="M179.568 150.287L179.18 150.479L176.661 148.938C176.661 148.361 176.661 147.783 176.854 147.205L180.149 149.131L179.568 150.287Z" fill="#363634"/>
<path fill-rule="evenodd" clip-rule="evenodd" d="M178.212 152.598L177.63 152.213C177.049 151.635 176.661 150.865 176.661 149.901L178.987 151.25L178.212 152.598Z" fill="#363634"/>
<path fill-rule="evenodd" clip-rule="evenodd" d="M176.661 148.553C176.661 152.598 179.374 154.139 182.863 152.213C186.158 150.287 189.065 145.664 189.065 141.812C189.065 138.152 186.546 136.418 183.251 138.152C179.568 141.041 176.854 145.279 176.661 148.553Z" fill="#548388"/>
<path fill-rule="evenodd" clip-rule="evenodd" d="M182.669 140.463C180.343 141.812 178.405 145.086 178.405 147.783C178.405 150.479 180.343 151.635 182.669 150.287C184.995 148.938 186.933 145.664 186.933 142.967C187.127 140.271 185.189 139.115 182.669 140.463Z" fill="#294245"/>
<path fill-rule="evenodd" clip-rule="evenodd" d="M183.251 142.004C181.506 142.967 179.956 145.471 179.956 147.59C179.956 149.709 181.506 150.479 183.251 149.516C184.995 148.553 186.546 146.049 186.546 143.93C186.352 141.812 184.995 140.848 183.251 142.004Z" fill="#2E7E44"/>
<path fill-rule="evenodd" clip-rule="evenodd" d="M183.251 144.123C182.475 144.508 181.7 145.664 181.7 146.627C181.7 147.59 182.282 147.975 183.251 147.397C184.026 147.012 184.801 145.856 184.801 144.893C184.801 143.93 184.22 143.545 183.251 144.123Z" fill="#363634"/>
<path fill-rule="evenodd" clip-rule="evenodd" d="M182.088 147.398C182.282 147.398 182.67 147.398 183.057 147.205C183.833 146.82 184.608 145.664 184.608 144.701C184.608 144.316 184.414 143.93 184.22 143.738C184.026 143.738 183.639 143.738 183.251 143.93C182.476 144.316 181.701 145.471 181.701 146.434C181.894 147.012 181.894 147.205 182.088 147.398Z" fill="#294245"/>
<path fill-rule="evenodd" clip-rule="evenodd" d="M234.808 110.8L196.624 132.566V136.996C196.624 137.959 197.206 138.922 197.981 139.5C198.95 140.078 199.92 140.078 200.889 139.5L231.707 121.779C233.645 120.624 234.614 118.89 234.614 116.771V110.8H234.808Z" fill="#092314"/>
<path fill-rule="evenodd" clip-rule="evenodd" d="M198.175 139.693C198.757 139.885 199.532 139.693 200.114 139.308L230.932 121.587C232.87 120.431 233.839 118.697 233.839 116.579V111.185L196.625 132.566V136.996C196.625 138.152 197.594 139.308 198.175 139.693C198.563 139.885 198.175 139.693 198.175 139.693Z" fill="#1A4145"/>
<path fill-rule="evenodd" clip-rule="evenodd" d="M187.321 127.558V122.935L246.438 89.0344L246.244 93.6572L187.321 127.558Z" fill="url(#paint2_linear)"/>
<path fill-rule="evenodd" clip-rule="evenodd" d="M187.321 127.558V122.935L137.508 94.235V99.0505L187.321 127.558Z" fill="url(#paint3_linear)"/>
<path fill-rule="evenodd" clip-rule="evenodd" d="M187.321 127.558V122.935L137.508 94.235V99.0505L187.321 127.558Z" fill="#052111"/>
<path fill-rule="evenodd" clip-rule="evenodd" d="M246.438 89.0344L187.321 122.935L137.508 94.2351L196.624 60.3344L246.438 89.0344Z" fill="url(#paint4_linear)"/>
<path fill-rule="evenodd" clip-rule="evenodd" d="M176.085 121.807L133.995 130.826L124.976 124.813L144.518 102.766L176.085 121.807Z" fill="url(#paint5_linear)"/>
<path d="M131.49 126.818L172.077 118.8L177.088 121.807L130.856 130.887L131.49 126.818Z" fill="#115332"/>
<g filter="url(#filter2_f)">
<path fill-rule="evenodd" clip-rule="evenodd" d="M241.592 86.3378C241.592 86.723 241.592 87.3009 241.592 87.6861C241.592 89.227 241.398 90.5754 241.011 91.9237L195.268 118.12C194.105 118.12 192.942 118.12 191.779 118.12C186.546 118.12 181.506 117.542 176.661 116.771L145.843 99.0505C144.292 96.5465 143.129 94.0425 142.741 91.3458L196.625 60.3344L241.592 86.3378Z" fill="url(#paint6_linear)"/>
<path fill-rule="evenodd" clip-rule="evenodd" d="M241.592 86.3378C241.592 86.723 241.592 87.3009 241.592 87.6861C241.592 89.227 241.398 90.5754 241.011 91.9237L195.268 118.12C194.105 118.12 192.942 118.12 191.779 118.12C186.546 118.12 181.506 117.542 176.661 116.771L145.843 99.0505C144.292 96.5465 143.129 94.0425 142.741 91.3458L196.625 60.3344L241.592 86.3378Z" fill="black" fill-opacity="0.2"/>
</g>
<path fill-rule="evenodd" clip-rule="evenodd" d="M228.994 85.1821C228.994 97.7022 212.325 108.104 191.973 108.104C171.621 108.104 154.952 97.8948 154.952 85.1821V54.1707H228.994V85.1821Z" fill="#02180C"/>
<path fill-rule="evenodd" clip-rule="evenodd" d="M241.592 72.4693C241.592 89.4196 219.302 103.095 191.973 103.095C164.45 103.095 142.354 89.4196 142.354 72.4693V30.864H241.592V72.4693Z" fill="url(#paint7_linear)"/>
<path fill-rule="evenodd" clip-rule="evenodd" d="M241.592 72.4693C241.592 89.4196 219.302 103.095 191.973 103.095C164.45 103.095 142.354 89.4196 142.354 72.4693V30.864H241.592V72.4693Z" fill="black" fill-opacity="0.2"/>
<path fill-rule="evenodd" clip-rule="evenodd" d="M176.854 60.1417L170.846 90.19C159.604 88.4565 149.331 82.678 140.028 72.4692L146.23 42.4209L176.854 60.1417Z" fill="url(#paint8_linear)"/>
<path fill-rule="evenodd" clip-rule="evenodd" d="M170.265 65.1498C166.776 63.6089 163.093 61.8753 159.604 59.7565C156.115 57.8303 152.626 55.5189 149.331 53.2075C149.138 53.0149 148.75 53.0149 148.556 53.2075C148.362 53.4001 148.168 53.5928 147.975 53.978C147.975 54.1706 147.781 54.5558 147.781 54.7484C147.781 54.9411 147.587 55.3263 147.587 55.5189C147.393 55.9042 147.587 56.482 147.587 56.8672C147.781 57.2525 147.975 57.6377 148.168 57.8303C151.657 60.1417 155.146 62.2605 158.635 64.1867C162.124 66.1129 165.613 68.0391 169.102 69.7726C169.489 69.9652 169.683 69.9652 170.071 69.7726C170.265 69.58 170.458 69.1948 170.652 68.8095C170.652 68.6169 170.846 68.2317 170.846 68.0391C170.846 67.8464 171.04 67.4612 171.04 67.2686C171.234 66.8833 171.04 66.4981 171.04 66.1129C170.652 65.535 170.458 65.3424 170.265 65.1498Z" fill="#181914"/>
<path fill-rule="evenodd" clip-rule="evenodd" d="M139.834 86.5303C139.834 82.678 139.834 77.6699 140.222 72.2766C140.222 70.9283 140.222 70.9283 140.222 72.2766C146.23 79.4035 163.675 87.8786 170.846 90.19C170.459 95.3907 170.459 100.399 170.459 104.251C159.604 100.784 145.843 93.0793 139.834 86.5303Z" fill="#070E0A"/>
<path fill-rule="evenodd" clip-rule="evenodd" d="M167.357 91.1532C168.326 91.731 169.295 93.272 169.295 94.4277C169.295 95.5834 168.52 96.1613 167.357 95.5834C166.388 95.0055 165.419 93.4646 165.419 92.3089C165.613 90.9606 166.388 90.5753 167.357 91.1532Z" fill="#7F7F7F"/>
<path fill-rule="evenodd" clip-rule="evenodd" d="M167.164 91.1531C168.133 91.731 169.102 93.2719 169.102 94.4276C169.102 95.5833 168.327 96.1612 167.164 95.5834C166.195 95.0055 165.226 93.4646 165.226 92.3089C165.419 91.1531 166.195 90.5753 167.164 91.1531Z" fill="url(#paint9_linear)"/>
<path fill-rule="evenodd" clip-rule="evenodd" d="M167.163 91.731C167.939 92.1162 168.714 93.2719 168.714 94.235C168.714 95.1981 168.132 95.5833 167.163 95.1981C166.388 94.8129 165.613 93.6572 165.613 92.6941C165.613 91.5384 166.388 91.1531 167.163 91.731Z" fill="url(#paint10_linear)"/>
<path fill-rule="evenodd" clip-rule="evenodd" d="M167.745 92.5015C167.939 92.6941 168.327 93.0793 168.327 93.2719C168.327 93.6572 168.133 93.6572 167.745 93.4645C167.551 93.2719 167.164 92.8867 167.164 92.6941C167.358 92.5015 167.551 92.3088 167.745 92.5015Z" fill="white"/>
<path fill-rule="evenodd" clip-rule="evenodd" d="M167.357 97.1243C168.326 97.7021 169.295 99.2431 169.295 100.399C169.295 101.554 168.52 102.132 167.357 101.554C166.388 100.977 165.419 99.4357 165.419 98.28C165.613 96.9317 166.388 96.5464 167.357 97.1243Z" fill="#7F7F7F"/>
<path fill-rule="evenodd" clip-rule="evenodd" d="M167.164 97.1242C168.133 97.7021 169.102 99.243 169.102 100.399C169.102 101.554 168.327 102.132 167.164 101.554C166.195 100.977 165.226 99.4357 165.226 98.2799C165.419 97.1242 166.195 96.5464 167.164 97.1242Z" fill="url(#paint11_linear)"/>
<path fill-rule="evenodd" clip-rule="evenodd" d="M167.163 97.7021C167.939 98.0873 168.714 99.243 168.714 100.206C168.714 101.169 168.132 101.554 167.163 101.169C166.388 100.784 165.613 99.6283 165.613 98.6652C165.613 97.5095 166.388 97.1242 167.163 97.7021Z" fill="url(#paint12_linear)"/>
<path fill-rule="evenodd" clip-rule="evenodd" d="M167.745 98.4726C167.939 98.6652 168.327 99.0504 168.327 99.243C168.327 99.6283 168.133 99.6283 167.745 99.4357C167.551 99.243 167.164 98.8578 167.164 98.6652C167.358 98.4726 167.551 98.2799 167.745 98.4726Z" fill="white"/>
<path fill-rule="evenodd" clip-rule="evenodd" d="M143.129 77.0921C144.098 77.6699 145.067 79.2109 145.067 80.3666C145.067 81.5223 144.292 82.1002 143.129 81.5223C142.16 80.9444 141.191 79.4035 141.191 78.2478C141.191 76.8995 141.966 76.5142 143.129 77.0921Z" fill="#7F7F7F"/>
<path fill-rule="evenodd" clip-rule="evenodd" d="M142.936 77.2843C143.905 77.8621 144.874 79.4031 144.874 80.5588C144.874 81.7145 144.099 82.2923 142.936 81.7145C141.967 81.1366 140.998 79.5957 140.998 78.44C140.998 77.0917 141.773 76.7064 142.936 77.2843Z" fill="url(#paint13_linear)"/>
<path fill-rule="evenodd" clip-rule="evenodd" d="M142.936 77.6699C143.711 78.0552 144.486 79.2109 144.486 80.174C144.486 81.1371 143.905 81.5223 142.936 81.1371C142.16 80.7518 141.385 79.5961 141.385 78.633C141.385 77.4773 141.967 77.0921 142.936 77.6699Z" fill="url(#paint14_linear)"/>
<path fill-rule="evenodd" clip-rule="evenodd" d="M143.517 78.4404C143.71 78.633 143.904 79.0182 143.904 79.4035C143.904 79.7887 143.71 79.7887 143.323 79.5961C143.129 79.4035 142.741 79.0182 142.741 78.8256C142.741 78.633 143.129 78.2478 143.517 78.4404Z" fill="white"/>
<path fill-rule="evenodd" clip-rule="evenodd" d="M143.129 83.0633C144.098 83.6411 145.067 85.1821 145.067 86.3378C145.067 87.4935 144.292 88.0713 143.129 87.4935C142.16 86.9156 141.191 85.3747 141.191 84.219C141.191 82.8707 141.966 82.4854 143.129 83.0633Z" fill="#7F7F7F"/>
<path fill-rule="evenodd" clip-rule="evenodd" d="M142.936 83.2554C143.905 83.8333 144.874 85.3742 144.874 86.5299C144.874 87.6856 144.099 88.2635 142.936 87.6856C141.967 87.1078 140.998 85.5668 140.998 84.4111C140.998 83.0628 141.773 82.6776 142.936 83.2554Z" fill="url(#paint15_linear)"/>
<path fill-rule="evenodd" clip-rule="evenodd" d="M142.936 83.6412C143.711 84.0264 144.486 85.1821 144.486 86.1452C144.486 87.1083 143.905 87.4935 142.936 87.1083C142.16 86.7231 141.385 85.5673 141.385 84.6043C141.385 83.4486 141.967 83.0633 142.936 83.6412Z" fill="url(#paint16_linear)"/>
<path fill-rule="evenodd" clip-rule="evenodd" d="M143.517 84.4116C143.71 84.6042 144.098 84.9895 144.098 85.1821C144.098 85.3747 143.904 85.5673 143.517 85.3747C143.323 85.1821 142.935 84.7968 142.935 84.6042C142.935 84.4116 143.129 84.219 143.517 84.4116Z" fill="white"/>
<path fill-rule="evenodd" clip-rule="evenodd" d="M170.458 104.251C170.458 100.399 170.458 95.5835 170.846 90.1902L176.854 60.1419V100.784L170.458 104.251Z" fill="url(#paint17_linear)"/>
<path fill-rule="evenodd" clip-rule="evenodd" d="M170.458 104.251C170.458 100.399 170.458 95.5835 170.846 90.1902L176.854 60.1419V100.784L170.458 104.251Z" fill="black" fill-opacity="0.2"/>
<path fill-rule="evenodd" clip-rule="evenodd" d="M116.963 16.225C117.544 16.6103 117.932 17.3807 117.932 17.9586C117.932 18.5364 117.544 18.9217 116.963 18.5364C116.381 18.1512 115.993 17.3807 115.993 16.8029C115.8 16.225 116.381 15.8398 116.963 16.225Z" fill="#333333"/>
<path fill-rule="evenodd" clip-rule="evenodd" d="M218.915 30.864V98.2801C232.676 92.8868 241.592 83.2559 241.592 72.4693V30.864H218.915Z" fill="url(#paint18_linear)"/>
<path fill-rule="evenodd" clip-rule="evenodd" d="M191.973 0.045166C219.496 0.045166 241.592 13.721 241.592 30.6713C241.592 47.6217 219.302 61.2975 191.973 61.2975C164.45 61.2975 142.354 47.6217 142.354 30.6713C142.16 13.9136 164.45 0.045166 191.973 0.045166Z" fill="url(#paint19_linear)"/>
<path fill-rule="evenodd" clip-rule="evenodd" d="M191.973 0.237717C215.038 0.237717 233.839 11.7948 233.839 26.0485C233.839 40.3021 215.038 51.8592 191.973 51.8592C168.908 51.8592 150.107 40.3021 150.107 26.0485C150.107 11.7948 168.908 0.237717 191.973 0.237717Z" fill="url(#paint20_linear)"/>
<path fill-rule="evenodd" clip-rule="evenodd" d="M191.973 4.86057C207.479 4.86057 219.884 12.5653 219.884 22.1961C219.884 31.827 207.285 39.5317 191.973 39.5317C176.467 39.5317 164.062 31.827 164.062 22.1961C163.868 12.5653 176.467 4.86057 191.973 4.86057Z" fill="#63C27D"/>
<path fill-rule="evenodd" clip-rule="evenodd" d="M191.973 7.94251C204.765 7.94251 215.232 14.2989 215.232 22.1962C215.232 30.0935 204.765 36.4499 191.973 36.4499C179.18 36.4499 168.714 30.0935 168.714 22.1962C168.714 14.4915 179.18 7.94251 191.973 7.94251Z" fill="#1F7A4D"/>
<path fill-rule="evenodd" clip-rule="evenodd" d="M191.973 6.40147C204.765 6.40147 215.232 12.7579 215.232 20.6552C215.232 28.5525 204.765 34.9089 191.973 34.9089C179.18 34.9089 168.714 28.5525 168.714 20.6552C168.714 12.9505 179.18 6.40147 191.973 6.40147Z" fill="url(#paint21_linear)"/>
<path d="M133.995 129.504L174.983 122.004C164.683 126.88 161.058 130.353 158.79 138.004L132.983 142.004L133.995 129.504Z" fill="url(#paint22_linear)"/>
<path d="M130.429 146.49L82.2234 125.059L75.9185 135.793L91.5526 150.168L94.4272 167.274L124.058 168.933L148.958 177.959L166.245 174.37L130.429 146.49Z" fill="url(#paint23_linear)"/>
<path d="M130.429 146.49L82.2234 125.059L75.9185 135.793L91.5526 150.168L94.4272 167.274L124.058 168.933L148.958 177.959L166.245 174.37L130.429 146.49Z" fill="black" fill-opacity="0.2"/>
<path d="M74.9434 128.01L82.0394 127.064V134.633L75.8895 136.052L74.9434 128.01Z" fill="#094A2A"/>
<path d="M147.795 170.113L167.191 166.801V174.37L148.268 177.682L147.795 170.113Z" fill="url(#paint24_linear)"/>
<path d="M129.482 138.921L81.2772 117.489L74.9723 128.224L90.6064 142.599L93.481 159.705L123.112 161.364L148.011 170.39L167.191 166.801L129.482 138.921Z" fill="url(#paint25_linear)"/>
<path d="M129.482 138.921L81.2772 117.489L74.9723 128.224L90.6064 142.599L93.481 159.705L123.112 161.364L148.011 170.39L167.191 166.801L129.482 138.921Z" fill="url(#paint26_linear)"/>
<mask id="mask0" style="mask-type:alpha" maskUnits="userSpaceOnUse" x="74" y="117" width="94" height="54">
<path d="M129.482 138.921L81.2772 117.489L74.9723 128.224L90.6064 142.599L93.481 159.705L123.112 161.364L148.011 170.39L167.191 166.801L129.482 138.921Z" fill="url(#paint27_linear)"/>
</mask>
<g mask="url(#mask0)">
<path opacity="0.5" d="M139.754 130.375L172.92 174.85L113.214 204.636L90.5546 160.651L139.754 130.375Z" fill="#06391F"/>
</g>
<path fill-rule="evenodd" clip-rule="evenodd" d="M134.077 129.902L126.508 138.89C121.64 138.14 122.104 138.343 118.076 133.923L124.615 124.698L126.508 124.225L132.184 127.064L134.077 129.902Z" fill="#1E5358"/>
<path fill-rule="evenodd" clip-rule="evenodd" d="M117.993 140.011C117.993 138.343 117.993 136.175 118.161 133.84C118.161 133.256 118.161 133.256 118.161 133.84C120.762 136.926 123.876 137.416 126.981 138.417C126.813 140.669 126.981 143.372 126.981 145.04C122.281 143.539 120.358 142.675 117.993 140.011Z" fill="#070E0A"/>
<path fill-rule="evenodd" clip-rule="evenodd" d="M126.508 145.04C126.508 143.372 125.394 141.225 125.562 138.89L134.021 129.902V142.202L126.508 145.04Z" fill="url(#paint28_linear)"/>
<path fill-rule="evenodd" clip-rule="evenodd" d="M126.508 145.04C126.508 143.372 125.394 141.225 125.562 138.89L134.021 129.902V142.202L126.508 145.04Z" fill="#011618"/>
<path d="M144.738 172.076L145.15 175.128C145.182 175.363 144.889 175.561 144.643 175.515L138.805 173.115C138.548 172.99 138.36 172.776 138.317 172.463L137.906 169.411C137.874 169.176 138.167 168.977 138.413 169.024L144.251 171.424C144.518 171.627 144.707 171.841 144.738 172.076Z" fill="url(#paint29_linear)"/>
<path d="M139.38 172.638C139.123 172.514 138.935 172.3 138.892 171.987L138.502 169.091L144.251 171.424C144.508 171.549 144.696 171.762 144.738 172.075L145.129 174.971L139.38 172.638Z" fill="#010E0F"/>
<path d="M133.385 167.345L133.796 170.397C133.828 170.632 133.535 170.831 133.289 170.784L127.451 168.384C127.195 168.259 127.006 168.046 126.964 167.733L126.552 164.68C126.521 164.446 126.814 164.247 127.06 164.293L132.898 166.693C133.165 166.897 133.353 167.11 133.385 167.345Z" fill="url(#paint30_linear)"/>
<path d="M128.026 167.908C127.77 167.783 127.581 167.57 127.539 167.256L127.149 164.361L132.897 166.693C133.154 166.818 133.343 167.032 133.385 167.345L133.775 170.24L128.026 167.908Z" fill="#010E0F"/>
<path d="M89.159 143.762L88.623 145.987C88.5818 146.158 88.3255 146.217 88.1676 146.118L84.7705 142.886C84.6264 142.73 84.5532 142.532 84.6082 142.304L85.1441 140.079C85.1854 139.908 85.4417 139.849 85.5995 139.948L88.9966 143.18C89.127 143.392 89.2002 143.591 89.159 143.762Z" fill="url(#paint31_linear)"/>
<path d="M85.297 142.711C85.1529 142.555 85.0797 142.357 85.1347 142.129L85.6432 140.018L88.9969 143.18C89.141 143.335 89.2142 143.534 89.1592 143.762L88.6507 145.872L85.297 142.711Z" fill="#010E0F"/>
<path d="M83.1883 137.991L82.7215 139.928C82.6856 140.077 82.4624 140.129 82.3249 140.043L79.3663 137.228C79.2408 137.093 79.1771 136.92 79.2249 136.721L79.6917 134.784C79.7276 134.635 79.9508 134.584 80.0883 134.669L83.0469 137.484C83.1604 137.669 83.2242 137.842 83.1883 137.991Z" fill="url(#paint32_linear)"/>
<path d="M79.8246 137.076C79.6991 136.94 79.6354 136.767 79.6833 136.568L80.1261 134.731L83.0468 137.484C83.1723 137.619 83.2361 137.792 83.1882 137.991L82.7454 139.829L79.8246 137.076Z" fill="#010E0F"/>
<defs>
<filter id="filter0_f" x="0.775711" y="42.5824" width="344.701" height="226.319" filterUnits="userSpaceOnUse" color-interpolation-filters="sRGB">
<feFlood flood-opacity="0" result="BackgroundImageFix"/>
<feBlend mode="normal" in="SourceGraphic" in2="BackgroundImageFix" result="shape"/>
<feGaussianBlur stdDeviation="16.1139" result="effect1_foregroundBlur"/>
</filter>
<filter id="filter1_f" x="71.9624" y="28.7694" width="231.299" height="177.304" filterUnits="userSpaceOnUse" color-interpolation-filters="sRGB">
<feFlood flood-opacity="0" result="BackgroundImageFix"/>
<feBlend mode="normal" in="SourceGraphic" in2="BackgroundImageFix" result="shape"/>
<feGaussianBlur stdDeviation="22.5" result="effect1_foregroundBlur"/>
</filter>
<filter id="filter2_f" x="129.741" y="47.3344" width="124.851" height="83.7852" filterUnits="userSpaceOnUse" color-interpolation-filters="sRGB">
<feFlood flood-opacity="0" result="BackgroundImageFix"/>
<feBlend mode="normal" in="SourceGraphic" in2="BackgroundImageFix" result="shape"/>
<feGaussianBlur stdDeviation="6.5" result="effect1_foregroundBlur"/>
</filter>
<linearGradient id="paint0_linear" x1="39.2289" y1="0" x2="39.2289" y2="245.173" gradientUnits="userSpaceOnUse">
<stop offset="0.377547" stop-color="#000606"/>
<stop offset="1" stop-color="#000606" stop-opacity="0"/>
</linearGradient>
<linearGradient id="paint1_linear" x1="171.19" y1="104.114" x2="142.599" y2="137.211" gradientUnits="userSpaceOnUse">
<stop offset="0.356822" stop-color="#135836"/>
<stop offset="0.986026" stop-color="#3DAB75"/>
</linearGradient>
<linearGradient id="paint2_linear" x1="244.37" y1="87.9344" x2="213.199" y2="138.941" gradientUnits="userSpaceOnUse">
<stop stop-color="#3DAB75"/>
<stop offset="1" stop-color="#135836"/>
</linearGradient>
<linearGradient id="paint3_linear" x1="162.414" y1="94.235" x2="145.475" y2="122.65" gradientUnits="userSpaceOnUse">
<stop stop-color="#7CF29C"/>
<stop offset="1" stop-color="#126B2A"/>
</linearGradient>
<linearGradient id="paint4_linear" x1="242.627" y1="58.5469" x2="195.084" y2="146.764" gradientUnits="userSpaceOnUse">
<stop stop-color="#3DAB75"/>
<stop offset="1" stop-color="#135836"/>
</linearGradient>
<linearGradient id="paint5_linear" x1="174.298" y1="101.965" x2="153.531" y2="142.3" gradientUnits="userSpaceOnUse">
<stop stop-color="#3DAB75"/>
<stop offset="1" stop-color="#135836"/>
</linearGradient>
<linearGradient id="paint6_linear" x1="192.167" y1="60.3344" x2="192.167" y2="118.12" gradientUnits="userSpaceOnUse">
<stop offset="0.0191423" stop-color="#127C48"/>
<stop offset="0.982059" stop-color="#04391F"/>
</linearGradient>
<linearGradient id="paint7_linear" x1="191.973" y1="30.864" x2="153.86" y2="89.6249" gradientUnits="userSpaceOnUse">
<stop stop-color="#7CF29C"/>
<stop offset="1" stop-color="#126B2A"/>
</linearGradient>
<linearGradient id="paint8_linear" x1="175.566" y1="41.0569" x2="132.952" y2="76.0892" gradientUnits="userSpaceOnUse">
<stop stop-color="#3DAB75"/>
<stop offset="1" stop-color="#135836"/>
</linearGradient>
<linearGradient id="paint9_linear" x1="168.618" y1="95.7157" x2="165.831" y2="91.0486" gradientUnits="userSpaceOnUse">
<stop stop-color="#B2B2B2"/>
<stop offset="1" stop-color="white"/>
</linearGradient>
<linearGradient id="paint10_linear" x1="166.154" y1="91.4947" x2="168.249" y2="95.2976" gradientUnits="userSpaceOnUse">
<stop stop-color="#B2B2B2"/>
<stop offset="1" stop-color="white"/>
</linearGradient>
<linearGradient id="paint11_linear" x1="168.618" y1="101.685" x2="165.832" y2="97.0178" gradientUnits="userSpaceOnUse">
<stop stop-color="#B2B2B2"/>
<stop offset="1" stop-color="white"/>
</linearGradient>
<linearGradient id="paint12_linear" x1="166.154" y1="97.4638" x2="168.249" y2="101.266" gradientUnits="userSpaceOnUse">
<stop stop-color="#B2B2B2"/>
<stop offset="1" stop-color="white"/>
</linearGradient>
<linearGradient id="paint13_linear" x1="144.252" y1="81.6929" x2="141.465" y2="77.0258" gradientUnits="userSpaceOnUse">
<stop stop-color="#B2B2B2"/>
<stop offset="1" stop-color="white"/>
</linearGradient>
<linearGradient id="paint14_linear" x1="141.755" y1="77.4906" x2="143.917" y2="81.2578" gradientUnits="userSpaceOnUse">
<stop stop-color="#B2B2B2"/>
<stop offset="1" stop-color="white"/>
</linearGradient>
<linearGradient id="paint15_linear" x1="144.252" y1="87.6617" x2="141.465" y2="82.995" gradientUnits="userSpaceOnUse">
<stop stop-color="#B2B2B2"/>
<stop offset="1" stop-color="white"/>
</linearGradient>
<linearGradient id="paint16_linear" x1="141.755" y1="83.4595" x2="143.916" y2="87.2269" gradientUnits="userSpaceOnUse">
<stop stop-color="#B2B2B2"/>
<stop offset="1" stop-color="white"/>
</linearGradient>
<linearGradient id="paint17_linear" x1="173.656" y1="60.1419" x2="173.656" y2="104.251" gradientUnits="userSpaceOnUse">
<stop offset="0.0191423" stop-color="#127C48"/>
<stop offset="0.982059" stop-color="#04391F"/>
</linearGradient>
<linearGradient id="paint18_linear" x1="240.799" y1="28.939" x2="201.837" y2="42.9149" gradientUnits="userSpaceOnUse">
<stop stop-color="#3DAB75"/>
<stop offset="1" stop-color="#135836"/>
</linearGradient>
<linearGradient id="paint19_linear" x1="207.579" y1="-11.7277" x2="150.762" y2="52.2552" gradientUnits="userSpaceOnUse">
<stop stop-color="#63C27D"/>
<stop offset="1" stop-color="#3FB05E"/>
</linearGradient>
<linearGradient id="paint20_linear" x1="210.65" y1="-8.65652" x2="155.881" y2="52.2552" gradientUnits="userSpaceOnUse">
<stop stop-color="white"/>
<stop offset="1" stop-color="#B7DFC1"/>
</linearGradient>
<linearGradient id="paint21_linear" x1="203.578" y1="2.26983" x2="180.527" y2="39.3915" gradientUnits="userSpaceOnUse">
<stop stop-color="#51AA69"/>
<stop offset="1" stop-color="white"/>
</linearGradient>
<linearGradient id="paint22_linear" x1="153.983" y1="122.004" x2="117.603" y2="148.919" gradientUnits="userSpaceOnUse">
<stop stop-color="#02170B"/>
<stop offset="0.962135" stop-color="#175231"/>
</linearGradient>
<linearGradient id="paint23_linear" x1="130.124" y1="146.314" x2="112.126" y2="177.491" gradientUnits="userSpaceOnUse">
<stop offset="0.0191423" stop-color="#127C48"/>
<stop offset="0.982059" stop-color="#04391F"/>
</linearGradient>
<linearGradient id="paint24_linear" x1="157.493" y1="166.801" x2="157.493" y2="178.155" gradientUnits="userSpaceOnUse">
<stop stop-color="#064124"/>
<stop offset="1" stop-color="#063D22"/>
</linearGradient>
<linearGradient id="paint25_linear" x1="129.482" y1="138.921" x2="111.484" y2="170.098" gradientUnits="userSpaceOnUse">
<stop stop-color="#85DD9E"/>
<stop offset="1" stop-color="#85DD9E"/>
</linearGradient>
<linearGradient id="paint26_linear" x1="133.13" y1="134.633" x2="120.263" y2="177.07" gradientUnits="userSpaceOnUse">
<stop stop-color="#1B6741"/>
<stop offset="1" stop-color="#1B6741" stop-opacity="0"/>
</linearGradient>
<linearGradient id="paint27_linear" x1="133.13" y1="134.633" x2="120.263" y2="177.07" gradientUnits="userSpaceOnUse">
<stop stop-color="#1B6741"/>
<stop offset="1" stop-color="#1B6741" stop-opacity="0"/>
</linearGradient>
<linearGradient id="paint28_linear" x1="131.646" y1="129.902" x2="131.646" y2="145.513" gradientUnits="userSpaceOnUse">
<stop offset="0.0191423" stop-color="#127C48"/>
<stop offset="0.982059" stop-color="#04391F"/>
</linearGradient>
<linearGradient id="paint29_linear" x1="141.04" y1="168.649" x2="145.138" y2="174.372" gradientUnits="userSpaceOnUse">
<stop stop-color="#06181A"/>
<stop offset="1" stop-color="#06181A" stop-opacity="0"/>
</linearGradient>
<linearGradient id="paint30_linear" x1="129.686" y1="163.918" x2="133.784" y2="169.641" gradientUnits="userSpaceOnUse">
<stop stop-color="#06181A"/>
<stop offset="1" stop-color="#06181A" stop-opacity="0"/>
</linearGradient>
<linearGradient id="paint31_linear" x1="87.5193" y1="140.395" x2="88.8177" y2="145.46" gradientUnits="userSpaceOnUse">
<stop stop-color="#06181A"/>
<stop offset="1" stop-color="#06181A" stop-opacity="0"/>
</linearGradient>
<linearGradient id="paint32_linear" x1="81.7603" y1="135.058" x2="82.8911" y2="139.47" gradientUnits="userSpaceOnUse">
<stop stop-color="#06181A"/>
<stop offset="1" stop-color="#06181A" stop-opacity="0"/>
</linearGradient>
</defs>
</svg>
