<svg width="20" height="20" viewBox="0 0 20 20" fill="none" xmlns="http://www.w3.org/2000/svg">
<path d="M14.2113 13.8381C13.2092 14.8402 12.2071 15.8422 11.1394 16.7786C10.4942 17.3582 9.72058 17.4753 9.27098 17.137C4.54092 12.741 7.19017 15.3902 2.72848 10.5945C2.33454 10.2006 2.5073 9.37126 3.08685 8.72606C4.21311 7.40283 5.46071 6.08958 6.75111 4.93049C7.30782 4.37378 7.89735 3.84991 8.51971 3.35886C9.16491 2.77931 9.99422 2.60655 10.3882 3.00049C15.1182 7.39652 12.469 4.74727 16.9307 9.54298C17.3246 9.93692 17.1518 10.7662 16.5723 11.4114C15.7372 12.2465 14.9907 13.0587 14.2113 13.8381Z" fill="url(#paint0_linear)"/>
<path d="M14.1111 13.6114C14 13.7226 13.7997 13.8556 13.6549 13.933C13.3654 14.0879 12.9414 14.1083 12.9734 13.807C12.5173 14.1286 12.0611 14.4502 11.6942 14.7499C12.1386 14.3055 12.583 13.861 13.0274 13.4166C13.3607 13.0833 13.6941 12.75 14.0274 12.4167C14.194 12.25 14.3607 12.0833 14.5274 11.9167C14.5829 11.8611 14.6721 11.8392 14.6385 11.8056C14.8607 11.5834 14.7144 11.3259 14.669 11.1695C13.9929 9.82679 14.6835 10.8507 13.6405 9.80767C10.2775 6.77803 14.424 9.14679 10.7277 6.45047C10.3021 6.13593 9.78722 5.84329 9.18474 5.90745L9.09555 5.92936C8.79431 5.96143 8.47116 6.08271 8.12611 6.29318C8.03691 6.31509 7.98136 6.37064 7.9258 6.42619C7.87025 6.48175 7.8147 6.5373 7.7255 6.55921C7.58075 6.63667 7.38045 6.76968 7.2357 6.84714C6.89064 7.05761 6.57923 7.30173 6.21227 7.6014C6.04561 7.76806 5.93451 7.87917 5.76785 8.04583C5.7123 8.10138 5.60119 8.21248 5.54564 8.26804C5.49009 8.32359 5.43453 8.37914 5.37898 8.43469C5.85548 7.68903 5.97364 6.58503 6.48378 5.87302C6.59489 5.76191 6.67235 5.61716 6.71616 5.43877C6.73807 5.34957 6.75998 5.26037 6.75998 5.26037C6.75998 5.26037 6.72633 5.22672 6.74824 5.13753C6.7146 5.10388 6.7146 5.10388 6.68095 5.07024C6.64731 5.03659 6.66921 4.94739 6.69112 4.8582C7.24665 4.30267 7.83582 3.78079 8.45864 3.29255C9.10336 2.71511 9.93979 2.55159 10.3435 2.95533C15.1869 7.46536 12.1033 4.38177 16.6806 9.29241C17.0843 9.69615 16.9208 10.5326 16.3434 11.1773C15.6329 12.0223 14.8888 12.8337 14.1111 13.6114Z" fill="#FFDF80"/>
<path d="M10.12 15.7573C9.95297 15.9243 9.80069 15.9947 9.75977 15.9538C8.85843 15.1639 7.92982 14.3466 7.08417 13.501L6.79774 13.2145C6.41583 12.8326 6.03392 12.4507 5.65201 12.0688C5.5429 11.9597 5.44742 11.8642 5.3383 11.7551C4.86092 11.2777 4.43922 10.7446 4.03115 10.2252C3.99023 10.1843 4.06068 10.032 4.22773 9.86497C5.73228 8.2513 7.34707 6.6365 9.05847 5.00695C9.16983 4.89558 9.2812 4.78422 9.4062 4.68649C9.57325 4.51944 9.72553 4.449 9.76645 4.48992C10.8326 5.33332 11.7874 6.28809 12.7421 7.24286L12.7694 7.27014C13.3559 7.85664 13.9424 8.44314 14.4732 9.08532C14.8415 9.45359 15.1404 9.8639 15.453 10.2879C15.4939 10.3288 15.4099 10.4674 15.2565 10.6481C13.6689 12.2902 11.8871 14.072 10.12 15.7573Z" fill="url(#paint1_linear)"/>
<path d="M15.2108 10.3808C14.2626 11.3289 13.3569 12.2079 12.3953 13.1427C12.228 13.31 12.0764 13.3814 12.0362 13.3413C11.015 12.5432 10.0787 11.6068 9.15564 10.6838C8.23263 9.76078 7.35202 8.76862 6.4714 7.77646C6.43127 7.73633 6.51606 7.59803 6.67001 7.41733C7.42408 6.60976 8.19153 5.81555 9.02812 4.97896C9.13967 4.86741 9.25122 4.75586 9.37614 4.6577C9.54346 4.49038 9.69514 4.41896 9.73527 4.45909C10.7832 5.28393 11.7196 6.22032 12.656 7.15671C13.5924 8.0931 14.473 9.08526 15.3536 10.0774C15.4495 10.0618 15.3781 10.2135 15.2108 10.3808Z" fill="url(#paint2_linear)"/>
<g style="mix-blend-mode:color">
<rect x="9.89941" width="14" height="14" rx="6.38002" transform="rotate(45 9.89941 0)" fill="#459C5D"/>
</g>
<defs>
<linearGradient id="paint0_linear" x1="22.4656" y1="4.63833" x2="11.8352" y2="15.2688" gradientUnits="userSpaceOnUse">
<stop stop-color="#FFCA2B"/>
<stop offset="1" stop-color="#D15B24"/>
</linearGradient>
<linearGradient id="paint1_linear" x1="0.381317" y1="19.601" x2="10.6673" y2="9.31496" gradientUnits="userSpaceOnUse">
<stop stop-color="#FFCE3B"/>
<stop offset="1" stop-color="#CC6923"/>
</linearGradient>
<linearGradient id="paint2_linear" x1="8.41824" y1="11.3923" x2="14.2544" y2="5.55609" gradientUnits="userSpaceOnUse">
<stop stop-color="#FFCE3B"/>
<stop offset="1" stop-color="#CC6923"/>
</linearGradient>
</defs>
</svg>
