<svg id="eAUpb7B3i6x1" xmlns="http://www.w3.org/2000/svg" xmlns:xlink="http://www.w3.org/1999/xlink" viewBox="0 0 1538 883" shape-rendering="geometricPrecision" text-rendering="geometricPrecision"><style><![CDATA[#eAUpb7B3i6x17_ts {animation: eAUpb7B3i6x17_ts__ts 3000ms linear infinite normal forwards}@keyframes eAUpb7B3i6x17_ts__ts { 0% {transform: translate(454.5px,592.5px) scale(0.272158,0.272158)} 6.666667% {transform: translate(454.5px,592.5px) scale(0.272158,0.272158)} 23.333333% {transform: translate(454.5px,592.5px) scale(0.522559,0.522559)} 30% {transform: translate(454.5px,592.5px) scale(0.517034,0.517034);animation-timing-function: cubic-bezier(0.42,0,1,1)} 40% {transform: translate(454.5px,592.5px) scale(0.163038,0.163038)} 100% {transform: translate(454.5px,592.5px) scale(0.163038,0.163038)}} #eAUpb7B3i6x17 {animation: eAUpb7B3i6x17_c_o 3000ms linear infinite normal forwards}@keyframes eAUpb7B3i6x17_c_o { 0% {opacity: 0} 6.666667% {opacity: 0} 23.333333% {opacity: 0.3} 30% {opacity: 0.3;animation-timing-function: cubic-bezier(0.42,0,1,1)} 40% {opacity: 0} 100% {opacity: 0}} #eAUpb7B3i6x18_ts {animation: eAUpb7B3i6x18_ts__ts 3000ms linear infinite normal forwards}@keyframes eAUpb7B3i6x18_ts__ts { 0% {transform: translate(367.31808px,412.68729px) scale(0.272158,0.272158)} 13.333333% {transform: translate(367.31808px,412.68729px) scale(0.272158,0.272158)} 30% {transform: translate(367.31808px,412.68729px) scale(0.522559,0.522559)} 36.666667% {transform: translate(367.31808px,412.68729px) scale(0.517034,0.517034);animation-timing-function: cubic-bezier(0.42,0,1,1)} 46.666667% {transform: translate(367.31808px,412.68729px) scale(0.163038,0.163038)} 100% {transform: translate(367.31808px,412.68729px) scale(0.163038,0.163038)}} #eAUpb7B3i6x18 {animation: eAUpb7B3i6x18_c_o 3000ms linear infinite normal forwards}@keyframes eAUpb7B3i6x18_c_o { 0% {opacity: 0} 13.333333% {opacity: 0} 30% {opacity: 0.3} 36.666667% {opacity: 0.3;animation-timing-function: cubic-bezier(0.42,0,1,1)} 46.666667% {opacity: 0} 100% {opacity: 0}} #eAUpb7B3i6x19_ts {animation: eAUpb7B3i6x19_ts__ts 3000ms linear infinite normal forwards}@keyframes eAUpb7B3i6x19_ts__ts { 0% {transform: translate(367.318095px,412.687259px) scale(0.755828,0.755828)} 6.666667% {transform: translate(367.318095px,412.687259px) scale(0.755828,0.755828)} 23.333333% {transform: translate(367.318095px,412.687259px) scale(1.581183,1.581183)} 30% {transform: translate(367.318095px,412.687259px) scale(1.605515,1.605515);animation-timing-function: cubic-bezier(0.42,0,1,1)} 40% {transform: translate(367.318095px,412.687259px) scale(0.935806,0.935807)} 100% {transform: translate(367.318095px,412.687259px) scale(0.935806,0.935807)}} #eAUpb7B3i6x19 {animation: eAUpb7B3i6x19_c_o 3000ms linear infinite normal forwards}@keyframes eAUpb7B3i6x19_c_o { 0% {opacity: 0} 6.666667% {opacity: 0} 23.333333% {opacity: 0.19} 30% {opacity: 0.19;animation-timing-function: cubic-bezier(0.42,0,1,1)} 40% {opacity: 0} 100% {opacity: 0}} #eAUpb7B3i6x20_ts {animation: eAUpb7B3i6x20_ts__ts 3000ms linear infinite normal forwards}@keyframes eAUpb7B3i6x20_ts__ts { 0% {transform: translate(367.318095px,412.68729px) scale(0.457254,0.457254)} 6.666667% {transform: translate(367.318095px,412.68729px) scale(0.457254,0.457254)} 56.666667% {transform: translate(367.318095px,412.68729px) scale(0.489212,0.489212)} 100% {transform: translate(367.318095px,412.68729px) scale(0.489212,0.489212)}} #eAUpb7B3i6x20 {animation: eAUpb7B3i6x20_c_o 3000ms linear infinite normal forwards}@keyframes eAUpb7B3i6x20_c_o { 0% {opacity: 1} 40% {opacity: 1} 56.666667% {opacity: 1} 100% {opacity: 1}} #eAUpb7B3i6x21_ts {animation: eAUpb7B3i6x21_ts__ts 3000ms linear infinite normal forwards}@keyframes eAUpb7B3i6x21_ts__ts { 0% {transform: translate(650.65932px,527.11356px) scale(0.272158,0.272158)} 26.666667% {transform: translate(650.65932px,527.11356px) scale(0.272158,0.272158)} 43.333333% {transform: translate(650.65932px,527.11356px) scale(0.522559,0.522559)} 50% {transform: translate(650.65932px,527.11356px) scale(0.517034,0.517034);animation-timing-function: cubic-bezier(0.42,0,1,1)} 60% {transform: translate(650.65932px,527.11356px) scale(0.163038,0.163038)} 100% {transform: translate(650.65932px,527.11356px) scale(0.163038,0.163038)}} #eAUpb7B3i6x21 {animation: eAUpb7B3i6x21_c_o 3000ms linear infinite normal forwards}@keyframes eAUpb7B3i6x21_c_o { 0% {opacity: 0} 26.666667% {opacity: 0} 43.333333% {opacity: 0.3} 50% {opacity: 0.3;animation-timing-function: cubic-bezier(0.42,0,1,1)} 60% {opacity: 0} 100% {opacity: 0}} #eAUpb7B3i6x22_ts {animation: eAUpb7B3i6x22_ts__ts 3000ms linear infinite normal forwards}@keyframes eAUpb7B3i6x22_ts__ts { 0% {transform: translate(901.30734px,608.84661px) scale(0.272158,0.272158)} 36.666667% {transform: translate(901.30734px,608.84661px) scale(0.272158,0.272158)} 53.333333% {transform: translate(901.30734px,608.84661px) scale(0.522559,0.522559)} 60% {transform: translate(901.30734px,608.84661px) scale(0.517034,0.517034);animation-timing-function: cubic-bezier(0.42,0,1,1)} 70% {transform: translate(901.30734px,608.84661px) scale(0.163038,0.163038)} 100% {transform: translate(901.30734px,608.84661px) scale(0.163038,0.163038)}} #eAUpb7B3i6x22 {animation: eAUpb7B3i6x22_c_o 3000ms linear infinite normal forwards}@keyframes eAUpb7B3i6x22_c_o { 0% {opacity: 0} 36.666667% {opacity: 0} 53.333333% {opacity: 0.3} 60% {opacity: 0.3;animation-timing-function: cubic-bezier(0.42,0,1,1)} 70% {opacity: 0} 100% {opacity: 0}} #eAUpb7B3i6x23_ts {animation: eAUpb7B3i6x23_ts__ts 3000ms linear infinite normal forwards}@keyframes eAUpb7B3i6x23_ts__ts { 0% {transform: translate(901.307355px,608.846579px) scale(0.755828,0.755828)} 30% {transform: translate(901.307355px,608.846579px) scale(0.755828,0.755828)} 46.666667% {transform: translate(901.307355px,608.846579px) scale(1.581183,1.581183)} 53.333333% {transform: translate(901.307355px,608.846579px) scale(1.605515,1.605515);animation-timing-function: cubic-bezier(0.42,0,1,1)} 63.333333% {transform: translate(901.307355px,608.846579px) scale(0.935806,0.935807)} 100% {transform: translate(901.307355px,608.846579px) scale(0.935806,0.935807)}} #eAUpb7B3i6x23 {animation: eAUpb7B3i6x23_c_o 3000ms linear infinite normal forwards}@keyframes eAUpb7B3i6x23_c_o { 0% {opacity: 0} 30% {opacity: 0} 46.666667% {opacity: 0.19} 53.333333% {opacity: 0.19;animation-timing-function: cubic-bezier(0.42,0,1,1)} 63.333333% {opacity: 0} 100% {opacity: 0}} #eAUpb7B3i6x24_ts {animation: eAUpb7B3i6x24_ts__ts 3000ms linear infinite normal forwards}@keyframes eAUpb7B3i6x24_ts__ts { 0% {transform: translate(901.307355px,608.84661px) scale(0.457254,0.457254)} 30% {transform: translate(901.307355px,608.84661px) scale(0.457254,0.457254)} 80% {transform: translate(901.307355px,608.84661px) scale(0.489212,0.489212)} 100% {transform: translate(901.307355px,608.84661px) scale(0.489212,0.489212)}} #eAUpb7B3i6x24 {animation: eAUpb7B3i6x24_c_o 3000ms linear infinite normal forwards}@keyframes eAUpb7B3i6x24_c_o { 0% {opacity: 1} 63.333333% {opacity: 1} 80% {opacity: 1} 100% {opacity: 1}} #eAUpb7B3i6x25_ts {animation: eAUpb7B3i6x25_ts__ts 3000ms linear infinite normal forwards}@keyframes eAUpb7B3i6x25_ts__ts { 0% {transform: translate(726.9435px,423.58503px) scale(0.272158,0.272158)} 6.666667% {transform: translate(726.9435px,423.58503px) scale(0.272158,0.272158)} 23.333333% {transform: translate(726.9435px,423.58503px) scale(0.522559,0.522559)} 30% {transform: translate(726.9435px,423.58503px) scale(0.517034,0.517034);animation-timing-function: cubic-bezier(0.42,0,1,1)} 40% {transform: translate(726.9435px,423.58503px) scale(0.163038,0.163038)} 100% {transform: translate(726.9435px,423.58503px) scale(0.163038,0.163038)}} #eAUpb7B3i6x25 {animation: eAUpb7B3i6x25_c_o 3000ms linear infinite normal forwards}@keyframes eAUpb7B3i6x25_c_o { 0% {opacity: 0} 6.666667% {opacity: 0} 23.333333% {opacity: 0.3} 30% {opacity: 0.3;animation-timing-function: cubic-bezier(0.42,0,1,1)} 40% {opacity: 0} 100% {opacity: 0}} #eAUpb7B3i6x26_ts {animation: eAUpb7B3i6x26_ts__ts 3000ms linear infinite normal forwards}@keyframes eAUpb7B3i6x26_ts__ts { 0% {transform: translate(601.61949px,488.97147px) scale(0.272158,0.272158)} 20% {transform: translate(601.61949px,488.97147px) scale(0.272158,0.272158)} 36.666667% {transform: translate(601.61949px,488.97147px) scale(0.522559,0.522559)} 43.333333% {transform: translate(601.61949px,488.97147px) scale(0.517034,0.517034);animation-timing-function: cubic-bezier(0.42,0,1,1)} 53.333333% {transform: translate(601.61949px,488.97147px) scale(0.163038,0.163038)} 100% {transform: translate(601.61949px,488.97147px) scale(0.163038,0.163038)}} #eAUpb7B3i6x26 {animation: eAUpb7B3i6x26_c_o 3000ms linear infinite normal forwards}@keyframes eAUpb7B3i6x26_c_o { 0% {opacity: 0} 20% {opacity: 0} 36.666667% {opacity: 0.3} 43.333333% {opacity: 0.3;animation-timing-function: cubic-bezier(0.42,0,1,1)} 53.333333% {opacity: 0} 100% {opacity: 0}} #eAUpb7B3i6x27_ts {animation: eAUpb7B3i6x27_ts__ts 3000ms linear infinite normal forwards}@keyframes eAUpb7B3i6x27_ts__ts { 0% {transform: translate(601.619505px,488.971439px) scale(0.755828,0.755828)} 13.333333% {transform: translate(601.619505px,488.971439px) scale(0.755828,0.755828)} 30% {transform: translate(601.619505px,488.971439px) scale(1.581183,1.581183)} 36.666667% {transform: translate(601.619505px,488.971439px) scale(1.605515,1.605515);animation-timing-function: cubic-bezier(0.42,0,1,1)} 46.666667% {transform: translate(601.619505px,488.971439px) scale(0.935806,0.935807)} 100% {transform: translate(601.619505px,488.971439px) scale(0.935806,0.935807)}} #eAUpb7B3i6x27 {animation: eAUpb7B3i6x27_c_o 3000ms linear infinite normal forwards}@keyframes eAUpb7B3i6x27_c_o { 0% {opacity: 0} 13.333333% {opacity: 0} 30% {opacity: 0.19} 36.666667% {opacity: 0.19;animation-timing-function: cubic-bezier(0.42,0,1,1)} 46.666667% {opacity: 0} 100% {opacity: 0}} #eAUpb7B3i6x28_ts {animation: eAUpb7B3i6x28_ts__ts 3000ms linear infinite normal forwards}@keyframes eAUpb7B3i6x28_ts__ts { 0% {transform: translate(601.619505px,488.97147px) scale(0.457254,0.457254)} 13.333333% {transform: translate(601.619505px,488.97147px) scale(0.457254,0.457254)} 63.333333% {transform: translate(601.619505px,488.97147px) scale(0.489212,0.489212)} 100% {transform: translate(601.619505px,488.97147px) scale(0.489212,0.489212)}} #eAUpb7B3i6x28 {animation: eAUpb7B3i6x28_c_o 3000ms linear infinite normal forwards}@keyframes eAUpb7B3i6x28_c_o { 0% {opacity: 1} 46.666667% {opacity: 1} 63.333333% {opacity: 1} 100% {opacity: 1}} #eAUpb7B3i6x29_ts {animation: eAUpb7B3i6x29_ts__ts 3000ms linear infinite normal forwards}@keyframes eAUpb7B3i6x29_ts__ts { 0% {transform: translate(726.943515px,423.584999px) scale(0.755828,0.755828)} 16.666667% {transform: translate(726.943515px,423.584999px) scale(1.581183,1.581183)} 23.333333% {transform: translate(726.943515px,423.584999px) scale(1.605515,1.605515);animation-timing-function: cubic-bezier(0.42,0,1,1)} 33.333333% {transform: translate(726.943515px,423.584999px) scale(0.935806,0.935807)} 100% {transform: translate(726.943515px,423.584999px) scale(0.935806,0.935807)}} #eAUpb7B3i6x29 {animation: eAUpb7B3i6x29_c_o 3000ms linear infinite normal forwards}@keyframes eAUpb7B3i6x29_c_o { 0% {opacity: 0} 16.666667% {opacity: 0.19} 23.333333% {opacity: 0.19;animation-timing-function: cubic-bezier(0.42,0,1,1)} 33.333333% {opacity: 0} 100% {opacity: 0}} #eAUpb7B3i6x30_ts {animation: eAUpb7B3i6x30_ts__ts 3000ms linear infinite normal forwards}@keyframes eAUpb7B3i6x30_ts__ts { 0% {transform: translate(726.943515px,423.58503px) scale(0.457254,0.457254)} 50% {transform: translate(726.943515px,423.58503px) scale(0.489212,0.489212)} 100% {transform: translate(726.943515px,423.58503px) scale(0.489212,0.489212)}} #eAUpb7B3i6x30 {animation: eAUpb7B3i6x30_c_o 3000ms linear infinite normal forwards}@keyframes eAUpb7B3i6x30_c_o { 0% {opacity: 1} 33.333333% {opacity: 1} 50% {opacity: 1} 100% {opacity: 1}} #eAUpb7B3i6x31_ts {animation: eAUpb7B3i6x31_ts__ts 3000ms linear infinite normal forwards}@keyframes eAUpb7B3i6x31_ts__ts { 0% {transform: translate(361.86921px,472.62486px) scale(0.272158,0.272158)} 36.666667% {transform: translate(361.86921px,472.62486px) scale(0.272158,0.272158)} 53.333333% {transform: translate(361.86921px,472.62486px) scale(0.522559,0.522559)} 60% {transform: translate(361.86921px,472.62486px) scale(0.517034,0.517034);animation-timing-function: cubic-bezier(0.42,0,1,1)} 70% {transform: translate(361.86921px,472.62486px) scale(0.163038,0.163038)} 100% {transform: translate(361.86921px,472.62486px) scale(0.163038,0.163038)}} #eAUpb7B3i6x31 {animation: eAUpb7B3i6x31_c_o 3000ms linear infinite normal forwards}@keyframes eAUpb7B3i6x31_c_o { 0% {opacity: 0} 36.666667% {opacity: 0} 53.333333% {opacity: 0.3} 60% {opacity: 0.3;animation-timing-function: cubic-bezier(0.42,0,1,1)} 70% {opacity: 0} 100% {opacity: 0}} #eAUpb7B3i6x32_ts {animation: eAUpb7B3i6x32_ts__ts 3000ms linear infinite normal forwards}@keyframes eAUpb7B3i6x32_ts__ts { 0% {transform: translate(808.67655px,401.78955px) scale(0.272158,0.272158)} 23.333333% {transform: translate(808.67655px,401.78955px) scale(0.272158,0.272158)} 40% {transform: translate(808.67655px,401.78955px) scale(0.522559,0.522559)} 46.666667% {transform: translate(808.67655px,401.78955px) scale(0.517034,0.517034);animation-timing-function: cubic-bezier(0.42,0,1,1)} 56.666667% {transform: translate(808.67655px,401.78955px) scale(0.163038,0.163038)} 100% {transform: translate(808.67655px,401.78955px) scale(0.163038,0.163038)}} #eAUpb7B3i6x32 {animation: eAUpb7B3i6x32_c_o 3000ms linear infinite normal forwards}@keyframes eAUpb7B3i6x32_c_o { 0% {opacity: 0} 23.333333% {opacity: 0} 40% {opacity: 0.3} 46.666667% {opacity: 0.3;animation-timing-function: cubic-bezier(0.42,0,1,1)} 56.666667% {opacity: 0} 100% {opacity: 0}} #eAUpb7B3i6x33_ts {animation: eAUpb7B3i6x33_ts__ts 3000ms linear infinite normal forwards}@keyframes eAUpb7B3i6x33_ts__ts { 0% {transform: translate(830.47203px,478.07373px) scale(0.272158,0.272158)} 56.666667% {transform: translate(830.47203px,478.07373px) scale(0.272158,0.272158)} 73.333333% {transform: translate(830.47203px,478.07373px) scale(0.522559,0.522559)} 80% {transform: translate(830.47203px,478.07373px) scale(0.517034,0.517034);animation-timing-function: cubic-bezier(0.42,0,1,1)} 90% {transform: translate(830.47203px,478.07373px) scale(0.163038,0.163038)} 100% {transform: translate(830.47203px,478.07373px) scale(0.163038,0.163038)}} #eAUpb7B3i6x33 {animation: eAUpb7B3i6x33_c_o 3000ms linear infinite normal forwards}@keyframes eAUpb7B3i6x33_c_o { 0% {opacity: 0} 56.666667% {opacity: 0} 73.333333% {opacity: 0.3} 80% {opacity: 0.3;animation-timing-function: cubic-bezier(0.42,0,1,1)} 90% {opacity: 0} 100% {opacity: 0}} #eAUpb7B3i6x34_ts {animation: eAUpb7B3i6x34_ts__ts 3000ms linear infinite normal forwards}@keyframes eAUpb7B3i6x34_ts__ts { 0% {transform: translate(830.472045px,478.073699px) scale(0.755828,0.755828)} 50% {transform: translate(830.472045px,478.073699px) scale(0.755828,0.755828)} 66.666667% {transform: translate(830.472045px,478.073699px) scale(1.581183,1.581183)} 73.333333% {transform: translate(830.472045px,478.073699px) scale(1.605515,1.605515);animation-timing-function: cubic-bezier(0.42,0,1,1)} 83.333333% {transform: translate(830.472045px,478.073699px) scale(0.935806,0.935807)} 100% {transform: translate(830.472045px,478.073699px) scale(0.935806,0.935807)}} #eAUpb7B3i6x34 {animation: eAUpb7B3i6x34_c_o 3000ms linear infinite normal forwards}@keyframes eAUpb7B3i6x34_c_o { 0% {opacity: 0} 50% {opacity: 0} 66.666667% {opacity: 0.19} 73.333333% {opacity: 0.19;animation-timing-function: cubic-bezier(0.42,0,1,1)} 83.333333% {opacity: 0} 100% {opacity: 0}} #eAUpb7B3i6x35_ts {animation: eAUpb7B3i6x35_ts__ts 3000ms linear infinite normal forwards}@keyframes eAUpb7B3i6x35_ts__ts { 0% {transform: translate(830.472045px,478.07373px) scale(0.457254,0.457254)} 50% {transform: translate(830.472045px,478.07373px) scale(0.457254,0.457254)} 100% {transform: translate(830.472045px,478.07373px) scale(0.489212,0.489212)}} #eAUpb7B3i6x35 {animation: eAUpb7B3i6x35_c_o 3000ms linear infinite normal forwards}@keyframes eAUpb7B3i6x35_c_o { 0% {opacity: 1} 83.333333% {opacity: 1} 100% {opacity: 1}} #eAUpb7B3i6x36_ts {animation: eAUpb7B3i6x36_ts__ts 3000ms linear infinite normal forwards}@keyframes eAUpb7B3i6x36_ts__ts { 0% {transform: translate(808.676565px,401.789519px) scale(0.755828,0.755828)} 16.666667% {transform: translate(808.676565px,401.789519px) scale(0.755828,0.755828)} 33.333333% {transform: translate(808.676565px,401.789519px) scale(1.581183,1.581183)} 40% {transform: translate(808.676565px,401.789519px) scale(1.605515,1.605515);animation-timing-function: cubic-bezier(0.42,0,1,1)} 50% {transform: translate(808.676565px,401.789519px) scale(0.935806,0.935807)} 100% {transform: translate(808.676565px,401.789519px) scale(0.935806,0.935807)}} #eAUpb7B3i6x36 {animation: eAUpb7B3i6x36_c_o 3000ms linear infinite normal forwards}@keyframes eAUpb7B3i6x36_c_o { 0% {opacity: 0} 16.666667% {opacity: 0} 33.333333% {opacity: 0.19} 40% {opacity: 0.19;animation-timing-function: cubic-bezier(0.42,0,1,1)} 50% {opacity: 0} 100% {opacity: 0}} #eAUpb7B3i6x37_ts {animation: eAUpb7B3i6x37_ts__ts 3000ms linear infinite normal forwards}@keyframes eAUpb7B3i6x37_ts__ts { 0% {transform: translate(808.676565px,401.78955px) scale(0.457254,0.457254)} 16.666667% {transform: translate(808.676565px,401.78955px) scale(0.457254,0.457254)} 66.666667% {transform: translate(808.676565px,401.78955px) scale(0.489212,0.489212)} 100% {transform: translate(808.676565px,401.78955px) scale(0.489212,0.489212)}} #eAUpb7B3i6x37 {animation: eAUpb7B3i6x37_c_o 3000ms linear infinite normal forwards}@keyframes eAUpb7B3i6x37_c_o { 0% {opacity: 1} 50% {opacity: 1} 66.666667% {opacity: 1} 100% {opacity: 1}} #eAUpb7B3i6x38_ts {animation: eAUpb7B3i6x38_ts__ts 3000ms linear infinite normal forwards}@keyframes eAUpb7B3i6x38_ts__ts { 0% {transform: translate(361.869225px,472.624829px) scale(0.755828,0.755828)} 30% {transform: translate(361.869225px,472.624829px) scale(0.755828,0.755828)} 46.666667% {transform: translate(361.869225px,472.624829px) scale(1.581183,1.581183)} 53.333333% {transform: translate(361.869225px,472.624829px) scale(1.605515,1.605515);animation-timing-function: cubic-bezier(0.42,0,1,1)} 63.333333% {transform: translate(361.869225px,472.624829px) scale(0.935806,0.935807)} 100% {transform: translate(361.869225px,472.624829px) scale(0.935806,0.935807)}} #eAUpb7B3i6x38 {animation: eAUpb7B3i6x38_c_o 3000ms linear infinite normal forwards}@keyframes eAUpb7B3i6x38_c_o { 0% {opacity: 0} 30% {opacity: 0} 46.666667% {opacity: 0.19} 53.333333% {opacity: 0.19;animation-timing-function: cubic-bezier(0.42,0,1,1)} 63.333333% {opacity: 0} 100% {opacity: 0}} #eAUpb7B3i6x39_ts {animation: eAUpb7B3i6x39_ts__ts 3000ms linear infinite normal forwards}@keyframes eAUpb7B3i6x39_ts__ts { 0% {transform: translate(361.869225px,472.62486px) scale(0.457254,0.457254)} 30% {transform: translate(361.869225px,472.62486px) scale(0.457254,0.457254)} 80% {transform: translate(361.869225px,472.62486px) scale(0.489212,0.489212)} 100% {transform: translate(361.869225px,472.62486px) scale(0.489212,0.489212)}} #eAUpb7B3i6x39 {animation: eAUpb7B3i6x39_c_o 3000ms linear infinite normal forwards}@keyframes eAUpb7B3i6x39_c_o { 0% {opacity: 1} 63.333333% {opacity: 1} 80% {opacity: 1} 100% {opacity: 1}} #eAUpb7B3i6x40_ts {animation: eAUpb7B3i6x40_ts__ts 3000ms linear infinite normal forwards}@keyframes eAUpb7B3i6x40_ts__ts { 0% {transform: translate(650.659335px,527.113529px) scale(0.755828,0.755828)} 20% {transform: translate(650.659335px,527.113529px) scale(0.755828,0.755828)} 36.666667% {transform: translate(650.659335px,527.113529px) scale(1.581183,1.581183)} 43.333333% {transform: translate(650.659335px,527.113529px) scale(1.605515,1.605515);animation-timing-function: cubic-bezier(0.42,0,1,1)} 53.333333% {transform: translate(650.659335px,527.113529px) scale(0.935806,0.935807)} 100% {transform: translate(650.659335px,527.113529px) scale(0.935806,0.935807)}} #eAUpb7B3i6x40 {animation: eAUpb7B3i6x40_c_o 3000ms linear infinite normal forwards}@keyframes eAUpb7B3i6x40_c_o { 0% {opacity: 0} 20% {opacity: 0} 36.666667% {opacity: 0.19} 43.333333% {opacity: 0.19;animation-timing-function: cubic-bezier(0.42,0,1,1)} 53.333333% {opacity: 0} 100% {opacity: 0}} #eAUpb7B3i6x41_ts {animation: eAUpb7B3i6x41_ts__ts 3000ms linear infinite normal forwards}@keyframes eAUpb7B3i6x41_ts__ts { 0% {transform: translate(650.659335px,527.11356px) scale(0.457254,0.457254)} 20% {transform: translate(650.659335px,527.11356px) scale(0.457254,0.457254)} 70% {transform: translate(650.659335px,527.11356px) scale(0.489212,0.489212)} 100% {transform: translate(650.659335px,527.11356px) scale(0.489212,0.489212)}} #eAUpb7B3i6x41 {animation: eAUpb7B3i6x41_c_o 3000ms linear infinite normal forwards}@keyframes eAUpb7B3i6x41_c_o { 0% {opacity: 1} 53.333333% {opacity: 1} 70% {opacity: 1} 100% {opacity: 1}} #eAUpb7B3i6x42_ts {animation: eAUpb7B3i6x42_ts__ts 3000ms linear infinite normal forwards}@keyframes eAUpb7B3i6x42_ts__ts { 0% {transform: translate(454.500015px,592.499969px) scale(0.755828,0.755828)} 16.666667% {transform: translate(454.500015px,592.499969px) scale(1.581183,1.581183)} 23.333333% {transform: translate(454.500015px,592.499969px) scale(1.605515,1.605515);animation-timing-function: cubic-bezier(0.42,0,1,1)} 33.333333% {transform: translate(454.500015px,592.499969px) scale(0.935806,0.935807)} 100% {transform: translate(454.500015px,592.499969px) scale(0.935806,0.935807)}} #eAUpb7B3i6x42 {animation: eAUpb7B3i6x42_c_o 3000ms linear infinite normal forwards}@keyframes eAUpb7B3i6x42_c_o { 0% {opacity: 0} 16.666667% {opacity: 0.19} 23.333333% {opacity: 0.19;animation-timing-function: cubic-bezier(0.42,0,1,1)} 33.333333% {opacity: 0} 100% {opacity: 0}} #eAUpb7B3i6x43_ts {animation: eAUpb7B3i6x43_ts__ts 3000ms linear infinite normal forwards}@keyframes eAUpb7B3i6x43_ts__ts { 0% {transform: translate(454.500015px,592.5px) scale(0.457254,0.457254)} 50% {transform: translate(454.500015px,592.5px) scale(0.489212,0.489212)} 100% {transform: translate(454.500015px,592.5px) scale(0.489212,0.489212)}} #eAUpb7B3i6x43 {animation: eAUpb7B3i6x43_c_o 3000ms linear infinite normal forwards}@keyframes eAUpb7B3i6x43_c_o { 0% {opacity: 1} 33.333333% {opacity: 1} 50% {opacity: 1} 100% {opacity: 1}}]]></style><defs><linearGradient id="eAUpb7B3i6x7-stroke" x1="335.694" y1="185.327" x2="335.694" y2="467.701" spreadMethod="pad" gradientUnits="userSpaceOnUse"><stop id="eAUpb7B3i6x7-stroke-0" offset="0%" stop-color="rgb(85,239,137)"/><stop id="eAUpb7B3i6x7-stroke-1" offset="100%" stop-color="rgba(85,239,137,0)"/></linearGradient><linearGradient id="eAUpb7B3i6x11-fill" x1="975.755" y1="163.196" x2="975.755" y2="671.154" spreadMethod="pad" gradientUnits="userSpaceOnUse"><stop id="eAUpb7B3i6x11-fill-0" offset="0%" stop-color="rgb(85,239,137)"/><stop id="eAUpb7B3i6x11-fill-1" offset="86.7279%" stop-color="rgba(85,239,137,0)"/></linearGradient></defs><g id="eAUpb7B3i6x2" opacity="0.1"><path id="eAUpb7B3i6x3" d="M440.909,148.726C440.245,149.168,439.802,149.831,439.36,150.273C438.032,151.598,435.819,151.377,434.712,149.831C434.27,149.168,433.606,148.285,433.163,147.622C432.278,146.297,432.5,144.75,433.606,143.646C434.712,142.542,436.04,141.437,437.589,140.112C438.475,139.228,439.802,139.007,440.909,139.67C447.99,142.983,456.4,135.915,465.252,138.124C465.915,138.345,466.358,138.566,466.801,139.228C468.128,140.995,471.005,141.658,473.661,143.646C474.103,144.088,474.767,144.088,475.431,144.088L480.964,144.088C481.406,144.088,482.07,144.309,482.513,144.53C486.054,146.517,484.947,149.61,485.39,152.26C485.39,152.923,485.832,153.586,486.275,154.028C488.267,156.015,490.48,158.224,492.471,160.212C493.135,160.875,493.356,161.538,493.356,162.421L493.356,167.28C493.356,169.048,492.029,170.373,490.258,170.373C488.045,170.373,486.496,172.803,487.603,174.791C487.824,175.232,488.045,175.674,488.267,176.116C489.373,178.104,487.824,180.533,485.39,180.533C484.504,180.533,483.841,180.313,482.955,180.313C480.521,180.313,478.972,182.963,480.3,184.951C480.742,185.614,481.185,186.276,481.406,186.939C481.849,188.706,480.521,190.473,478.751,190.694C476.98,190.915,475.21,190.252,473.661,190.252C473.218,190.252,472.554,190.252,472.112,190.031C466.579,187.381,461.711,184.73,456.842,182.301C455.736,181.859,455.072,180.754,455.072,179.65L455.072,179.429C455.072,178.325,455.514,177.441,456.4,176.778C458.17,175.674,459.719,174.128,462.153,174.349C465.252,174.57,466.137,171.477,467.907,170.152C468.571,169.71,469.014,168.827,469.014,167.943C469.014,162.421,465.915,158.224,463.26,153.807C462.596,152.923,461.711,152.26,460.604,152.26C454.408,152.481,449.318,147.843,442.901,148.064C442.015,147.843,441.351,148.285,440.909,148.726Z" fill="rgb(85,239,137)" stroke="none" stroke-width="1"/><path id="eAUpb7B3i6x4" d="M339.998,137.461C342.874,140.995,347.3,142.763,351.505,144.75C352.612,145.413,354.161,145.413,355.488,144.971C359.693,143.425,364.562,143.646,369.209,142.321C372.528,141.216,375.627,143.646,375.627,147.18L375.627,150.493C375.627,152.481,374.299,154.469,372.307,155.132C368.988,156.457,364.783,156.236,361.242,157.783C359.251,158.666,356.152,158.887,353.718,156.899C351.505,155.132,348.628,155.132,346.415,156.457C341.325,159.329,336.014,157.341,330.924,157.783C330.261,157.783,329.818,157.12,328.933,156.457C328.048,155.574,327.605,154.248,327.605,153.144L327.605,150.935C327.605,148.064,325.392,145.855,322.515,145.855L322.294,145.855C316.983,145.855,315.212,138.566,320.081,136.357C320.966,135.915,321.851,135.473,322.958,135.032C324.285,134.369,326.056,134.369,327.384,135.032C330.039,136.357,333.137,135.915,336.014,135.915C337.563,135.694,338.891,136.357,339.998,137.461Z" fill="rgb(85,239,137)" stroke="none" stroke-width="1"/></g><g id="eAUpb7B3i6x5" opacity="0.5"><g id="eAUpb7B3i6x6" mask="url(#eAUpb7B3i6x8)"><path id="eAUpb7B3i6x7" d="M160.241,223.899C162.418,221.528,166.575,220.343,169.741,219.75C172.908,218.96,176.075,220.54,179.242,219.355C180.429,218.96,181.617,217.972,182.606,217.182C185.179,215.207,187.752,213.231,190.325,211.256C189.138,210.465,187.554,210.465,186.367,210.86C184.981,211.256,183.794,211.848,182.408,212.243C181.419,212.441,180.429,212.441,179.242,212.441C178.846,212.441,178.648,212.441,178.45,212.243C178.252,212.046,178.252,211.651,178.054,211.256C178.054,209.675,177.856,207.7,179.044,206.514C180.429,204.736,183.002,204.736,184.981,205.329C187.158,205.922,189.138,206.909,191.315,207.107C193.096,207.305,197.45,206.119,197.648,203.946C197.846,202.366,194.877,199.995,194.086,199.007C197.45,195.056,203.586,195.254,208.138,194.464C214.867,193.278,221.399,192.093,228.128,190.908C236.243,189.723,244.358,188.735,252.473,187.945C257.619,187.549,270.484,183.796,274.442,187.747C275.63,188.932,276.421,190.315,277.213,191.698C280.775,196.637,287.109,198.217,292.849,197.229C301.755,195.847,309.474,192.883,318.776,192.686C336.589,192.291,352.819,194.464,369.049,201.576C371.226,202.563,374.195,202.958,376.174,201.378C377.361,200.39,377.955,198.612,379.538,198.217C380.132,198.02,380.726,198.02,381.32,198.02C388.445,198.02,395.768,197.032,402.893,198.415C408.039,199.403,413.383,201.971,418.529,199.798C423.477,197.822,426.446,192.488,427.831,187.747C428.029,187.154,428.227,186.562,428.623,186.167C429.811,185.179,434.759,185.179,435.946,185.574C437.332,185.969,438.519,187.154,438.321,188.537C437.727,192.488,440.498,193.081,441.884,196.834C442.478,198.81,443.071,200.785,444.655,202.168C441.884,202.958,439.707,207.305,436.738,206.712C432.581,205.922,431.592,203.749,431.196,209.28C430.998,212.046,428.623,214.021,426.248,215.404C418.925,219.553,377.955,229.628,393.393,244.839C397.747,249.185,405.664,251.556,411.602,252.149C413.779,252.346,420.904,251.358,417.737,255.705C416.154,257.878,415.56,260.643,416.154,263.409C416.748,265.977,418.925,268.348,421.498,268.743C427.436,269.928,429.811,263.409,429.217,258.668C433.967,252.544,442.28,253.927,447.426,249.58C446.832,245.037,443.863,241.283,445.644,237.332C446.634,235.159,447.426,232.394,449.801,230.813C450.988,230.616,452.572,230.616,453.759,230.418C455.936,228.245,458.113,226.072,460.291,223.899C469.395,223.306,471.176,223.504,477.51,227.455C478.499,228.64,477.708,230.22,477.906,231.603C478.104,232.789,477.906,233.974,477.906,235.159C480.676,238.32,483.447,238.715,487.406,236.937C491.166,235.159,494.333,231.603,499.281,232.789C499.281,237.727,499.281,242.864,499.281,247.605C501.656,249.976,502.646,252.544,503.438,255.507C505.219,256.89,507.396,255.902,509.375,256.1C511.156,257.68,513.334,259.063,511.948,262.224C509.573,266.965,504.229,269.138,500.271,272.101C498.687,273.287,495.916,274.669,492.948,274.274C488.198,273.682,483.249,274.472,478.499,274.077C471.77,273.682,465.634,276.842,459.301,277.83C457.718,278.028,455.54,279.806,456.53,283.164C457.322,285.535,468.999,281.584,470.78,281.584C478.104,281.584,468.603,288.3,468.603,289.486C468.405,292.054,471.176,293.634,473.749,293.832C474.541,294.029,475.531,294.029,475.926,294.82C476.124,295.61,475.728,296.4,475.135,296.795C474.541,297.19,473.749,297.388,473.155,297.585C471.374,298.178,470.187,299.758,468.801,301.141C467.614,302.524,466.228,303.907,464.447,304.5C457.124,307.068,462.468,296.202,456.926,297.388C450.79,298.573,445.248,302.129,441.686,307.265C437.727,312.797,435.748,314.18,429.415,316.353C418.925,319.909,413.383,331.366,406.258,339.071C399.331,346.775,390.028,350.924,381.913,356.85C380.33,358.036,378.747,359.221,377.757,360.802C375.58,363.962,376.57,368.704,377.163,372.062C377.559,374.63,380.33,382.532,378.549,384.903C376.965,386.878,375.184,388.261,372.413,387.668C368.653,383.915,369.642,379.174,369.642,374.63C365.684,369.296,360.34,364.95,353.215,364.357C352.423,364.357,351.631,364.357,350.84,364.555C349.058,365.148,348.267,366.926,347.079,368.308C344.506,371.272,340.152,372.457,336.391,371.272C334.214,370.482,334.808,367.321,331.246,367.913C329.662,368.111,328.277,368.901,326.891,369.296C320.162,370.679,312.245,373.84,308.089,379.964C299.776,392.607,292.057,426.191,318.776,422.635C321.349,422.24,323.725,421.45,325.704,419.672C328.079,417.499,329.068,414.14,330.85,411.375C332.631,408.609,335.996,406.238,338.964,407.621C341.142,408.609,342.131,410.979,342.131,413.152C342.131,415.523,341.142,417.499,340.35,419.672C338.569,424.018,336.787,428.364,334.808,432.71C338.569,432.908,342.329,433.105,346.09,433.303C347.871,433.303,349.85,433.5,351.236,434.686C353.017,436.068,353.611,438.439,353.413,440.612C353.215,442.785,352.423,444.958,351.829,446.934C350.246,453.65,352.027,461.355,356.777,466.491C355.392,467.874,353.017,468.072,351.038,467.084C349.256,466.294,347.871,464.713,346.683,462.935C344.308,459.577,342.923,455.626,340.944,452.07C338.964,448.514,335.996,445.156,332.037,444.168C327.485,442.983,323.922,443.97,319.568,441.007C316.401,438.834,313.63,436.068,310.068,434.883C306.703,433.698,302.943,433.895,299.182,433.698C288.494,433.105,275.629,428.561,268.9,419.869C266.327,416.511,266.327,412.56,265.535,408.609C264.744,405.25,263.16,401.892,261.577,398.929C258.014,392.015,253.066,385.693,250.098,378.581C247.92,373.445,247.327,368.111,244.16,363.37C243.368,362.184,242.379,360.999,240.993,360.802C239.608,360.604,238.222,361.394,237.233,360.802C235.847,360.209,235.847,358.431,235.451,356.85C234.462,353.295,230.899,353.295,228.524,351.319C225.951,349.344,224.17,345.985,223.18,343.022C220.805,336.503,221.003,329.391,221.201,322.674C221.201,320.896,221.399,318.921,221.993,317.143C222.586,315.365,223.972,313.982,225.159,312.402C230.899,305.685,237.826,298.968,241.983,290.869C242.972,289.091,243.566,286.918,244.952,285.337C245.743,284.349,246.931,283.559,247.723,282.571C250.493,279.411,248.712,274.669,247.723,271.311C246.535,266.767,246.139,262.026,246.535,257.285C246.931,253.531,247.92,249.58,247.327,245.827C246.535,239.308,241.191,238.715,237.826,234.369C234.858,230.616,222.784,231.011,218.232,229.825C212.295,228.443,208.138,228.838,202.794,231.406C201.409,231.998,199.43,232.789,197.846,232.394C196.263,231.998,195.273,230.023,193.69,230.22C192.106,230.418,191.909,232.789,190.919,234.171C190.127,235.159,188.94,235.554,187.752,235.949C183.002,237.332,176.075,240.691,171.325,239.308C166.575,237.925,161.033,234.567,159.647,229.628C158.46,226.862,159.054,225.282,160.241,223.899Z" fill="rgb(85,239,137)" fill-opacity="0.12" stroke="url(#eAUpb7B3i6x7-stroke)" stroke-width="2"/><mask id="eAUpb7B3i6x8" mask-type="luminance"><path id="eAUpb7B3i6x9" d="M160.241,223.899C162.418,221.528,166.575,220.343,169.741,219.75C172.908,218.96,176.075,220.54,179.242,219.355C180.429,218.96,181.617,217.972,182.606,217.182C185.179,215.207,187.752,213.231,190.325,211.256C189.138,210.465,187.554,210.465,186.367,210.86C184.981,211.256,183.794,211.848,182.408,212.243C181.419,212.441,180.429,212.441,179.242,212.441C178.846,212.441,178.648,212.441,178.45,212.243C178.252,212.046,178.252,211.651,178.054,211.256C178.054,209.675,177.856,207.7,179.044,206.514C180.429,204.736,183.002,204.736,184.981,205.329C187.158,205.922,189.138,206.909,191.315,207.107C193.096,207.305,197.45,206.119,197.648,203.946C197.846,202.366,194.877,199.995,194.086,199.007C197.45,195.056,203.586,195.254,208.138,194.464C214.867,193.278,221.399,192.093,228.128,190.908C236.243,189.723,244.358,188.735,252.473,187.945C257.619,187.549,270.484,183.796,274.442,187.747C275.63,188.932,276.421,190.315,277.213,191.698C280.775,196.637,287.109,198.217,292.849,197.229C301.755,195.847,309.474,192.883,318.776,192.686C336.589,192.291,352.819,194.464,369.049,201.576C371.226,202.563,374.195,202.958,376.174,201.378C377.361,200.39,377.955,198.612,379.538,198.217C380.132,198.02,380.726,198.02,381.32,198.02C388.445,198.02,395.768,197.032,402.893,198.415C408.039,199.403,413.383,201.971,418.529,199.798C423.477,197.822,426.446,192.488,427.831,187.747C428.029,187.154,428.227,186.562,428.623,186.167C429.811,185.179,434.759,185.179,435.946,185.574C437.332,185.969,438.519,187.154,438.321,188.537C437.727,192.488,440.498,193.081,441.884,196.834C442.478,198.81,443.071,200.785,444.655,202.168C441.884,202.958,439.707,207.305,436.738,206.712C432.581,205.922,431.592,203.749,431.196,209.28C430.998,212.046,428.623,214.021,426.248,215.404C418.925,219.553,377.955,229.628,393.393,244.839C397.747,249.185,405.664,251.556,411.602,252.149C413.779,252.346,420.904,251.358,417.737,255.705C416.154,257.878,415.56,260.643,416.154,263.409C416.748,265.977,418.925,268.348,421.498,268.743C427.436,269.928,429.811,263.409,429.217,258.668C433.967,252.544,442.28,253.927,447.426,249.58C446.832,245.037,443.863,241.283,445.644,237.332C446.634,235.159,447.426,232.394,449.801,230.813C450.988,230.616,452.572,230.616,453.759,230.418C455.936,228.245,458.113,226.072,460.291,223.899C469.395,223.306,471.176,223.504,477.51,227.455C478.499,228.64,477.708,230.22,477.906,231.603C478.104,232.789,477.906,233.974,477.906,235.159C480.676,238.32,483.447,238.715,487.406,236.937C491.166,235.159,494.333,231.603,499.281,232.789C499.281,237.727,499.281,242.864,499.281,247.605C501.656,249.976,502.646,252.544,503.438,255.507C505.219,256.89,507.396,255.902,509.375,256.1C511.156,257.68,513.334,259.063,511.948,262.224C509.573,266.965,504.229,269.138,500.271,272.101C498.687,273.287,495.916,274.669,492.948,274.274C488.198,273.682,483.249,274.472,478.499,274.077C471.77,273.682,465.634,276.842,459.301,277.83C457.718,278.028,455.54,279.806,456.53,283.164C457.322,285.535,468.999,281.584,470.78,281.584C478.104,281.584,468.603,288.3,468.603,289.486C468.405,292.054,471.176,293.634,473.749,293.832C474.541,294.029,475.531,294.029,475.926,294.82C476.124,295.61,475.728,296.4,475.135,296.795C474.541,297.19,473.749,297.388,473.155,297.585C471.374,298.178,470.187,299.758,468.801,301.141C467.614,302.524,466.228,303.907,464.447,304.5C457.124,307.068,462.468,296.202,456.926,297.388C450.79,298.573,445.248,302.129,441.686,307.265C437.727,312.797,435.748,314.18,429.415,316.353C418.925,319.909,413.383,331.366,406.258,339.071C399.331,346.775,390.028,350.924,381.913,356.85C380.33,358.036,378.747,359.221,377.757,360.802C375.58,363.962,376.57,368.704,377.163,372.062C377.559,374.63,380.33,382.532,378.549,384.903C376.965,386.878,375.184,388.261,372.413,387.668C368.653,383.915,369.642,379.174,369.642,374.63C365.684,369.296,360.34,364.95,353.215,364.357C352.423,364.357,351.631,364.357,350.84,364.555C349.058,365.148,348.267,366.926,347.079,368.308C344.506,371.272,340.152,372.457,336.391,371.272C334.214,370.482,334.808,367.321,331.246,367.913C329.662,368.111,328.277,368.901,326.891,369.296C320.162,370.679,312.245,373.84,308.089,379.964C299.776,392.607,292.057,426.191,318.776,422.635C321.349,422.24,323.725,421.45,325.704,419.672C328.079,417.499,329.068,414.14,330.85,411.375C332.631,408.609,335.996,406.238,338.964,407.621C341.142,408.609,342.131,410.979,342.131,413.152C342.131,415.523,341.142,417.499,340.35,419.672C338.569,424.018,336.787,428.364,334.808,432.71C338.569,432.908,342.329,433.105,346.09,433.303C347.871,433.303,349.85,433.5,351.236,434.686C353.017,436.068,353.611,438.439,353.413,440.612C353.215,442.785,352.423,444.958,351.829,446.934C350.246,453.65,352.027,461.355,356.777,466.491C355.392,467.874,353.017,468.072,351.038,467.084C349.256,466.294,347.871,464.713,346.683,462.935C344.308,459.577,342.923,455.626,340.944,452.07C338.964,448.514,335.996,445.156,332.037,444.168C327.485,442.983,323.922,443.97,319.568,441.007C316.401,438.834,313.63,436.068,310.068,434.883C306.703,433.698,302.943,433.895,299.182,433.698C288.494,433.105,275.629,428.561,268.9,419.869C266.327,416.511,266.327,412.56,265.535,408.609C264.744,405.25,263.16,401.892,261.577,398.929C258.014,392.015,253.066,385.693,250.098,378.581C247.92,373.445,247.327,368.111,244.16,363.37C243.368,362.184,242.379,360.999,240.993,360.802C239.608,360.604,238.222,361.394,237.233,360.802C235.847,360.209,235.847,358.431,235.451,356.85C234.462,353.295,230.899,353.295,228.524,351.319C225.951,349.344,224.17,345.985,223.18,343.022C220.805,336.503,221.003,329.391,221.201,322.674C221.201,320.896,221.399,318.921,221.993,317.143C222.586,315.365,223.972,313.982,225.159,312.402C230.899,305.685,237.826,298.968,241.983,290.869C242.972,289.091,243.566,286.918,244.952,285.337C245.743,284.349,246.931,283.559,247.723,282.571C250.493,279.411,248.712,274.669,247.723,271.311C246.535,266.767,246.139,262.026,246.535,257.285C246.931,253.531,247.92,249.58,247.327,245.827C246.535,239.308,241.191,238.715,237.826,234.369C234.858,230.616,222.784,231.011,218.232,229.825C212.295,228.443,208.138,228.838,202.794,231.406C201.409,231.998,199.43,232.789,197.846,232.394C196.263,231.998,195.273,230.023,193.69,230.22C192.106,230.418,191.909,232.789,190.919,234.171C190.127,235.159,188.94,235.554,187.752,235.949C183.002,237.332,176.075,240.691,171.325,239.308C166.575,237.925,161.033,234.567,159.647,229.628C158.46,226.862,159.054,225.282,160.241,223.899Z" transform="matrix(1 0 0 1 0.000001 0.000001)" fill="rgb(255,255,255)" stroke="none" stroke-width="1"/></mask></g><g id="eAUpb7B3i6x10" mask="url(#eAUpb7B3i6x12)"><path id="eAUpb7B3i6x11" d="M803.685,236.147C807.05,233.974,813.185,237.925,815.56,234.369C816.946,231.999,814.571,228.838,811.998,228.443C809.227,227.85,806.654,229.035,803.883,229.233C801.112,229.628,797.747,229.035,796.758,226.467C794.581,221.923,804.873,213.626,797.351,210.663C795.174,209.873,792.799,210.466,790.82,211.651C782.309,216.787,782.903,228.838,780.726,238.518C779.736,242.864,777.361,247.605,773.007,248.593C763.903,250.568,759.351,235.554,750.048,234.962C747.277,234.764,744.111,235.95,741.933,234.172C738.767,231.603,741.735,226.467,744.704,223.701C747.475,221.133,750.246,218.368,753.017,215.799C767.069,202.564,782.507,188.735,801.706,187.352C810.216,186.759,818.529,188.735,826.644,191.106C832.977,192.884,839.113,195.057,845.051,197.427C847.426,198.415,850.197,200.983,848.613,202.959C848.019,203.551,847.228,203.946,846.436,203.946C840.894,204.144,835.55,204.341,830.009,204.539C834.759,224.887,860.686,206.712,869.593,202.761C889.187,193.674,907.198,195.254,927.98,198.217C930.157,198.415,932.928,198.415,933.72,196.439C934.709,193.674,930.553,192.093,928.772,189.92C925.011,185.377,932.334,181.426,936.293,182.216C941.439,183.204,943.022,188.537,944.209,192.884C945.199,196.835,947.772,201.576,951.731,200.983C955.293,200.39,956.679,196.044,957.866,192.686C968.158,162.658,1010.12,158.51,1036.24,167.202C1038.42,167.992,1040.8,169.177,1042.77,170.56C1047.72,174.314,1053.46,176.684,1059.6,177.277C1079.59,179.253,1115.21,186.562,1120.16,187.155C1132.43,188.34,1142.53,185.969,1154.4,183.994C1168.26,181.623,1182.71,186.957,1196.16,188.537C1211.01,190.315,1225.85,191.106,1240.7,193.871C1244.85,194.661,1249.21,195.452,1253.36,194.661C1256.13,194.069,1258.51,193.081,1261.28,192.291C1269.59,190.118,1278.3,192.291,1286.22,194.859C1292.16,196.835,1298.29,198.81,1304.23,200.39C1310.96,202.168,1314.13,201.773,1309.97,207.107C1308.78,208.688,1308.58,211.256,1309.38,212.836C1310.17,214.614,1311.35,215.997,1312.15,217.775C1313.53,220.936,1312.54,225.084,1309.77,227.257C1304.82,231.406,1289.78,223.504,1289.39,233.777C1289.19,236.74,1291.17,239.506,1293.15,241.481C1295.12,243.654,1297.7,245.432,1299.08,248.198C1301.85,253.137,1300.47,259.261,1299.48,264.792C1299.48,265.187,1299.28,265.582,1299.08,265.977C1297.9,268.348,1295.72,267.558,1293.94,266.768C1280.48,260.248,1272.76,243.654,1276.12,229.233C1277.91,221.726,1272.36,221.923,1266.82,222.516C1257.32,223.701,1256.53,225.875,1251.78,233.184C1249.6,236.542,1245.05,237.53,1240.89,236.937C1236.94,236.345,1233.18,234.764,1229.02,234.369C1222.69,233.579,1216.15,235.752,1211.4,239.901C1206.85,244.049,1204.48,251.754,1208.83,256.1C1212.39,259.853,1218.53,259.063,1223.87,259.656C1234.16,260.841,1243.47,268.743,1246.04,278.818C1248.61,288.893,1244.06,300.351,1235.35,306.08C1230.6,309.241,1224.27,311.612,1223.48,317.341C1222.69,323.069,1228.82,327.021,1233.37,330.576C1237.93,334.132,1241.69,341.639,1236.94,344.998C1232.38,348.356,1226.45,343.22,1223.08,338.478C1219.91,333.737,1216.55,329.194,1213.38,324.452C1212.59,323.267,1211.4,321.687,1209.82,321.884C1207.25,321.884,1205.47,326.23,1203.09,325.243C1201.71,324.65,1201.51,322.674,1200.91,321.292C1197.35,310.426,1177.96,326.23,1186.66,334.527C1188.84,336.503,1192.01,337.096,1194.38,338.676C1198.14,341.047,1199.92,345.393,1202.1,349.146C1205.66,355.468,1210.22,360.999,1213.19,367.518C1216.15,374.038,1217.34,381.94,1213.78,388.261C1210.81,393.595,1205.07,396.163,1199.92,398.929C1193.59,402.485,1189.24,406.238,1184.29,411.375C1182.71,412.955,1180.73,414.536,1178.75,413.548C1177.76,412.955,1177.16,411.967,1176.77,410.98C1172.61,402.485,1161.13,404.658,1160.34,414.338C1159.94,419.672,1163.11,424.808,1166.67,428.957C1170.24,433.105,1174.39,436.859,1176.37,441.995C1178.75,447.526,1178.15,454.243,1174.79,459.38C1171.62,464.121,1165.29,467.479,1159.94,465.306C1152.42,462.145,1151.04,450.095,1143.12,448.119C1140.15,447.329,1136.39,448.119,1134.21,445.946C1131.64,443.378,1132.63,438.439,1129.86,436.464C1124.52,432.71,1121.15,436.464,1117.98,429.154C1114.03,419.869,1107.49,408.807,1097.99,404.065C1095.42,402.682,1092.26,402.09,1089.48,402.88C1087.11,403.473,1085.13,405.251,1083.35,406.831C1076.82,412.362,1069.89,417.696,1063.56,423.425C1058.61,428.167,1054.85,433.698,1053.66,440.612C1052.47,447.724,1056.23,455.231,1053.86,462.145C1052.67,465.504,1049.5,468.664,1045.94,468.269C1043.17,468.072,1040.8,465.899,1039.41,463.528C1031.89,449.897,1028.13,432.908,1025.56,417.696C1025.16,414.931,1024.76,409.597,1021.79,408.214C1018.83,406.831,1014.47,409.794,1010.91,408.214C1007.35,406.633,1005.17,402.88,1002.79,399.917C997.648,393.398,989.732,389.249,981.617,388.459C974.294,387.866,966.377,389.842,959.647,386.878C954.699,384.705,951.137,380.359,945.991,378.779C940.251,377.001,934.511,376.803,929.167,373.84C925.209,371.469,919.865,365.345,915.907,372.26C913.927,375.618,914.917,379.767,916.698,383.125C919.865,388.459,925.803,392.212,932.136,392.41C937.48,392.607,942.824,390.632,948.168,391.62C955.293,393.002,960.637,400.114,959.845,407.226C959.252,412.362,956.085,416.709,952.72,420.462C942.23,432.315,929.167,441.6,914.521,447.724C911.75,448.909,908.781,449.897,905.813,449.304C900.865,448.317,898.094,443.18,895.917,438.439C889.385,424.215,883.447,409.597,875.135,396.163C871.77,390.829,862.666,372.26,854.551,374.235C851.186,375.025,851.582,379.964,852.77,383.322C862.864,408.807,877.114,432.513,894.729,453.651C896.114,455.231,897.5,457.009,899.479,457.997C903.833,460.17,908.979,458.392,913.729,457.404C918.48,456.416,924.615,457.009,926.396,461.553C927.188,463.528,926.792,465.899,926.199,468.072C922.042,483.876,908.979,495.531,897.896,507.582C886.812,519.633,876.52,535.239,879.687,551.241C881.27,559.143,886.02,567.045,884.041,574.947C880.677,588.38,859.499,593.121,859.895,606.95C860.093,610.506,861.676,613.864,860.884,617.42C860.489,619.791,858.905,621.766,857.52,623.544C853.363,628.878,849.207,634.212,845.051,639.546C833.175,654.757,818.529,671.154,799.133,671.154C796.956,671.154,794.581,670.759,792.799,669.376C791.414,668.191,790.622,666.215,790.028,664.437C782.507,643.694,774.986,622.754,767.663,602.011C765.684,596.48,763.705,590.751,763.705,584.824C763.903,577.317,767.267,570.403,768.851,563.094C771.82,549.463,767.663,534.251,757.965,524.176C754.996,521.213,751.632,518.25,750.642,514.299C748.861,507.384,755.194,499.482,751.632,493.358C750.444,491.185,748.069,489.802,745.892,488.419C738.371,484.073,730.652,479.53,721.943,478.74C707.495,477.752,694.828,486.839,680.776,486.839C664.348,486.642,660.39,472.615,651.087,462.145C646.931,457.404,640.993,453.453,639.212,447.329C637.431,440.81,641.191,435.278,642.577,429.154C644.16,422.042,642.775,414.931,643.368,407.819C644.358,395.571,652.077,387.471,659.994,378.976C668.306,370.087,676.421,361.394,686.119,354.085C704.328,340.256,725.506,336.898,747.871,337.293C759.153,337.491,754.798,344.207,759.35,351.122C762.319,355.863,768.257,358.629,773.007,360.999C779.143,363.963,786.07,366.926,792.206,363.963C794.383,362.975,796.164,361.197,798.341,360.012C805.07,356.653,812.987,360.407,820.31,362.58C828.623,364.95,837.728,364.95,846.04,362.777C850.395,361.592,854.749,359.616,857.718,356.06C860.686,352.505,861.676,347.171,859.301,343.417C856.332,338.478,849.405,337.688,843.665,338.083C837.925,338.281,831.394,338.874,827.04,335.12C823.477,331.959,822.488,326.823,819.717,322.872C816.946,318.921,810.216,316.748,807.841,320.699C805.862,324.057,808.237,329.194,805.466,331.762C800.122,336.701,794.581,326.033,792.997,322.477C787.851,310.821,778.153,301.339,766.278,296.795C765.288,296.4,764.101,296.4,763.309,296.993C760.934,298.573,762.319,301.932,764.299,303.71C766.08,305.487,768.653,307.463,768.059,310.031C767.069,314.575,761.528,312.797,759.153,310.821C757.173,309.438,755.59,307.463,753.809,306.08C748.663,302.524,741.735,303.117,736.194,305.883C723.527,312.204,718.183,327.416,705.516,333.737C692.255,340.256,671.473,327.021,681.765,312.007C684.734,307.858,689.88,305.29,695.026,305.883C697.599,306.08,699.974,307.068,702.547,307.068C705.12,307.265,707.891,306.475,709.078,304.105C711.058,300.351,707.297,296.203,706.11,292.252C704.922,288.498,706.307,284.152,708.485,280.991C719.568,264.99,747.673,253.334,766.674,256.89C774.986,258.47,785.08,259.458,790.622,253.137C792.799,250.766,793.987,247.21,796.956,246.025C798.143,245.432,799.331,245.432,800.32,244.839C803.091,243.457,804.279,239.703,802.893,236.937C803.289,236.345,803.487,236.147,803.685,236.147Z" fill="url(#eAUpb7B3i6x11-fill)" fill-opacity="0.45" stroke="rgb(85,239,137)" stroke-width="2"/><mask id="eAUpb7B3i6x12" mask-type="luminance"><path id="eAUpb7B3i6x13" d="M803.685,236.147C807.05,233.974,813.185,237.925,815.56,234.369C816.946,231.999,814.571,228.838,811.998,228.443C809.227,227.85,806.654,229.035,803.883,229.233C801.112,229.628,797.747,229.035,796.758,226.467C794.581,221.923,804.873,213.626,797.351,210.663C795.174,209.873,792.799,210.466,790.82,211.651C782.309,216.787,782.903,228.838,780.726,238.518C779.736,242.864,777.361,247.605,773.007,248.593C763.903,250.568,759.351,235.554,750.048,234.962C747.277,234.764,744.111,235.95,741.933,234.172C738.767,231.603,741.735,226.467,744.704,223.701C747.475,221.133,750.246,218.368,753.017,215.799C767.069,202.564,782.507,188.735,801.706,187.352C810.216,186.759,818.529,188.735,826.644,191.106C832.977,192.884,839.113,195.057,845.051,197.427C847.426,198.415,850.197,200.983,848.613,202.959C848.019,203.551,847.228,203.946,846.436,203.946C840.894,204.144,835.55,204.341,830.009,204.539C834.759,224.887,860.686,206.712,869.593,202.761C889.187,193.674,907.198,195.254,927.98,198.217C930.157,198.415,932.928,198.415,933.72,196.439C934.709,193.674,930.553,192.093,928.772,189.92C925.011,185.377,932.334,181.426,936.293,182.216C941.439,183.204,943.022,188.537,944.209,192.884C945.199,196.835,947.772,201.576,951.731,200.983C955.293,200.39,956.679,196.044,957.866,192.686C968.158,162.658,1010.12,158.51,1036.24,167.202C1038.42,167.992,1040.8,169.177,1042.77,170.56C1047.72,174.314,1053.46,176.684,1059.6,177.277C1079.59,179.253,1115.21,186.562,1120.16,187.155C1132.43,188.34,1142.53,185.969,1154.4,183.994C1168.26,181.623,1182.71,186.957,1196.16,188.537C1211.01,190.315,1225.85,191.106,1240.7,193.871C1244.85,194.661,1249.21,195.452,1253.36,194.661C1256.13,194.069,1258.51,193.081,1261.28,192.291C1269.59,190.118,1278.3,192.291,1286.22,194.859C1292.16,196.835,1298.29,198.81,1304.23,200.39C1310.96,202.168,1314.13,201.773,1309.97,207.107C1308.78,208.688,1308.58,211.256,1309.38,212.836C1310.17,214.614,1311.35,215.997,1312.15,217.775C1313.53,220.936,1312.54,225.084,1309.77,227.257C1304.82,231.406,1289.78,223.504,1289.39,233.777C1289.19,236.74,1291.17,239.506,1293.15,241.481C1295.12,243.654,1297.7,245.432,1299.08,248.198C1301.85,253.137,1300.47,259.261,1299.48,264.792C1299.48,265.187,1299.28,265.582,1299.08,265.977C1297.9,268.348,1295.72,267.558,1293.94,266.768C1280.48,260.248,1272.76,243.654,1276.12,229.233C1277.91,221.726,1272.36,221.923,1266.82,222.516C1257.32,223.701,1256.53,225.875,1251.78,233.184C1249.6,236.542,1245.05,237.53,1240.89,236.937C1236.94,236.345,1233.18,234.764,1229.02,234.369C1222.69,233.579,1216.15,235.752,1211.4,239.901C1206.85,244.049,1204.48,251.754,1208.83,256.1C1212.39,259.853,1218.53,259.063,1223.87,259.656C1234.16,260.841,1243.47,268.743,1246.04,278.818C1248.61,288.893,1244.06,300.351,1235.35,306.08C1230.6,309.241,1224.27,311.612,1223.48,317.341C1222.69,323.069,1228.82,327.021,1233.37,330.576C1237.93,334.132,1241.69,341.639,1236.94,344.998C1232.38,348.356,1226.45,343.22,1223.08,338.478C1219.91,333.737,1216.55,329.194,1213.38,324.452C1212.59,323.267,1211.4,321.687,1209.82,321.884C1207.25,321.884,1205.47,326.23,1203.09,325.243C1201.71,324.65,1201.51,322.674,1200.91,321.292C1197.35,310.426,1177.96,326.23,1186.66,334.527C1188.84,336.503,1192.01,337.096,1194.38,338.676C1198.14,341.047,1199.92,345.393,1202.1,349.146C1205.66,355.468,1210.22,360.999,1213.19,367.518C1216.15,374.038,1217.34,381.94,1213.78,388.261C1210.81,393.595,1205.07,396.163,1199.92,398.929C1193.59,402.485,1189.24,406.238,1184.29,411.375C1182.71,412.955,1180.73,414.536,1178.75,413.548C1177.76,412.955,1177.16,411.967,1176.77,410.98C1172.61,402.485,1161.13,404.658,1160.34,414.338C1159.94,419.672,1163.11,424.808,1166.67,428.957C1170.24,433.105,1174.39,436.859,1176.37,441.995C1178.75,447.526,1178.15,454.243,1174.79,459.38C1171.62,464.121,1165.29,467.479,1159.94,465.306C1152.42,462.145,1151.04,450.095,1143.12,448.119C1140.15,447.329,1136.39,448.119,1134.21,445.946C1131.64,443.378,1132.63,438.439,1129.86,436.464C1124.52,432.71,1121.15,436.464,1117.98,429.154C1114.03,419.869,1107.49,408.807,1097.99,404.065C1095.42,402.682,1092.26,402.09,1089.48,402.88C1087.11,403.473,1085.13,405.251,1083.35,406.831C1076.82,412.362,1069.89,417.696,1063.56,423.425C1058.61,428.167,1054.85,433.698,1053.66,440.612C1052.47,447.724,1056.23,455.231,1053.86,462.145C1052.67,465.504,1049.5,468.664,1045.94,468.269C1043.17,468.072,1040.8,465.899,1039.41,463.528C1031.89,449.897,1028.13,432.908,1025.56,417.696C1025.16,414.931,1024.76,409.597,1021.79,408.214C1018.83,406.831,1014.47,409.794,1010.91,408.214C1007.35,406.633,1005.17,402.88,1002.79,399.917C997.648,393.398,989.732,389.249,981.617,388.459C974.294,387.866,966.377,389.842,959.647,386.878C954.699,384.705,951.137,380.359,945.991,378.779C940.251,377.001,934.511,376.803,929.167,373.84C925.209,371.469,919.865,365.345,915.907,372.26C913.927,375.618,914.917,379.767,916.698,383.125C919.865,388.459,925.803,392.212,932.136,392.41C937.48,392.607,942.824,390.632,948.168,391.62C955.293,393.002,960.637,400.114,959.845,407.226C959.252,412.362,956.085,416.709,952.72,420.462C942.23,432.315,929.167,441.6,914.521,447.724C911.75,448.909,908.781,449.897,905.813,449.304C900.865,448.317,898.094,443.18,895.917,438.439C889.385,424.215,883.447,409.597,875.135,396.163C871.77,390.829,862.666,372.26,854.551,374.235C851.186,375.025,851.582,379.964,852.77,383.322C862.864,408.807,877.114,432.513,894.729,453.651C896.114,455.231,897.5,457.009,899.479,457.997C903.833,460.17,908.979,458.392,913.729,457.404C918.48,456.416,924.615,457.009,926.396,461.553C927.188,463.528,926.792,465.899,926.199,468.072C922.042,483.876,908.979,495.531,897.896,507.582C886.812,519.633,876.52,535.239,879.687,551.241C881.27,559.143,886.02,567.045,884.041,574.947C880.677,588.38,859.499,593.121,859.895,606.95C860.093,610.506,861.676,613.864,860.884,617.42C860.489,619.791,858.905,621.766,857.52,623.544C853.363,628.878,849.207,634.212,845.051,639.546C833.175,654.757,818.529,671.154,799.133,671.154C796.956,671.154,794.581,670.759,792.799,669.376C791.414,668.191,790.622,666.215,790.028,664.437C782.507,643.694,774.986,622.754,767.663,602.011C765.684,596.48,763.705,590.751,763.705,584.824C763.903,577.317,767.267,570.403,768.851,563.094C771.82,549.463,767.663,534.251,757.965,524.176C754.996,521.213,751.632,518.25,750.642,514.299C748.861,507.384,755.194,499.482,751.632,493.358C750.444,491.185,748.069,489.802,745.892,488.419C738.371,484.073,730.652,479.53,721.943,478.74C707.495,477.752,694.828,486.839,680.776,486.839C664.348,486.642,660.39,472.615,651.087,462.145C646.931,457.404,640.993,453.453,639.212,447.329C637.431,440.81,641.191,435.278,642.577,429.154C644.16,422.042,642.775,414.931,643.368,407.819C644.358,395.571,652.077,387.471,659.994,378.976C668.306,370.087,676.421,361.394,686.119,354.085C704.328,340.256,725.506,336.898,747.871,337.293C759.153,337.491,754.798,344.207,759.35,351.122C762.319,355.863,768.257,358.629,773.007,360.999C779.143,363.963,786.07,366.926,792.206,363.963C794.383,362.975,796.164,361.197,798.341,360.012C805.07,356.653,812.987,360.407,820.31,362.58C828.623,364.95,837.728,364.95,846.04,362.777C850.395,361.592,854.749,359.616,857.718,356.06C860.686,352.505,861.676,347.171,859.301,343.417C856.332,338.478,849.405,337.688,843.665,338.083C837.925,338.281,831.394,338.874,827.04,335.12C823.477,331.959,822.488,326.823,819.717,322.872C816.946,318.921,810.216,316.748,807.841,320.699C805.862,324.057,808.237,329.194,805.466,331.762C800.122,336.701,794.581,326.033,792.997,322.477C787.851,310.821,778.153,301.339,766.278,296.795C765.288,296.4,764.101,296.4,763.309,296.993C760.934,298.573,762.319,301.932,764.299,303.71C766.08,305.487,768.653,307.463,768.059,310.031C767.069,314.575,761.528,312.797,759.153,310.821C757.173,309.438,755.59,307.463,753.809,306.08C748.663,302.524,741.735,303.117,736.194,305.883C723.527,312.204,718.183,327.416,705.516,333.737C692.255,340.256,671.473,327.021,681.765,312.007C684.734,307.858,689.88,305.29,695.026,305.883C697.599,306.08,699.974,307.068,702.547,307.068C705.12,307.265,707.891,306.475,709.078,304.105C711.058,300.351,707.297,296.203,706.11,292.252C704.922,288.498,706.307,284.152,708.485,280.991C719.568,264.99,747.673,253.334,766.674,256.89C774.986,258.47,785.08,259.458,790.622,253.137C792.799,250.766,793.987,247.21,796.956,246.025C798.143,245.432,799.331,245.432,800.32,244.839C803.091,243.457,804.279,239.703,802.893,236.937C803.289,236.345,803.487,236.147,803.685,236.147Z" fill="rgb(255,255,255)" stroke="none" stroke-width="1"/></mask></g><path id="eAUpb7B3i6x14" d="M1259.96,657.693L1259.96,657.693L1259.95,657.687C1255.85,655.227,1250.76,655.045,1245.75,656.044C1237.01,657.73,1228.52,660.356,1220.09,662.972L1219.91,663.028C1211.53,665.628,1203.2,668.212,1194.68,669.873L1194.68,669.873L1194.67,669.875C1192.92,670.263,1191.09,670.43,1189.47,669.721C1188.75,669.293,1188.4,668.765,1188.25,668.183C1188.1,667.572,1188.16,666.857,1188.36,666.067C1188.56,665.279,1188.89,664.464,1189.22,663.665C1189.28,663.543,1189.33,663.421,1189.38,663.299C1189.66,662.64,1189.93,661.992,1190.11,661.424C1191.32,657.484,1191.32,653.806,1191.05,650.176C1190.97,649.109,1190.86,648.052,1190.76,646.994C1190.51,644.431,1190.26,641.868,1190.33,639.164C1190.53,631.752,1191.02,625.273,1193.31,619.963C1195.57,614.692,1199.62,610.537,1207.02,607.814L1207.03,607.813C1209.37,606.926,1211.74,606.206,1214.12,605.483C1214.64,605.325,1215.16,605.167,1215.68,605.008C1218.58,604.118,1221.48,603.171,1224.28,601.872L1224.28,601.87C1228.09,600.073,1232.01,597.026,1233.06,592.665C1233.13,592.449,1233.19,592.213,1233.23,592.009C1233.25,591.919,1233.27,591.834,1233.29,591.761C1233.36,591.496,1233.44,591.265,1233.58,591.04C1233.81,590.745,1234.15,590.508,1234.62,590.303C1235.08,590.095,1235.63,589.937,1236.22,589.776C1236.3,589.755,1236.39,589.733,1236.47,589.711C1236.98,589.574,1237.52,589.429,1238.02,589.249C1238.6,589.039,1239.18,588.766,1239.64,588.362L1239.65,588.356L1239.65,588.35C1241.26,586.85,1242.51,585.012,1243.74,583.201L1243.81,583.105C1245.07,581.252,1246.32,579.424,1247.95,577.889C1249.15,576.896,1250.22,576.027,1251.61,575.842C1253.16,575.856,1254.61,576.898,1255.75,578.236L1255.76,578.239C1257.51,580.242,1259.04,581.306,1260.46,581.589C1261.92,581.879,1263.16,581.323,1264.25,580.389C1265.33,579.468,1266.34,578.128,1267.36,576.734C1267.42,576.657,1267.48,576.58,1267.53,576.503C1268.52,575.16,1269.55,573.762,1270.74,572.528L1270.74,572.528L1270.75,572.52C1273.04,570.05,1276.25,568.555,1279.75,567.754C1283.25,566.954,1287,566.855,1290.33,567.148L1290.35,567.149L1290.37,567.149C1291.12,567.149,1291.94,567.342,1292.4,567.794L1292.41,567.807L1292.42,567.82C1292.94,568.259,1293.09,568.896,1292.99,569.732C1292.91,570.526,1292.62,571.392,1292.33,572.247C1292.31,572.301,1292.3,572.356,1292.28,572.41C1289.79,579.149,1294.12,585.642,1299.64,588.622C1302.41,590.121,1305.55,590.778,1308.39,590.12C1311.26,589.457,1313.74,587.47,1315.18,583.825C1315.96,581.924,1316.52,579.984,1317.07,578.07C1317.15,577.766,1317.24,577.462,1317.33,577.16C1317.97,574.943,1318.65,572.76,1319.72,570.632C1320.31,569.522,1320.85,569.171,1321.28,569.134C1321.72,569.096,1322.28,569.368,1322.97,570.124C1324.32,571.617,1325.72,574.54,1326.99,577.961C1328.26,581.359,1329.37,585.174,1330.17,588.386C1330.57,589.992,1330.89,591.443,1331.11,592.612C1331.33,593.795,1331.44,594.655,1331.44,595.097L1331.44,595.133C1331.44,595.902,1331.44,596.795,1331.89,597.691C1332.24,598.395,1332.82,598.899,1333.42,599.294C1333.92,599.616,1334.47,599.886,1334.96,600.131C1335.06,600.18,1335.16,600.228,1335.26,600.275C1337.2,601.482,1338.53,603.539,1339.6,605.874C1340.13,607.041,1340.6,608.261,1341.04,609.458C1341.1,609.619,1341.16,609.78,1341.22,609.94C1341.6,610.964,1341.97,611.967,1342.36,612.876L1342.37,612.884C1343.52,615.458,1345.35,616.69,1347,617.799C1347.28,617.992,1347.56,618.18,1347.83,618.371C1348.75,619.024,1349.57,619.71,1350.2,620.675C1350.82,621.636,1351.29,622.91,1351.43,624.768L1351.43,624.777C1351.82,628.884,1351.63,632.997,1351.43,637.151L1351.43,637.163L1351.43,637.175C1351.43,638.305,1351.24,639.637,1351.04,640.813C1350.72,641.835,1350.17,642.756,1349.6,643.722C1349.5,643.89,1349.4,644.059,1349.3,644.231C1348.63,645.361,1347.98,646.575,1347.87,647.973C1347.78,648.454,1347.81,648.972,1347.83,649.422C1347.83,649.498,1347.84,649.572,1347.84,649.644C1347.87,650.186,1347.86,650.631,1347.7,651.015L1347.69,651.047L1347.68,651.08C1347.52,651.739,1347,652.451,1346.43,653.02L1346.41,653.038L1346.4,653.057C1339.29,661.73,1331.39,669.814,1323.47,677.916L1323.46,677.919C1318.99,682.582,1312.94,685.511,1306.99,688.281C1301.41,690.736,1296.7,690.137,1291,689.411C1289.99,689.282,1288.94,689.149,1287.86,689.029L1287.86,689.029L1287.84,689.028C1286.67,688.931,1285.44,688.738,1284.36,688.341C1283.29,687.944,1282.41,687.36,1281.9,686.507C1281.21,685.292,1281.32,684.068,1281.56,682.726C1281.59,682.566,1281.62,682.402,1281.66,682.236C1281.88,681.069,1282.13,679.776,1281.75,678.526C1281.44,677.285,1280.63,676.254,1279.91,675.328C1279.88,675.283,1279.84,675.238,1279.81,675.193C1279.03,674.19,1278.37,673.298,1278.2,672.257L1278.2,672.244L1278.2,672.23C1278.11,671.856,1278.11,671.443,1278.14,670.989C1278.17,670.706,1278.2,670.438,1278.23,670.16C1278.26,669.973,1278.28,669.781,1278.3,669.576C1278.4,668.636,1278.44,667.546,1277.69,666.68L1277.68,666.665L1277.66,666.651C1276.92,665.907,1275.89,665.755,1274.93,665.92C1273.97,666.084,1273,666.566,1272.25,667.203C1272.09,667.319,1271.93,667.437,1271.77,667.554C1271.22,667.956,1270.69,668.348,1270.13,668.635C1269.42,669.001,1268.79,669.132,1268.18,668.908C1267.55,668.671,1267.08,668.147,1266.66,667.421C1266.45,667.06,1266.26,666.664,1266.07,666.25C1266.03,666.152,1265.98,666.053,1265.93,665.954C1265.8,665.649,1265.65,665.336,1265.51,665.039C1264.28,661.183,1262.22,659.126,1259.96,657.693Z" fill="rgb(85,239,137)" fill-opacity="0.45" stroke="rgb(85,239,137)" stroke-width="1"/><path id="eAUpb7B3i6x15" d="M462.792,178.447L462.807,178.435L462.821,178.421C463.462,177.781,464.4,177.634,465.179,178.101L465.201,178.114L465.224,178.125C468.582,179.696,472.228,178.789,475.855,177.835C475.962,177.807,476.068,177.779,476.175,177.751C479.756,176.807,483.373,175.854,487.068,176.77C487.343,176.862,487.535,176.943,487.698,177.051C487.857,177.157,488.01,177.305,488.177,177.555L488.185,177.566L488.193,177.577C488.864,178.47,489.905,179.059,490.984,179.622C491.139,179.702,491.295,179.783,491.452,179.864C492.414,180.36,493.425,180.88,494.404,181.609C494.691,181.882,495.033,182.007,495.357,182.066C495.674,182.123,496.009,182.123,496.292,182.123L496.312,182.123L501.26,182.123C501.54,182.123,502.045,182.279,502.412,182.46C503.137,182.869,503.602,183.321,503.91,183.79C504.22,184.262,504.387,184.777,504.478,185.334C504.57,185.898,504.582,186.485,504.595,187.112L504.595,187.129C504.607,187.725,504.62,188.359,504.719,188.976C504.737,189.751,505.237,190.447,505.657,190.867L511.199,196.398C511.454,196.653,511.609,196.892,511.704,197.138C511.799,197.386,511.844,197.667,511.844,198.02L511.844,202.366C511.844,203.669,510.881,204.632,509.573,204.632C507.241,204.632,505.579,207.185,506.755,209.316L507.345,210.492L507.349,210.502L507.355,210.511C508.132,211.908,507.071,213.719,505.219,213.719C504.863,213.719,504.55,213.675,504.201,213.625L504.19,213.624C503.849,213.575,503.473,213.521,503.041,213.521C500.511,213.521,498.816,216.3,500.251,218.448C500.652,219.048,501.001,219.577,501.175,220.088C501.479,221.348,500.523,222.648,499.219,222.81C498.503,222.9,497.772,222.812,497.01,222.689C496.887,222.669,496.762,222.648,496.635,222.627C496.007,222.522,495.349,222.411,494.729,222.411C494.528,222.411,494.305,222.411,494.086,222.389C493.861,222.367,493.684,222.325,493.567,222.266L493.567,222.266L493.559,222.263C490.552,220.822,487.778,219.388,485.081,217.994C483.339,217.094,481.629,216.21,479.91,215.352L479.891,215.343L479.872,215.335C479.087,215.022,478.603,214.229,478.603,213.429L478.603,213.231C478.603,212.408,478.919,211.77,479.574,211.273C479.895,211.072,480.21,210.855,480.514,210.645C480.59,210.592,480.665,210.54,480.74,210.489C481.124,210.225,481.496,209.978,481.88,209.769C482.64,209.355,483.431,209.098,484.392,209.186L484.392,209.186L484.401,209.186C486.001,209.3,487.03,208.539,487.825,207.666C488.104,207.359,488.369,207.022,488.617,206.707C488.71,206.588,488.801,206.472,488.89,206.362C489.223,205.948,489.534,205.598,489.872,205.342C490.615,204.841,491.072,203.89,491.072,202.959C491.072,198.503,488.886,194.969,486.776,191.561C486.465,191.058,486.155,190.558,485.855,190.058L485.842,190.036L485.826,190.015C485.184,189.161,484.262,188.433,483.051,188.433L483.042,188.433L483.034,188.433C480.388,188.527,477.965,187.588,475.405,186.596L475.389,186.59C472.873,185.614,470.228,184.592,467.267,184.677C466.286,184.464,465.558,184.956,465.118,185.383C464.789,185.61,464.522,185.88,464.298,186.128C464.199,186.238,464.114,186.336,464.036,186.426C463.916,186.566,463.812,186.686,463.698,186.801C462.74,187.756,461.125,187.612,460.306,186.475C460.104,186.173,459.855,185.825,459.612,185.485L459.608,185.481C459.36,185.133,459.117,184.794,458.925,184.506C458.276,183.534,458.424,182.414,459.258,181.582C460.088,180.753,461.061,179.924,462.196,178.956C462.39,178.791,462.589,178.621,462.792,178.447Z" fill="rgb(85,239,137)" fill-opacity="0.12" stroke="rgb(85,239,137)" stroke-width="1"/></g><g id="eAUpb7B3i6x16" transform="matrix(1.835243 0 0 1.835243 -379.617943 -494.881478)"><g id="eAUpb7B3i6x17_ts" transform="translate(454.5,592.5) scale(0.272158,0.272158)"><circle id="eAUpb7B3i6x17" r="21.5" transform="translate(0,0)" opacity="0" fill="rgb(67,165,108)" stroke="none" stroke-width="1"/></g><g id="eAUpb7B3i6x18_ts" transform="translate(367.31808,412.68729) scale(0.272158,0.272158)"><circle id="eAUpb7B3i6x18" r="21.5" transform="translate(0,0)" opacity="0" fill="rgb(67,165,108)" stroke="none" stroke-width="1"/></g><g id="eAUpb7B3i6x19_ts" transform="translate(367.318095,412.687259) scale(0.755828,0.755828)"><circle id="eAUpb7B3i6x19" r="13.0211" transform="translate(-0.000015,0.000031)" opacity="0" fill="rgb(67,165,108)" stroke="none" stroke-width="1"/></g><g id="eAUpb7B3i6x20_ts" transform="translate(367.318095,412.68729) scale(0.457254,0.457254)"><circle id="eAUpb7B3i6x20" r="2.72535" transform="translate(-0.000015,0)" fill="rgb(75,240,145)" stroke="none" stroke-width="1"/></g><g id="eAUpb7B3i6x21_ts" transform="translate(650.65932,527.11356) scale(0.272158,0.272158)"><circle id="eAUpb7B3i6x21" r="21.5" transform="translate(0,0)" opacity="0" fill="rgb(67,165,108)" stroke="none" stroke-width="1"/></g><g id="eAUpb7B3i6x22_ts" transform="translate(901.30734,608.84661) scale(0.272158,0.272158)"><circle id="eAUpb7B3i6x22" r="21.5" transform="translate(0,0)" opacity="0" fill="rgb(67,165,108)" stroke="none" stroke-width="1"/></g><g id="eAUpb7B3i6x23_ts" transform="translate(901.307355,608.846579) scale(0.755828,0.755828)"><circle id="eAUpb7B3i6x23" r="13.0211" transform="translate(-0.000015,0.000031)" opacity="0" fill="rgb(67,165,108)" stroke="none" stroke-width="1"/></g><g id="eAUpb7B3i6x24_ts" transform="translate(901.307355,608.84661) scale(0.457254,0.457254)"><circle id="eAUpb7B3i6x24" r="2.72535" transform="translate(-0.000015,0)" fill="rgb(75,240,145)" stroke="none" stroke-width="1"/></g><g id="eAUpb7B3i6x25_ts" transform="translate(726.9435,423.58503) scale(0.272158,0.272158)"><circle id="eAUpb7B3i6x25" r="21.5" transform="translate(0,0)" opacity="0" fill="rgb(67,165,108)" stroke="none" stroke-width="1"/></g><g id="eAUpb7B3i6x26_ts" transform="translate(601.61949,488.97147) scale(0.272158,0.272158)"><circle id="eAUpb7B3i6x26" r="21.5" transform="translate(0,0)" opacity="0" fill="rgb(67,165,108)" stroke="none" stroke-width="1"/></g><g id="eAUpb7B3i6x27_ts" transform="translate(601.619505,488.971439) scale(0.755828,0.755828)"><circle id="eAUpb7B3i6x27" r="13.0211" transform="translate(-0.000015,0.000031)" opacity="0" fill="rgb(67,165,108)" stroke="none" stroke-width="1"/></g><g id="eAUpb7B3i6x28_ts" transform="translate(601.619505,488.97147) scale(0.457254,0.457254)"><circle id="eAUpb7B3i6x28" r="2.72535" transform="translate(-0.000015,0)" fill="rgb(75,240,145)" stroke="none" stroke-width="1"/></g><g id="eAUpb7B3i6x29_ts" transform="translate(726.943515,423.584999) scale(0.755828,0.755828)"><circle id="eAUpb7B3i6x29" r="13.0211" transform="translate(-0.000015,0.000031)" opacity="0" fill="rgb(67,165,108)" stroke="none" stroke-width="1"/></g><g id="eAUpb7B3i6x30_ts" transform="translate(726.943515,423.58503) scale(0.457254,0.457254)"><circle id="eAUpb7B3i6x30" r="2.72535" transform="translate(-0.000015,0)" fill="rgb(75,240,145)" stroke="none" stroke-width="1"/></g><g id="eAUpb7B3i6x31_ts" transform="translate(361.86921,472.62486) scale(0.272158,0.272158)"><circle id="eAUpb7B3i6x31" r="21.5" transform="translate(0,0)" opacity="0" fill="rgb(67,165,108)" stroke="none" stroke-width="1"/></g><g id="eAUpb7B3i6x32_ts" transform="translate(808.67655,401.78955) scale(0.272158,0.272158)"><circle id="eAUpb7B3i6x32" r="21.5" transform="translate(0,0)" opacity="0" fill="rgb(67,165,108)" stroke="none" stroke-width="1"/></g><g id="eAUpb7B3i6x33_ts" transform="translate(830.47203,478.07373) scale(0.272158,0.272158)"><circle id="eAUpb7B3i6x33" r="21.5" transform="translate(0,0)" opacity="0" fill="rgb(67,165,108)" stroke="none" stroke-width="1"/></g><g id="eAUpb7B3i6x34_ts" transform="translate(830.472045,478.073699) scale(0.755828,0.755828)"><circle id="eAUpb7B3i6x34" r="13.0211" transform="translate(-0.000015,0.000031)" opacity="0" fill="rgb(67,165,108)" stroke="none" stroke-width="1"/></g><g id="eAUpb7B3i6x35_ts" transform="translate(830.472045,478.07373) scale(0.457254,0.457254)"><circle id="eAUpb7B3i6x35" r="2.72535" transform="translate(-0.000015,0)" fill="rgb(75,240,145)" stroke="none" stroke-width="1"/></g><g id="eAUpb7B3i6x36_ts" transform="translate(808.676565,401.789519) scale(0.755828,0.755828)"><circle id="eAUpb7B3i6x36" r="13.0211" transform="translate(-0.000015,0.000031)" opacity="0" fill="rgb(67,165,108)" stroke="none" stroke-width="1"/></g><g id="eAUpb7B3i6x37_ts" transform="translate(808.676565,401.78955) scale(0.457254,0.457254)"><circle id="eAUpb7B3i6x37" r="2.72535" transform="translate(-0.000015,0)" fill="rgb(75,240,145)" stroke="none" stroke-width="1"/></g><g id="eAUpb7B3i6x38_ts" transform="translate(361.869225,472.624829) scale(0.755828,0.755828)"><circle id="eAUpb7B3i6x38" r="13.0211" transform="translate(-0.000015,0.000031)" opacity="0" fill="rgb(67,165,108)" stroke="none" stroke-width="1"/></g><g id="eAUpb7B3i6x39_ts" transform="translate(361.869225,472.62486) scale(0.457254,0.457254)"><circle id="eAUpb7B3i6x39" r="2.72535" transform="translate(-0.000015,0)" fill="rgb(75,240,145)" stroke="none" stroke-width="1"/></g><g id="eAUpb7B3i6x40_ts" transform="translate(650.659335,527.113529) scale(0.755828,0.755828)"><circle id="eAUpb7B3i6x40" r="13.0211" transform="translate(-0.000015,0.000031)" opacity="0" fill="rgb(67,165,108)" stroke="none" stroke-width="1"/></g><g id="eAUpb7B3i6x41_ts" transform="translate(650.659335,527.11356) scale(0.457254,0.457254)"><circle id="eAUpb7B3i6x41" r="2.72535" transform="translate(-0.000015,0)" fill="rgb(75,240,145)" stroke="none" stroke-width="1"/></g><g id="eAUpb7B3i6x42_ts" transform="translate(454.500015,592.499969) scale(0.755828,0.755828)"><circle id="eAUpb7B3i6x42" r="13.0211" transform="translate(-0.000015,0.000031)" opacity="0" fill="rgb(67,165,108)" stroke="none" stroke-width="1"/></g><g id="eAUpb7B3i6x43_ts" transform="translate(454.500015,592.5) scale(0.457254,0.457254)"><circle id="eAUpb7B3i6x43" r="2.72535" transform="translate(-0.000015,0)" fill="rgb(75,240,145)" stroke="none" stroke-width="1"/></g></g><path id="eAUpb7B3i6x44" d="M367.176,486.484L367.176,486.484C367.372,485.7,367.882,484.687,368.654,483.532C369.421,482.385,370.426,481.13,371.579,479.868C373.887,477.341,376.764,474.815,379.467,473.092L379.237,472.73L379.467,473.092C380.942,472.152,382.134,471.471,383.124,471.042C384.117,470.611,384.862,470.455,385.459,470.511C386.588,470.617,387.444,471.523,388.512,473.798L388.924,473.604L388.512,473.798C389.141,475.137,389.829,476.191,390.556,476.936C391.282,477.68,392.075,478.144,392.906,478.233C394.621,478.415,396.055,477.001,397.062,474.59C397.477,473.595,397.92,472.866,398.438,472.352C398.947,471.847,399.545,471.533,400.311,471.397C401.894,471.115,404.191,471.585,407.806,472.844L407.97,472.373L407.806,472.844C410.229,473.689,415.621,474.656,419.804,475.01C423.255,475.302,425.161,475.539,426.609,476.069C428.027,476.588,429.031,477.398,430.643,478.95C432.657,480.891,437.017,483.7,440.353,485.222L440.548,484.796L440.353,485.222C443.613,486.71,448.456,489.807,451.087,492.085L451.087,492.085C454.485,495.027,456.696,496.809,458.804,498.046C460.926,499.291,462.926,499.974,465.882,500.754C469.695,501.76,472.369,503.271,474.365,505.751C476.374,508.247,477.739,511.773,478.822,516.896C479.864,521.825,483.761,525.159,493.714,530.156L493.927,529.731L493.714,530.156C497.915,532.266,500.783,533.569,503.715,534.497C506.648,535.426,509.627,535.975,514.045,536.595L514.114,536.1L514.045,536.595C519.715,537.392,523.04,537.967,525.955,538.958C528.864,539.946,531.387,541.357,535.442,543.864C538.906,546.007,541.493,547.797,543.272,549.518C545.044,551.231,545.98,552.842,546.206,554.624C546.435,556.419,545.954,558.473,544.712,561.093C543.47,563.713,541.495,566.844,538.802,570.78C532.598,579.846,530.277,586.881,529.182,599.847C527.921,614.761,527.303,618.169,525.266,622.158C523.732,625.161,521.984,627.356,519.544,629.122C517.094,630.894,513.918,632.252,509.495,633.534C507.208,634.196,504.882,635.032,502.971,635.847C502.016,636.254,501.16,636.658,500.462,637.035C499.774,637.406,499.207,637.769,498.856,638.098C498.101,638.808,497.314,640.193,496.562,641.963C495.801,643.756,495.048,646.011,494.388,648.525C490.728,662.45,488.489,668.471,484.844,674.301C480.514,681.228,475.4,684.184,469.829,683.292C468.489,683.078,467.387,683.044,466.557,683.218C465.72,683.394,465.064,683.807,464.824,684.55C464.599,685.246,464.8,686.074,465.24,686.947C465.689,687.839,466.435,688.875,467.461,690.044C470.149,693.107,470.866,695.675,470.002,697.783C469.118,699.942,466.494,701.86,461.888,703.378L462.045,703.853L461.888,703.378C459.49,704.169,458.008,704.743,456.989,705.607C455.944,706.494,455.43,707.644,454.827,709.412C454.033,711.739,453.4,712.975,452.51,713.669C451.634,714.353,450.418,714.58,448.228,714.59C447.085,714.595,446.13,714.742,445.399,715.084C444.645,715.436,444.133,715.996,443.918,716.772C443.711,717.52,443.797,718.412,444.096,719.423C444.396,720.44,444.928,721.627,445.673,722.991L447.937,727.139L445.835,730.794C444.333,733.404,443.534,735.287,443.697,736.957C443.863,738.665,445.014,740.009,446.938,741.591C448.415,742.807,449.121,743.516,449.478,744.405C449.841,745.31,449.87,746.462,449.758,748.657C449.58,752.117,448.7,756.687,447.617,760.55C447.076,762.48,446.489,764.219,445.92,765.545C445.636,766.209,445.36,766.759,445.103,767.173C444.837,767.603,444.623,767.834,444.478,767.925L444.745,768.348L444.478,767.925C443.823,768.338,442.921,768.412,441.764,768.107C440.609,767.802,439.269,767.135,437.815,766.171C434.912,764.246,431.652,761.198,428.679,757.752C425.707,754.307,423.042,750.491,421.316,747.045C420.453,745.321,419.831,743.705,419.519,742.285C419.205,740.857,419.214,739.675,419.551,738.786C420.61,736.002,420.914,733.392,420.299,730.132C419.69,726.896,418.177,723.028,415.638,717.714L415.187,717.929L415.638,717.714C413.498,713.236,412.231,710.318,411.329,707.283C410.426,704.248,409.884,701.08,409.211,696.095C406.708,677.56,405.663,660.37,405.646,637.444C405.641,630.887,405.636,625.945,405.428,622.092C405.221,618.241,404.81,615.435,403.974,613.159C402.294,608.585,398.923,606.257,392.551,601.854L392.491,601.813C383.664,595.715,377.873,590.998,372.712,584.818C367.546,578.631,362.995,570.957,356.68,558.915L350.545,547.217L352.039,543.058C352.744,541.095,353.132,539.832,353.137,538.599C353.142,537.358,352.76,536.194,352.068,534.431C351.367,532.647,351.059,531.658,351.073,530.655C351.086,529.644,351.426,528.572,352.178,526.626C352.609,525.512,353.664,523.703,355.043,521.67C356.414,519.647,358.082,517.439,359.712,515.535C363.007,511.687,366.696,506.537,367.905,504.071C368.947,501.946,369.539,500.726,369.59,499.376C369.641,498.041,369.159,496.609,368.293,494.06C367.771,492.525,367.399,490.978,367.206,489.632C367.01,488.269,367.005,487.164,367.176,486.484Z" transform="matrix(1 0 0 1 -12.073861 1.054362)" fill="rgb(85,239,137)" fill-opacity="0.03" stroke="rgb(45,126,79)" stroke-width="1"/></svg>